/* XPM */
static char * bottom_active_xpm[] = {
"1 15 13 1",
" 	c #2C2C2D",
".	c #2C2C2B",
"+	c #3C3D3F",
"@	c #191A1C",
"#	c #131211",
"$	c #18181A",
"%	c #3A3A3C",
"&	c #252527",
"*	c #242426",
"=	c #212123",
"-	c #222224",
";	c #1A1A1C",
">	c #141517",
" ",
".",
"+",
"@",
"#",
"$",
"%",
"&",
"*",
"&",
"*",
"=",
"-",
";",
">"};
