/* XPM */
static char * bottom_left_active_xpm[] = {
"57 57 125 2",
"  	c None",
". 	c #052738",
"+ 	c #052A3C",
"@ 	c #181818",
"# 	c #141414",
"$ 	c #212121",
"% 	c #555555",
"& 	c #252525",
"* 	c #1C1C1C",
"= 	c #1599DA",
"- 	c #0D628C",
"; 	c #0B577C",
"> 	c #0C5C83",
", 	c #0C587D",
"' 	c #0C597F",
") 	c #232325",
"! 	c #59595B",
"~ 	c #313133",
"{ 	c #222222",
"] 	c #2D2D2F",
"^ 	c #242529",
"/ 	c #747476",
"( 	c #353537",
"_ 	c #303032",
": 	c #272729",
"< 	c #222224",
"[ 	c #1F1F21",
"} 	c #202022",
"| 	c #323234",
"1 	c #171717",
"2 	c #151515",
"3 	c #373536",
"4 	c #262626",
"5 	c #1B1C1E",
"6 	c #2C2C2D",
"7 	c #121212",
"8 	c #131313",
"9 	c #1F1F1F",
"0 	c #202020",
"a 	c #2C2C2B",
"b 	c #3E3E3E",
"c 	c #3C3D3F",
"d 	c #111111",
"e 	c #191A1C",
"f 	c #2D2D2D",
"g 	c #101010",
"h 	c #0F0F0F",
"i 	c #131211",
"j 	c #212528",
"k 	c #757575",
"l 	c #343434",
"m 	c #313131",
"n 	c #29292B",
"o 	c #1D1D1F",
"p 	c #242426",
"q 	c #39393B",
"r 	c #28282A",
"s 	c #141416",
"t 	c #0F0F11",
"u 	c #111113",
"v 	c #18181A",
"w 	c #1D1E23",
"x 	c #1179A0",
"y 	c #323338",
"z 	c #222629",
"A 	c #6C6C6C",
"B 	c #252527",
"C 	c #1E1E20",
"D 	c #3E3E40",
"E 	c #3F3F41",
"F 	c #3A3A3C",
"G 	c #1C1D22",
"H 	c #0F6C92",
"I 	c #262A2D",
"J 	c #585858",
"K 	c #363636",
"L 	c #2B2B2B",
"M 	c #262628",
"N 	c #202125",
"O 	c #117197",
"P 	c #2F3034",
"Q 	c #2C3033",
"R 	c #3C3C3E",
"S 	c #414143",
"T 	c #1F2024",
"U 	c #117399",
"V 	c #2E2F33",
"W 	c #27282A",
"X 	c #3D3E40",
"Y 	c #2A2B2D",
"Z 	c #222327",
"` 	c #11779C",
" .	c #323337",
"..	c #242527",
"+.	c #28292B",
"@.	c #232323",
"#.	c #242424",
"$.	c #232428",
"%.	c #157FA5",
"&.	c #343539",
"*.	c #1D1E20",
"=.	c #232426",
"-.	c #212123",
";.	c #157FA3",
">.	c #2D2E30",
",.	c #1E1F21",
"'.	c #26272B",
").	c #137CA2",
"!.	c #36373B",
"~.	c #202427",
"{.	c #17181A",
"].	c #141517",
"^.	c #1A1B1D",
"/.	c #1B1B1D",
"(.	c #19191B",
"_.	c #1A1A1C",
":.	c #1C1C1E",
"<.	c #1179A1",
"[.	c #333436",
"}.	c #292A2E",
"|.	c #131416",
"1.	c #151618",
"2.	c #18191B",
"3.	c #137499",
"4.	c #262729",
". . + + + . . + + @ # $ % & *                                                                                     ",
"= - ; > , ; ' > , @ # $ % & *                                                                                     ",
") ! ~ ) $ { $ ) ] @ # $ % & *                                                                                     ",
") ! ~ ) $ { $ ) ] @ # $ % & *                                                                                     ",
") ! ~ ) $ { $ ) ] @ # $ % & *                                                                                     ",
") ! ~ ) $ { $ ) ] @ # $ % & *                                                                                     ",
") ! ~ ) $ { $ ) ] @ # $ % & *                                                                                     ",
") ! ~ ) $ { $ ) ] @ # $ % & *                                                                                     ",
") ! ~ ) $ { $ ) ] @ # $ % & *                                                                                     ",
") ! ~ ) $ { $ ) ] @ # $ % & *                                                                                     ",
") ! ~ ) $ { $ ) ] @ # $ % & *                                                                                     ",
") ! ~ ) $ { $ ) ] @ # $ % & *                                                                                     ",
") ! ~ ) $ { $ ) ] @ # $ % & *                                                                                     ",
") ! ~ ) $ { $ ) ] @ # $ % & *                                                                                     ",
") ! ~ ) $ { $ ) ] @ # $ % & *                                                                                     ",
") ! ~ ) $ { $ ) ] @ # $ % & *                                                                                     ",
") ! ~ ) $ { $ ) ] @ # $ % & *                                                                                     ",
") ! ~ ) $ { $ ) ] @ # $ % & *                                                                                     ",
") ! ~ ) $ { $ ) ] @ # $ % & *                                                                                     ",
") ! ~ ) $ { $ ) ] @ # $ % & *                                                                                     ",
") ! ~ ) $ { $ ) ] @ # $ % & *                                                                                     ",
") ! ~ ) $ { $ ) ] @ # $ % & *                                                                                     ",
") ! ~ ) $ { $ ) ] @ # $ % & *                                                                                     ",
") ! ~ ) $ { $ ) ] @ # $ % & *                                                                                     ",
") ! ~ ) $ { $ ) ] @ # $ % & *                                                                                     ",
") ! ~ ) $ { $ ) ] @ # $ % & *                                                                                     ",
") ! ~ ) $ { $ ) ] @ # $ % & *                                                                                     ",
") ! ~ ) $ { $ ) ] @ # $ % & *                                                                                     ",
") ! ~ ) $ { $ ) ] @ # $ % & *                                                                                     ",
") ! ~ ) $ { $ ) ] @ # $ % & *                                                                                     ",
") ! ~ ) $ { $ ) ] @ # $ % & *                                                                                     ",
") ! ~ ) $ { $ ) ] @ # $ % & *                                                                                     ",
") ! ~ ) $ { $ ) ] @ # $ % & *                                                                                     ",
") ! ~ ) $ { $ ) ] @ # $ % & *                                                                                     ",
") ! ~ ) $ { $ ) ] @ # $ % & *                                                                                     ",
") ! ~ ) $ { $ ) ] @ # $ % & *                                                                                     ",
") ! ~ ) $ { $ ) ] @ # $ % & *                                                                                     ",
") ! ~ ) $ { $ ) ] @ # $ % & *                                                                                     ",
") ! ~ ) $ { $ ) ] @ # $ % & *                                                                                     ",
") ! ~ ) $ { $ ) ] @ # $ % & *                                                                                     ",
") ! ~ ) $ { $ ) ] @ # $ % & *                                                                                     ",
") ! ~ ) $ { $ ) ] @ # $ % & *                                                                                     ",
"^ / ( _ : < [ } | # 1 2 3 4 5 6 6 6 6 6 6 6 6 6 6 6 6 6 6 6 6 6 6 6 6 6 6 6 6 6 6 6 6 6 6 6 6 6 6 6 6 6 6 6 6 6 6 ",
"^ / ( _ : < [ } | 7 8 7 { 9 0 a a a a a a a a a a a a a a a a a a a a a a a a a a a a a a a a a a a a a a a a a a ",
"^ / ( _ : < [ } | 8 7 8 # $ b c c c c c c c c c c c c c c c c c c c c c c c c c c c c c c c c c c c c c c c c c c ",
"^ / ( _ : < [ } | 2 2 7 # d 8 e e e e e e e e e e e e e e e e e e e e e e e e e e e e e e e e e e e e e e e e e e ",
"^ / ( _ : < [ } | f g 2 h 2 d i i i i i i i i i i i i i i i i i i i i i i i i i i i i i i i i i i i i i i i i i i ",
"j k l m n [ < o p q r s t u u v v v v v v v v v v v v v v v v v v v v v v v v v v v v v v v v v v v v v v v w x y ",
"z A l m B ) < C [ : ~ q D E D F F F F F F F F F F F F F F F F F F F F F F F F F F F F F F F F F F F F F F F G H y ",
"I J K L : M < p < C ) ) } [ } B B B B B B B B B B B B B B B B B B B B B B B B B B B B B B B B B B B B B B B N O P ",
"Q R S n r ) ) B B p B B B B p p p p p p p p p p p p p p p p p p p p p p p p p p p p p p p p p p p p p p p p T U V ",
"  W X Y p < M ) B M p p B B p B B B B B B B B B B B B B B B B B B B B B B B B B B B B B B B B B B B B B B B Z `  .",
"  Y ..+.W < @.@.#.M p p ) p B p p p p p p p p p p p p p p p p p p p p p p p p p p p p p p p p p p p p p p p $.%.&.",
"    *.=.+.< 0 { $ [ } ) -.} < -.-.-.-.-.-.-.-.-.-.-.-.-.-.-.-.-.-.-.-.-.-.-.-.-.-.-.-.-.-.-.-.-.-.-.-.-.-.-.Z ;. .",
"    >.*.,.) & { #.) -.) < < ) < < < < < < < < < < < < < < < < < < < < < < < < < < < < < < < < < < < < < < < '.).!.",
"      Q ~.{.].{.^./.(._.v :.(._._._._._._._._._._._._._._._._._._._._._._._._._._._._._._._._._._._._._._._...<.[.",
"          }.,.{.].].].|.1.].|.].].].].].].].].].].].].].].].].].].].].].].].].].].].].].].].].].].].].].].].2.3.4."};
