/* XPM */
static char * bottom_right_active_xpm[] = {
"57 57 125 2",
"  	c None",
". 	c #1C1C1C",
"+ 	c #252525",
"@ 	c #555555",
"# 	c #212121",
"$ 	c #141414",
"% 	c #181818",
"& 	c #052A3C",
"* 	c #052738",
"= 	c #0C587D",
"- 	c #0C5C83",
"; 	c #0C597F",
"> 	c #0B577C",
", 	c #0D628C",
"' 	c #1599DA",
") 	c #2D2D2F",
"! 	c #232325",
"~ 	c #222222",
"{ 	c #313133",
"] 	c #59595B",
"^ 	c #2C2C2D",
"/ 	c #1B1C1E",
"( 	c #262626",
"_ 	c #373536",
": 	c #151515",
"< 	c #171717",
"[ 	c #323234",
"} 	c #202022",
"| 	c #1F1F21",
"1 	c #222224",
"2 	c #272729",
"3 	c #303032",
"4 	c #353537",
"5 	c #747476",
"6 	c #242529",
"7 	c #2C2C2B",
"8 	c #202020",
"9 	c #1F1F1F",
"0 	c #121212",
"a 	c #131313",
"b 	c #3C3D3F",
"c 	c #3E3E3E",
"d 	c #191A1C",
"e 	c #111111",
"f 	c #131211",
"g 	c #0F0F0F",
"h 	c #101010",
"i 	c #2D2D2D",
"j 	c #323338",
"k 	c #1179A0",
"l 	c #1D1E23",
"m 	c #18181A",
"n 	c #111113",
"o 	c #0F0F11",
"p 	c #141416",
"q 	c #28282A",
"r 	c #39393B",
"s 	c #242426",
"t 	c #1D1D1F",
"u 	c #29292B",
"v 	c #313131",
"w 	c #343434",
"x 	c #757575",
"y 	c #212528",
"z 	c #0F6C92",
"A 	c #1C1D22",
"B 	c #3A3A3C",
"C 	c #3E3E40",
"D 	c #3F3F41",
"E 	c #1E1E20",
"F 	c #252527",
"G 	c #6C6C6C",
"H 	c #222629",
"I 	c #2F3034",
"J 	c #117197",
"K 	c #202125",
"L 	c #262628",
"M 	c #2B2B2B",
"N 	c #363636",
"O 	c #585858",
"P 	c #262A2D",
"Q 	c #2E2F33",
"R 	c #117399",
"S 	c #1F2024",
"T 	c #414143",
"U 	c #3C3C3E",
"V 	c #2C3033",
"W 	c #323337",
"X 	c #11779C",
"Y 	c #222327",
"Z 	c #2A2B2D",
"` 	c #3D3E40",
" .	c #27282A",
"..	c #343539",
"+.	c #157FA5",
"@.	c #232428",
"#.	c #242424",
"$.	c #232323",
"%.	c #28292B",
"&.	c #242527",
"*.	c #157FA3",
"=.	c #212123",
"-.	c #232426",
";.	c #1D1E20",
">.	c #36373B",
",.	c #137CA2",
"'.	c #26272B",
").	c #1E1F21",
"!.	c #2D2E30",
"~.	c #333436",
"{.	c #1179A1",
"].	c #1A1A1C",
"^.	c #19191B",
"/.	c #1C1C1E",
"(.	c #1B1B1D",
"_.	c #1A1B1D",
":.	c #17181A",
"<.	c #141517",
"[.	c #202427",
"}.	c #262729",
"|.	c #137499",
"1.	c #18191B",
"2.	c #131416",
"3.	c #151618",
"4.	c #292A2E",
"                                                                                    . + @ # $ % & & * * & & & * * ",
"                                                                                    . + @ # $ % = - ; > = - > , ' ",
"                                                                                    . + @ # $ % ) ! # ~ # ! { ] ! ",
"                                                                                    . + @ # $ % ) ! # ~ # ! { ] ! ",
"                                                                                    . + @ # $ % ) ! # ~ # ! { ] ! ",
"                                                                                    . + @ # $ % ) ! # ~ # ! { ] ! ",
"                                                                                    . + @ # $ % ) ! # ~ # ! { ] ! ",
"                                                                                    . + @ # $ % ) ! # ~ # ! { ] ! ",
"                                                                                    . + @ # $ % ) ! # ~ # ! { ] ! ",
"                                                                                    . + @ # $ % ) ! # ~ # ! { ] ! ",
"                                                                                    . + @ # $ % ) ! # ~ # ! { ] ! ",
"                                                                                    . + @ # $ % ) ! # ~ # ! { ] ! ",
"                                                                                    . + @ # $ % ) ! # ~ # ! { ] ! ",
"                                                                                    . + @ # $ % ) ! # ~ # ! { ] ! ",
"                                                                                    . + @ # $ % ) ! # ~ # ! { ] ! ",
"                                                                                    . + @ # $ % ) ! # ~ # ! { ] ! ",
"                                                                                    . + @ # $ % ) ! # ~ # ! { ] ! ",
"                                                                                    . + @ # $ % ) ! # ~ # ! { ] ! ",
"                                                                                    . + @ # $ % ) ! # ~ # ! { ] ! ",
"                                                                                    . + @ # $ % ) ! # ~ # ! { ] ! ",
"                                                                                    . + @ # $ % ) ! # ~ # ! { ] ! ",
"                                                                                    . + @ # $ % ) ! # ~ # ! { ] ! ",
"                                                                                    . + @ # $ % ) ! # ~ # ! { ] ! ",
"                                                                                    . + @ # $ % ) ! # ~ # ! { ] ! ",
"                                                                                    . + @ # $ % ) ! # ~ # ! { ] ! ",
"                                                                                    . + @ # $ % ) ! # ~ # ! { ] ! ",
"                                                                                    . + @ # $ % ) ! # ~ # ! { ] ! ",
"                                                                                    . + @ # $ % ) ! # ~ # ! { ] ! ",
"                                                                                    . + @ # $ % ) ! # ~ # ! { ] ! ",
"                                                                                    . + @ # $ % ) ! # ~ # ! { ] ! ",
"                                                                                    . + @ # $ % ) ! # ~ # ! { ] ! ",
"                                                                                    . + @ # $ % ) ! # ~ # ! { ] ! ",
"                                                                                    . + @ # $ % ) ! # ~ # ! { ] ! ",
"                                                                                    . + @ # $ % ) ! # ~ # ! { ] ! ",
"                                                                                    . + @ # $ % ) ! # ~ # ! { ] ! ",
"                                                                                    . + @ # $ % ) ! # ~ # ! { ] ! ",
"                                                                                    . + @ # $ % ) ! # ~ # ! { ] ! ",
"                                                                                    . + @ # $ % ) ! # ~ # ! { ] ! ",
"                                                                                    . + @ # $ % ) ! # ~ # ! { ] ! ",
"                                                                                    . + @ # $ % ) ! # ~ # ! { ] ! ",
"                                                                                    . + @ # $ % ) ! # ~ # ! { ] ! ",
"                                                                                    . + @ # $ % ) ! # ~ # ! { ] ! ",
"^ ^ ^ ^ ^ ^ ^ ^ ^ ^ ^ ^ ^ ^ ^ ^ ^ ^ ^ ^ ^ ^ ^ ^ ^ ^ ^ ^ ^ ^ ^ ^ ^ ^ ^ ^ ^ ^ ^ ^ ^ ^ / ( _ : < $ [ } | 1 2 3 4 5 6 ",
"7 7 7 7 7 7 7 7 7 7 7 7 7 7 7 7 7 7 7 7 7 7 7 7 7 7 7 7 7 7 7 7 7 7 7 7 7 7 7 7 7 7 8 9 ~ 0 a 0 [ } | 1 2 3 4 5 6 ",
"b b b b b b b b b b b b b b b b b b b b b b b b b b b b b b b b b b b b b b b b b b c # $ a 0 a [ } | 1 2 3 4 5 6 ",
"d d d d d d d d d d d d d d d d d d d d d d d d d d d d d d d d d d d d d d d d d d a e $ 0 : : [ } | 1 2 3 4 5 6 ",
"f f f f f f f f f f f f f f f f f f f f f f f f f f f f f f f f f f f f f f f f f f e : g : h i [ } | 1 2 3 4 5 6 ",
"j k l m m m m m m m m m m m m m m m m m m m m m m m m m m m m m m m m m m m m m m m n n o p q r s t 1 | u v w x y ",
"j z A B B B B B B B B B B B B B B B B B B B B B B B B B B B B B B B B B B B B B B B C D C r { 2 | E 1 ! F v w G H ",
"I J K F F F F F F F F F F F F F F F F F F F F F F F F F F F F F F F F F F F F F F F } | } ! ! E 1 s 1 L 2 M N O P ",
"Q R S s s s s s s s s s s s s s s s s s s s s s s s s s s s s s s s s s s s s s s s s F F F F s F F ! ! q u T U V ",
"W X Y F F F F F F F F F F F F F F F F F F F F F F F F F F F F F F F F F F F F F F F s F F s s L F ! L 1 s Z `  .  ",
"..+.@.s s s s s s s s s s s s s s s s s s s s s s s s s s s s s s s s s s s s s s s F s ! s s L #.$.$.1  .%.&.Z   ",
"W *.Y =.=.=.=.=.=.=.=.=.=.=.=.=.=.=.=.=.=.=.=.=.=.=.=.=.=.=.=.=.=.=.=.=.=.=.=.=.=.=.1 } =.! } | # ~ 8 1 %.-.;.    ",
">.,.'.1 1 1 1 1 1 1 1 1 1 1 1 1 1 1 1 1 1 1 1 1 1 1 1 1 1 1 1 1 1 1 1 1 1 1 1 1 1 1 ! 1 1 ! =.! #.~ + ! ).;.!.    ",
"~.{.&.].].].].].].].].].].].].].].].].].].].].].].].].].].].].].].].].].].].].].].].^./.m ].^.(._.:.<.:.[.V       ",
"}.|.1.<.<.<.<.<.<.<.<.<.<.<.<.<.<.<.<.<.<.<.<.<.<.<.<.<.<.<.<.<.<.<.<.<.<.<.<.<.<.<.2.<.3.2.<.<.<.:.).4.          "};
