/* XPM */
static char * bottom_left_inactive_xpm[] = {
"15 15 80 1",
" 	c None",
".	c #242529",
"+	c #747476",
"@	c #353537",
"#	c #303032",
"$	c #272729",
"%	c #222224",
"&	c #1F1F21",
"*	c #202022",
"=	c #323234",
"-	c #141414",
";	c #171717",
">	c #151515",
",	c #373536",
"'	c #262626",
")	c #1B1C1E",
"!	c #121212",
"~	c #131313",
"{	c #222222",
"]	c #1F1F1F",
"^	c #202020",
"/	c #212121",
"(	c #3E3E3E",
"_	c #111111",
":	c #2D2D2D",
"<	c #101010",
"[	c #0F0F0F",
"}	c #212528",
"|	c #757575",
"1	c #343434",
"2	c #313131",
"3	c #29292B",
"4	c #1D1D1F",
"5	c #242426",
"6	c #39393B",
"7	c #28282A",
"8	c #141416",
"9	c #0F0F11",
"0	c #111113",
"a	c #222629",
"b	c #6C6C6C",
"c	c #252527",
"d	c #232325",
"e	c #1E1E20",
"f	c #313133",
"g	c #3E3E40",
"h	c #3F3F41",
"i	c #262A2D",
"j	c #585858",
"k	c #363636",
"l	c #2B2B2B",
"m	c #262628",
"n	c #2C3033",
"o	c #3C3C3E",
"p	c #414143",
"q	c #27282A",
"r	c #3D3E40",
"s	c #2A2B2D",
"t	c #242527",
"u	c #28292B",
"v	c #232323",
"w	c #242424",
"x	c #1D1E20",
"y	c #232426",
"z	c #212123",
"A	c #2D2E30",
"B	c #1E1F21",
"C	c #252525",
"D	c #202427",
"E	c #17181A",
"F	c #141517",
"G	c #1A1B1D",
"H	c #1B1B1D",
"I	c #19191B",
"J	c #1A1A1C",
"K	c #18181A",
"L	c #1C1C1E",
"M	c #292A2E",
"N	c #131416",
"O	c #151618",
".+@#$%&*=-;>,')",
".+@#$%&*=!~!{]^",
".+@#$%&*=~!~-/(",
".+@#$%&*=>>!-_~",
".+@#$%&*=:<>[>_",
"}|123&%45678900",
"ab12cd%e&$f6ghg",
"ijkl$m%5%edd*&*",
"nop37ddcc5cccc5",
" qrs5%mdcm55cc5",
" stuq%vvwm55d5c",
"  xyu%^{/&*dz*%",
"  AxBdC{wdzd%%d",
"   nDEFEGHIJKLI",
"     MBEFFFNOFN"};
