/* XPM */
static char * bottom_right_inactive_xpm[] = {
"15 15 75 1",
" 	c None",
".	c #1F1F1F",
"+	c #5D5D5D",
"@	c #191919",
"#	c #141414",
"$	c #151515",
"%	c #2D2D2D",
"&	c #202020",
"*	c #212121",
"=	c #222222",
"-	c #232325",
";	c #2A2A2C",
">	c #606062",
",	c #151618",
"'	c #1C1C1C",
")	c #2A2A2A",
"!	c #7F7F7F",
"~	c #1A1A1A",
"{	c #303030",
"]	c #494949",
"^	c #3E3E3E",
"/	c #424242",
"(	c #131313",
"_	c #111111",
":	c #313131",
"<	c #121212",
"[	c #161616",
"}	c #181818",
"|	c #101010",
"1	c #2C2C2C",
"2	c #333333",
"3	c #111113",
"4	c #121214",
"5	c #141416",
"6	c #363638",
"7	c #252527",
"8	c #212123",
"9	c #222021",
"0	c #232323",
"a	c #222224",
"b	c #28282A",
"c	c #5D5E60",
"d	c #3E3E40",
"e	c #3C3C3E",
"f	c #3D3D3F",
"g	c #38383A",
"h	c #313133",
"i	c #272729",
"j	c #1C1C1E",
"k	c #242426",
"l	c #535456",
"m	c #141517",
"n	c #1F1F21",
"o	c #202022",
"p	c #1E1E20",
"q	c #2F2F31",
"r	c #3B3C3E",
"s	c #262628",
"t	c #323335",
"u	c #1F2022",
"v	c #1A1B1D",
"w	c #252525",
"x	c #28292B",
"y	c #131416",
"z	c #242424",
"A	c #222325",
"B	c #17181A",
"C	c #191A1C",
"D	c #1D1E20",
"E	c #1E1E1E",
"F	c #18181A",
"G	c #121315",
"H	c #111214",
"I	c #18191B",
"J	c #1C1D1F",
"..+@#$%&*=*-;>,",
"')!~$#{=*=*-;>,",
"]^/@(_:=*=*-;>,",
"<(_[#}%=*=*-;>,",
"_#(|#12**=*-;>,",
"3345;67890a7bc,",
"defghijk&0--;lm",
"an8-aopo&*aoqrm",
"77ka-s7n=&8atuv",
"ksss7-77w=ksxy ",
"kka-s7--z0kABB ",
"oa-88-aa=*pCyD ",
"-oa-888-=EFGD  ",
"CCCCCCCCHmIJ   ",
",,,,,,,,vJ     "};
