/* XPM */
static char * hide_pressed_xpm[] = {
"26 28 119 2",
"  	c None",
". 	c #1A1B1D",
"+ 	c #1B1B1D",
"@ 	c #1A1A1C",
"# 	c #171719",
"$ 	c #141416",
"% 	c #050505",
"& 	c #0C0C0C",
"* 	c #101010",
"= 	c #0E0E0E",
"- 	c #8F9092",
"; 	c #919193",
"> 	c #909092",
", 	c #8F8F91",
"' 	c #8E8E90",
") 	c #8E8E8E",
"! 	c #919191",
"~ 	c #8F8F8F",
"{ 	c #3E3E40",
"] 	c #3F3F41",
"^ 	c #3E3E3E",
"/ 	c #323234",
"( 	c #313133",
"_ 	c #323232",
": 	c #333333",
"< 	c #343436",
"[ 	c #2A2A2C",
"} 	c #2B2B2D",
"| 	c #29292B",
"1 	c #2A2A2A",
"2 	c #252527",
"3 	c #242426",
"4 	c #262628",
"5 	c #252525",
"6 	c #262626",
"7 	c #222224",
"8 	c #212121",
"9 	c #222222",
"0 	c #232323",
"a 	c #232325",
"b 	c #232122",
"c 	c #202022",
"d 	c #212123",
"e 	c #202020",
"f 	c #1C1C1C",
"g 	c #0F0F11",
"h 	c #101012",
"i 	c #0D0D0F",
"j 	c #0C0C0E",
"k 	c #0D0D0D",
"l 	c #0E0E10",
"m 	c #0F0F0F",
"n 	c #1B1B1B",
"o 	c #171717",
"p 	c #010103",
"q 	c #020204",
"r 	c #000002",
"s 	c #030305",
"t 	c #010101",
"u 	c #030303",
"v 	c #191919",
"w 	c #19191B",
"x 	c #151517",
"y 	c #161618",
"z 	c #18181A",
"A 	c #1D1D1D",
"B 	c #3A3A3C",
"C 	c #3B3B3D",
"D 	c #3C3B40",
"E 	c #39393B",
"F 	c #1D1D1F",
"G 	c #000000",
"H 	c #2D2D2F",
"I 	c #2D2C32",
"J 	c #2E2E30",
"K 	c #1E1E1E",
"L 	c #121214",
"M 	c #111113",
"N 	c #131315",
"O 	c #303032",
"P 	c #353537",
"Q 	c #373739",
"R 	c #363638",
"S 	c #1F1F1F",
"T 	c #141414",
"U 	c #151515",
"V 	c #131313",
"W 	c #131512",
"X 	c #121411",
"Y 	c #141613",
"Z 	c #131210",
"` 	c #171516",
" .	c #141213",
"..	c #5B5B5D",
"+.	c #575759",
"@.	c #565658",
"#.	c #545456",
"$.	c #525254",
"%.	c #505052",
"&.	c #4F4F51",
"*.	c #4E4E50",
"=.	c #4F4F4F",
"-.	c #4C4C4C",
";.	c #515151",
">.	c #292927",
",.	c #282826",
"'.	c #272725",
").	c #262624",
"!.	c #252523",
"~.	c #242527",
"{.	c #252628",
"].	c #1E201F",
"^.	c #1D1F1E",
"/.	c #1C1E1D",
"(.	c #1B1D1C",
"_.	c #191D20",
":.	c #1A1E21",
"<.	c #1A1B1F",
"[.	c #1E1F21",
". . . . . . . . . . . . . . + @ @ @ + @ # $ % & * = ",
"- - - - - - - - - - - - - - ; > , > ; ; > ' ) ! ! ~ ",
"{ { { { { { { { { { { { { { ] { { { { ] ] ] ^ ^ ^ ^ ",
"/ / / / / / / / / / / / / / / / / ( ( ( / / _ _ : < ",
"[ [ [ [ [ [ [ [ [ [ [ [ [ [ [ } } } [ | [ [ 1 1 1 [ ",
"2 2 2 2 2 2 2 2 2 2 2 2 2 2 3 2 2 4 2 2 2 2 5 6 6 3 ",
"7 7 7 7 7 7 7 7 7 7 7 7 7 7 7 7 7 7 7 7 7 7 8 9 0 7 ",
"7 7 7 7 7 7 7 7 7 7 7 7 7 7 3 a 7 7 7 7 7 7 b 9 7 7 ",
"9 c a c d 7 d d d d d d d d d d d d d d d d c d 9 e ",
"f g h i j i k k k k k k k k k k k k k k k k h l m n ",
"o p q p r s t t t t t t t t t t t t t t t t r r u v ",
"f q i w $ x y y y y y y y y y y y y y y y y z g u n ",
"A r w B { C D D D D D D D D D D D D D D D D E F G f ",
"f r # H H [ I I I I I I I I I I I I I I I I J # G K ",
"K p j L M $ L L L L L L L L L L L L L L L L N l t 8 ",
"6 r r p r r G G G G G G G G G G G G G G G G r q G 5 ",
"[ O P Q Q R R R R R R R R R R R R R R R R R R < O [ ",
"d d d d d d d d d d d d d d d d d d d d d d d 7 7 d ",
"7 d d d d d d d d d d d d d d d d d d d d d c c d d ",
"8 9 9 9 8 8 8 8 8 8 8 8 8 8 8 8 8 8 8 8 8 8 9 9 9 9 ",
"9 8 8 8 8 8 8 8 8 8 8 8 8 8 8 8 8 8 8 8 8 8 8 e e e ",
"S S S e e 8 e e e e e e e e e e e e e e e e 8 e e e ",
"T U U T T T T T T T T T T T T T T T T T T T T T T T ",
"T T T T T T T T T T T T T T T T T T T T T T V T U U ",
"W W W W W W W W X X X W W Y W W W W W W W W Z `  .V ",
"............+.@.#.$.%.&.*.*.*.*.*.*.*.*.*.*.=.-.=.;.",
">.>.>.>.>.>.>.,.'.).).!.!.!.!.!.!.!.!.!.!.!.~.{.{.a ",
"].].].].].].^.^././.(.(././.(.(.(.(.(.(.(.(._.:.<.[."};
