/* XPM */
static char * hide_inactive_xpm[] = {
"26 28 113 2",
"  	c None",
". 	c #191A1C",
"+ 	c #8F9190",
"@ 	c #3E3E40",
"# 	c #323234",
"$ 	c #333335",
"% 	c #2A2A2C",
"& 	c #29292B",
"* 	c #2B2B2D",
"= 	c #262628",
"- 	c #252527",
"; 	c #242426",
"> 	c #222224",
", 	c #232325",
"' 	c #212123",
") 	c #202022",
"! 	c #1F1F21",
"~ 	c #19191B",
"{ 	c #141416",
"] 	c #101012",
"^ 	c #0E0E10",
"/ 	c #0D0D0F",
"( 	c #131315",
"_ 	c #171717",
": 	c #090E08",
"< 	c #0B100C",
"[ 	c #0D0C12",
"} 	c #0E0C0D",
"| 	c #130A0B",
"1 	c #0E0D0B",
"2 	c #0B0A10",
"3 	c #0B1413",
"4 	c #0B0B0D",
"5 	c #1F161B",
"6 	c #1D1C1A",
"7 	c #0F1410",
"8 	c #022D3E",
"9 	c #025780",
"0 	c #004662",
"a 	c #004562",
"b 	c #004463",
"c 	c #032B37",
"d 	c #0E1215",
"e 	c #1C1B20",
"f 	c #22191A",
"g 	c #004A63",
"h 	c #029ED7",
"i 	c #009CD3",
"j 	c #009DD1",
"k 	c #029DD5",
"l 	c #009BCC",
"m 	c #004A66",
"n 	c #131017",
"o 	c #241A22",
"p 	c #21161A",
"q 	c #0F1219",
"r 	c #043850",
"s 	c #006591",
"t 	c #016690",
"u 	c #036592",
"v 	c #046391",
"w 	c #006C97",
"x 	c #00384C",
"y 	c #10120F",
"z 	c #1C2021",
"A 	c #201C1D",
"B 	c #0D161B",
"C 	c #062B33",
"D 	c #00363E",
"E 	c #003348",
"F 	c #002F4D",
"G 	c #023548",
"H 	c #004055",
"I 	c #012D38",
"J 	c #0D130F",
"K 	c #201E21",
"L 	c #232321",
"M 	c #150E15",
"N 	c #16101A",
"O 	c #141319",
"P 	c #0E1414",
"Q 	c #18150C",
"R 	c #151014",
"S 	c #151318",
"T 	c #141311",
"U 	c #262425",
"V 	c #2D2C2A",
"W 	c #323031",
"X 	c #363638",
"Y 	c #323639",
"Z 	c #363636",
"` 	c #38363B",
" .	c #373833",
"..	c #313536",
"+.	c #313639",
"@.	c #293231",
"#.	c #2A2B2D",
"$.	c #1F2420",
"%.	c #1E231D",
"&.	c #222021",
"*.	c #212320",
"=.	c #222126",
"-.	c #231D1F",
";.	c #232323",
">.	c #222222",
",.	c #1F1F1F",
"'.	c #141414",
").	c #5A5A5A",
"!.	c #28292B",
"~.	c #2A2829",
"{.	c #292929",
"].	c #1F1F1D",
"^.	c #1E201F",
". . . . . . . . . . . . . . . . . . . . . . . . . . ",
"+ + + + + + + + + + + + + + + + + + + + + + + + + + ",
"@ @ @ @ @ @ @ @ @ @ @ @ @ @ @ @ @ @ @ @ @ @ @ @ @ @ ",
"# $ # # # # # # # # # # # # # # # # # # # # $ $ $ # ",
"% % & & % % % % % % % % % % % % % % % % % % % * * * ",
"= = = = - - - - - - - - - - - - - - - - = = - ; ; ; ",
"> > > , > > > > > > > > > > > > > > > > , , > > > > ",
"> > , , > > > > > > > > > > > > > > > > ' ' > > > > ",
"' ) ) ! ' ' ' ' ' ' ' ' ' ' ' ' ' ' ' ' ' ' ' ' ' > ",
"~ { ] ^ / / / / / / / / / / / / / / / / / / ^ ] ( ~ ",
"_ : < [ } } } } } } } } } } } } } } } } | 1 2 3 4 5 ",
"6 7 8 9 0 0 0 0 0 0 0 0 0 0 0 0 0 0 0 0 a b b c d e ",
"f 3 g h i i i i i i i i i i i i i i i i j k l m n o ",
"p q r s t t t t t t t t t t t t t t t t u v w x y z ",
"A B C D E E E E E E E E E E E E E E E E F G H I J K ",
"L M N O ( ( ( ( ( ( ( ( ( ( ( ( ( ( ( ( P Q R S T U ",
"V W X Y Z Z Z Z Z Z Z Z Z Z Z Z Z Z Z Z `  ...+.@.#.",
"K $.%.&.' ' ' ' ' ' ' ' ' ' ' ' ' ' ' ' ) *.=.-.;.> ",
"' ' ' ' ' ' ' ' ' ' ' ' ' ' ' ' ' ' ' ' ' ' ' ' ' ' ",
"' ' ' ' ' ' ' ' ' ' ' ' ' ' ' ' ' ' ' ' ' ' ' ' ' ' ",
">.>.>.>.>.>.>.>.>.>.>.>.>.>.>.>.>.>.>.>.>.>.>.>.>.>.",
",.,.,.,.,.,.,.,.,.,.,.,.,.,.,.,.,.,.,.,.,.,.,.,.,.,.",
"'.'.'.'.'.'.'.'.'.'.'.'.'.'.'.'.'.'.'.'.'.'.'.'.'.'.",
"'.'.'.'.'.'.'.'.'.'.'.'.'.'.'.'.'.'.'.'.'.'.'.'.'.'.",
"'.'.'.'.'.'.'.'.'.'.'.'.'.'.'.'.'.'.'.'.'.'.'.'.'.'.",
").).).).).).).).).).).).).).).).).).).).).).).).).).",
"!.!.!.!.~.~.~.~.~.~.~.~.~.~.~.~.~.~.~.~.{.{.{.{.{.{.",
"].].].].,.,.,.,.,.,.,.,.^.^.^.^.^.^.^.^.,.,.,.,.,.,."};
