/* XPM */
static char * left_active_xpm[] = {
"15 800 19 1",
" 	c #232325",
".	c #59595B",
"+	c #313133",
"@	c #212121",
"#	c #222222",
"$	c #2D2D2F",
"%	c #181818",
"&	c #141414",
"*	c #555555",
"=	c #252525",
"-	c #1C1C1C",
";	c #052738",
">	c #052A3C",
",	c #1599DA",
"'	c #0D628C",
")	c #0B577C",
"!	c #0C5C83",
"~	c #0C587D",
"{	c #0C597F",
" .+ @#@ $%&@*=-",
" .+ @#@ $%&@*=-",
" .+ @#@ $%&@*=-",
" .+ @#@ $%&@*=-",
" .+ @#@ $%&@*=-",
" .+ @#@ $%&@*=-",
" .+ @#@ $%&@*=-",
" .+ @#@ $%&@*=-",
" .+ @#@ $%&@*=-",
" .+ @#@ $%&@*=-",
" .+ @#@ $%&@*=-",
" .+ @#@ $%&@*=-",
" .+ @#@ $%&@*=-",
" .+ @#@ $%&@*=-",
" .+ @#@ $%&@*=-",
" .+ @#@ $%&@*=-",
" .+ @#@ $%&@*=-",
" .+ @#@ $%&@*=-",
" .+ @#@ $%&@*=-",
" .+ @#@ $%&@*=-",
" .+ @#@ $%&@*=-",
" .+ @#@ $%&@*=-",
" .+ @#@ $%&@*=-",
" .+ @#@ $%&@*=-",
" .+ @#@ $%&@*=-",
" .+ @#@ $%&@*=-",
" .+ @#@ $%&@*=-",
" .+ @#@ $%&@*=-",
" .+ @#@ $%&@*=-",
" .+ @#@ $%&@*=-",
" .+ @#@ $%&@*=-",
" .+ @#@ $%&@*=-",
" .+ @#@ $%&@*=-",
" .+ @#@ $%&@*=-",
" .+ @#@ $%&@*=-",
" .+ @#@ $%&@*=-",
" .+ @#@ $%&@*=-",
" .+ @#@ $%&@*=-",
" .+ @#@ $%&@*=-",
" .+ @#@ $%&@*=-",
" .+ @#@ $%&@*=-",
" .+ @#@ $%&@*=-",
" .+ @#@ $%&@*=-",
" .+ @#@ $%&@*=-",
" .+ @#@ $%&@*=-",
" .+ @#@ $%&@*=-",
" .+ @#@ $%&@*=-",
" .+ @#@ $%&@*=-",
" .+ @#@ $%&@*=-",
" .+ @#@ $%&@*=-",
" .+ @#@ $%&@*=-",
" .+ @#@ $%&@*=-",
" .+ @#@ $%&@*=-",
" .+ @#@ $%&@*=-",
" .+ @#@ $%&@*=-",
" .+ @#@ $%&@*=-",
" .+ @#@ $%&@*=-",
" .+ @#@ $%&@*=-",
" .+ @#@ $%&@*=-",
" .+ @#@ $%&@*=-",
" .+ @#@ $%&@*=-",
" .+ @#@ $%&@*=-",
" .+ @#@ $%&@*=-",
" .+ @#@ $%&@*=-",
" .+ @#@ $%&@*=-",
" .+ @#@ $%&@*=-",
" .+ @#@ $%&@*=-",
" .+ @#@ $%&@*=-",
" .+ @#@ $%&@*=-",
" .+ @#@ $%&@*=-",
" .+ @#@ $%&@*=-",
" .+ @#@ $%&@*=-",
" .+ @#@ $%&@*=-",
" .+ @#@ $%&@*=-",
" .+ @#@ $%&@*=-",
" .+ @#@ $%&@*=-",
" .+ @#@ $%&@*=-",
" .+ @#@ $%&@*=-",
" .+ @#@ $%&@*=-",
" .+ @#@ $%&@*=-",
" .+ @#@ $%&@*=-",
" .+ @#@ $%&@*=-",
" .+ @#@ $%&@*=-",
" .+ @#@ $%&@*=-",
" .+ @#@ $%&@*=-",
" .+ @#@ $%&@*=-",
" .+ @#@ $%&@*=-",
" .+ @#@ $%&@*=-",
" .+ @#@ $%&@*=-",
" .+ @#@ $%&@*=-",
" .+ @#@ $%&@*=-",
" .+ @#@ $%&@*=-",
" .+ @#@ $%&@*=-",
" .+ @#@ $%&@*=-",
" .+ @#@ $%&@*=-",
" .+ @#@ $%&@*=-",
" .+ @#@ $%&@*=-",
" .+ @#@ $%&@*=-",
" .+ @#@ $%&@*=-",
" .+ @#@ $%&@*=-",
" .+ @#@ $%&@*=-",
" .+ @#@ $%&@*=-",
" .+ @#@ $%&@*=-",
" .+ @#@ $%&@*=-",
" .+ @#@ $%&@*=-",
" .+ @#@ $%&@*=-",
" .+ @#@ $%&@*=-",
" .+ @#@ $%&@*=-",
" .+ @#@ $%&@*=-",
" .+ @#@ $%&@*=-",
" .+ @#@ $%&@*=-",
" .+ @#@ $%&@*=-",
" .+ @#@ $%&@*=-",
" .+ @#@ $%&@*=-",
" .+ @#@ $%&@*=-",
" .+ @#@ $%&@*=-",
" .+ @#@ $%&@*=-",
" .+ @#@ $%&@*=-",
" .+ @#@ $%&@*=-",
" .+ @#@ $%&@*=-",
" .+ @#@ $%&@*=-",
" .+ @#@ $%&@*=-",
" .+ @#@ $%&@*=-",
" .+ @#@ $%&@*=-",
" .+ @#@ $%&@*=-",
" .+ @#@ $%&@*=-",
" .+ @#@ $%&@*=-",
" .+ @#@ $%&@*=-",
" .+ @#@ $%&@*=-",
" .+ @#@ $%&@*=-",
" .+ @#@ $%&@*=-",
" .+ @#@ $%&@*=-",
" .+ @#@ $%&@*=-",
" .+ @#@ $%&@*=-",
" .+ @#@ $%&@*=-",
" .+ @#@ $%&@*=-",
" .+ @#@ $%&@*=-",
" .+ @#@ $%&@*=-",
" .+ @#@ $%&@*=-",
" .+ @#@ $%&@*=-",
" .+ @#@ $%&@*=-",
" .+ @#@ $%&@*=-",
" .+ @#@ $%&@*=-",
" .+ @#@ $%&@*=-",
" .+ @#@ $%&@*=-",
" .+ @#@ $%&@*=-",
" .+ @#@ $%&@*=-",
" .+ @#@ $%&@*=-",
" .+ @#@ $%&@*=-",
" .+ @#@ $%&@*=-",
" .+ @#@ $%&@*=-",
" .+ @#@ $%&@*=-",
" .+ @#@ $%&@*=-",
" .+ @#@ $%&@*=-",
" .+ @#@ $%&@*=-",
" .+ @#@ $%&@*=-",
" .+ @#@ $%&@*=-",
" .+ @#@ $%&@*=-",
" .+ @#@ $%&@*=-",
" .+ @#@ $%&@*=-",
" .+ @#@ $%&@*=-",
" .+ @#@ $%&@*=-",
" .+ @#@ $%&@*=-",
" .+ @#@ $%&@*=-",
" .+ @#@ $%&@*=-",
" .+ @#@ $%&@*=-",
" .+ @#@ $%&@*=-",
" .+ @#@ $%&@*=-",
" .+ @#@ $%&@*=-",
" .+ @#@ $%&@*=-",
" .+ @#@ $%&@*=-",
" .+ @#@ $%&@*=-",
" .+ @#@ $%&@*=-",
" .+ @#@ $%&@*=-",
" .+ @#@ $%&@*=-",
" .+ @#@ $%&@*=-",
" .+ @#@ $%&@*=-",
" .+ @#@ $%&@*=-",
" .+ @#@ $%&@*=-",
" .+ @#@ $%&@*=-",
" .+ @#@ $%&@*=-",
" .+ @#@ $%&@*=-",
" .+ @#@ $%&@*=-",
" .+ @#@ $%&@*=-",
" .+ @#@ $%&@*=-",
" .+ @#@ $%&@*=-",
" .+ @#@ $%&@*=-",
" .+ @#@ $%&@*=-",
" .+ @#@ $%&@*=-",
" .+ @#@ $%&@*=-",
" .+ @#@ $%&@*=-",
" .+ @#@ $%&@*=-",
" .+ @#@ $%&@*=-",
" .+ @#@ $%&@*=-",
" .+ @#@ $%&@*=-",
" .+ @#@ $%&@*=-",
" .+ @#@ $%&@*=-",
" .+ @#@ $%&@*=-",
" .+ @#@ $%&@*=-",
" .+ @#@ $%&@*=-",
" .+ @#@ $%&@*=-",
" .+ @#@ $%&@*=-",
" .+ @#@ $%&@*=-",
" .+ @#@ $%&@*=-",
" .+ @#@ $%&@*=-",
" .+ @#@ $%&@*=-",
" .+ @#@ $%&@*=-",
" .+ @#@ $%&@*=-",
" .+ @#@ $%&@*=-",
" .+ @#@ $%&@*=-",
" .+ @#@ $%&@*=-",
" .+ @#@ $%&@*=-",
" .+ @#@ $%&@*=-",
" .+ @#@ $%&@*=-",
" .+ @#@ $%&@*=-",
" .+ @#@ $%&@*=-",
" .+ @#@ $%&@*=-",
" .+ @#@ $%&@*=-",
" .+ @#@ $%&@*=-",
" .+ @#@ $%&@*=-",
" .+ @#@ $%&@*=-",
" .+ @#@ $%&@*=-",
" .+ @#@ $%&@*=-",
" .+ @#@ $%&@*=-",
" .+ @#@ $%&@*=-",
" .+ @#@ $%&@*=-",
" .+ @#@ $%&@*=-",
" .+ @#@ $%&@*=-",
" .+ @#@ $%&@*=-",
" .+ @#@ $%&@*=-",
" .+ @#@ $%&@*=-",
" .+ @#@ $%&@*=-",
" .+ @#@ $%&@*=-",
" .+ @#@ $%&@*=-",
" .+ @#@ $%&@*=-",
" .+ @#@ $%&@*=-",
" .+ @#@ $%&@*=-",
" .+ @#@ $%&@*=-",
" .+ @#@ $%&@*=-",
" .+ @#@ $%&@*=-",
" .+ @#@ $%&@*=-",
" .+ @#@ $%&@*=-",
" .+ @#@ $%&@*=-",
" .+ @#@ $%&@*=-",
" .+ @#@ $%&@*=-",
" .+ @#@ $%&@*=-",
" .+ @#@ $%&@*=-",
" .+ @#@ $%&@*=-",
" .+ @#@ $%&@*=-",
" .+ @#@ $%&@*=-",
" .+ @#@ $%&@*=-",
" .+ @#@ $%&@*=-",
" .+ @#@ $%&@*=-",
" .+ @#@ $%&@*=-",
" .+ @#@ $%&@*=-",
" .+ @#@ $%&@*=-",
" .+ @#@ $%&@*=-",
" .+ @#@ $%&@*=-",
" .+ @#@ $%&@*=-",
" .+ @#@ $%&@*=-",
" .+ @#@ $%&@*=-",
" .+ @#@ $%&@*=-",
" .+ @#@ $%&@*=-",
" .+ @#@ $%&@*=-",
" .+ @#@ $%&@*=-",
" .+ @#@ $%&@*=-",
" .+ @#@ $%&@*=-",
" .+ @#@ $%&@*=-",
" .+ @#@ $%&@*=-",
" .+ @#@ $%&@*=-",
" .+ @#@ $%&@*=-",
" .+ @#@ $%&@*=-",
" .+ @#@ $%&@*=-",
" .+ @#@ $%&@*=-",
" .+ @#@ $%&@*=-",
" .+ @#@ $%&@*=-",
" .+ @#@ $%&@*=-",
" .+ @#@ $%&@*=-",
" .+ @#@ $%&@*=-",
" .+ @#@ $%&@*=-",
" .+ @#@ $%&@*=-",
" .+ @#@ $%&@*=-",
" .+ @#@ $%&@*=-",
" .+ @#@ $%&@*=-",
" .+ @#@ $%&@*=-",
" .+ @#@ $%&@*=-",
" .+ @#@ $%&@*=-",
" .+ @#@ $%&@*=-",
" .+ @#@ $%&@*=-",
" .+ @#@ $%&@*=-",
" .+ @#@ $%&@*=-",
" .+ @#@ $%&@*=-",
" .+ @#@ $%&@*=-",
" .+ @#@ $%&@*=-",
" .+ @#@ $%&@*=-",
" .+ @#@ $%&@*=-",
" .+ @#@ $%&@*=-",
" .+ @#@ $%&@*=-",
" .+ @#@ $%&@*=-",
" .+ @#@ $%&@*=-",
" .+ @#@ $%&@*=-",
" .+ @#@ $%&@*=-",
" .+ @#@ $%&@*=-",
" .+ @#@ $%&@*=-",
" .+ @#@ $%&@*=-",
" .+ @#@ $%&@*=-",
" .+ @#@ $%&@*=-",
" .+ @#@ $%&@*=-",
" .+ @#@ $%&@*=-",
" .+ @#@ $%&@*=-",
" .+ @#@ $%&@*=-",
" .+ @#@ $%&@*=-",
" .+ @#@ $%&@*=-",
" .+ @#@ $%&@*=-",
" .+ @#@ $%&@*=-",
" .+ @#@ $%&@*=-",
" .+ @#@ $%&@*=-",
" .+ @#@ $%&@*=-",
" .+ @#@ $%&@*=-",
" .+ @#@ $%&@*=-",
" .+ @#@ $%&@*=-",
" .+ @#@ $%&@*=-",
" .+ @#@ $%&@*=-",
" .+ @#@ $%&@*=-",
" .+ @#@ $%&@*=-",
" .+ @#@ $%&@*=-",
" .+ @#@ $%&@*=-",
" .+ @#@ $%&@*=-",
" .+ @#@ $%&@*=-",
" .+ @#@ $%&@*=-",
" .+ @#@ $%&@*=-",
" .+ @#@ $%&@*=-",
" .+ @#@ $%&@*=-",
" .+ @#@ $%&@*=-",
" .+ @#@ $%&@*=-",
" .+ @#@ $%&@*=-",
" .+ @#@ $%&@*=-",
" .+ @#@ $%&@*=-",
" .+ @#@ $%&@*=-",
" .+ @#@ $%&@*=-",
" .+ @#@ $%&@*=-",
" .+ @#@ $%&@*=-",
" .+ @#@ $%&@*=-",
" .+ @#@ $%&@*=-",
" .+ @#@ $%&@*=-",
" .+ @#@ $%&@*=-",
" .+ @#@ $%&@*=-",
" .+ @#@ $%&@*=-",
" .+ @#@ $%&@*=-",
" .+ @#@ $%&@*=-",
" .+ @#@ $%&@*=-",
" .+ @#@ $%&@*=-",
" .+ @#@ $%&@*=-",
" .+ @#@ $%&@*=-",
" .+ @#@ $%&@*=-",
" .+ @#@ $%&@*=-",
" .+ @#@ $%&@*=-",
" .+ @#@ $%&@*=-",
" .+ @#@ $%&@*=-",
" .+ @#@ $%&@*=-",
" .+ @#@ $%&@*=-",
" .+ @#@ $%&@*=-",
" .+ @#@ $%&@*=-",
" .+ @#@ $%&@*=-",
" .+ @#@ $%&@*=-",
" .+ @#@ $%&@*=-",
" .+ @#@ $%&@*=-",
" .+ @#@ $%&@*=-",
" .+ @#@ $%&@*=-",
" .+ @#@ $%&@*=-",
" .+ @#@ $%&@*=-",
" .+ @#@ $%&@*=-",
" .+ @#@ $%&@*=-",
" .+ @#@ $%&@*=-",
" .+ @#@ $%&@*=-",
" .+ @#@ $%&@*=-",
" .+ @#@ $%&@*=-",
" .+ @#@ $%&@*=-",
" .+ @#@ $%&@*=-",
" .+ @#@ $%&@*=-",
" .+ @#@ $%&@*=-",
" .+ @#@ $%&@*=-",
" .+ @#@ $%&@*=-",
" .+ @#@ $%&@*=-",
" .+ @#@ $%&@*=-",
" .+ @#@ $%&@*=-",
" .+ @#@ $%&@*=-",
" .+ @#@ $%&@*=-",
" .+ @#@ $%&@*=-",
" .+ @#@ $%&@*=-",
" .+ @#@ $%&@*=-",
" .+ @#@ $%&@*=-",
" .+ @#@ $%&@*=-",
" .+ @#@ $%&@*=-",
" .+ @#@ $%&@*=-",
" .+ @#@ $%&@*=-",
" .+ @#@ $%&@*=-",
" .+ @#@ $%&@*=-",
" .+ @#@ $%&@*=-",
" .+ @#@ $%&@*=-",
" .+ @#@ $%&@*=-",
" .+ @#@ $%&@*=-",
" .+ @#@ $%&@*=-",
" .+ @#@ $%&@*=-",
" .+ @#@ $%&@*=-",
" .+ @#@ $%&@*=-",
" .+ @#@ $%&@*=-",
" .+ @#@ $%&@*=-",
" .+ @#@ $%&@*=-",
" .+ @#@ $%&@*=-",
" .+ @#@ $%&@*=-",
" .+ @#@ $%&@*=-",
" .+ @#@ $%&@*=-",
" .+ @#@ $%&@*=-",
" .+ @#@ $%&@*=-",
" .+ @#@ $%&@*=-",
" .+ @#@ $%&@*=-",
" .+ @#@ $%&@*=-",
" .+ @#@ $%&@*=-",
" .+ @#@ $%&@*=-",
" .+ @#@ $%&@*=-",
" .+ @#@ $%&@*=-",
" .+ @#@ $%&@*=-",
" .+ @#@ $%&@*=-",
" .+ @#@ $%&@*=-",
" .+ @#@ $%&@*=-",
" .+ @#@ $%&@*=-",
" .+ @#@ $%&@*=-",
" .+ @#@ $%&@*=-",
" .+ @#@ $%&@*=-",
" .+ @#@ $%&@*=-",
" .+ @#@ $%&@*=-",
" .+ @#@ $%&@*=-",
" .+ @#@ $%&@*=-",
" .+ @#@ $%&@*=-",
" .+ @#@ $%&@*=-",
" .+ @#@ $%&@*=-",
" .+ @#@ $%&@*=-",
" .+ @#@ $%&@*=-",
" .+ @#@ $%&@*=-",
" .+ @#@ $%&@*=-",
" .+ @#@ $%&@*=-",
" .+ @#@ $%&@*=-",
" .+ @#@ $%&@*=-",
" .+ @#@ $%&@*=-",
" .+ @#@ $%&@*=-",
" .+ @#@ $%&@*=-",
" .+ @#@ $%&@*=-",
" .+ @#@ $%&@*=-",
" .+ @#@ $%&@*=-",
" .+ @#@ $%&@*=-",
" .+ @#@ $%&@*=-",
" .+ @#@ $%&@*=-",
" .+ @#@ $%&@*=-",
" .+ @#@ $%&@*=-",
" .+ @#@ $%&@*=-",
" .+ @#@ $%&@*=-",
" .+ @#@ $%&@*=-",
" .+ @#@ $%&@*=-",
" .+ @#@ $%&@*=-",
" .+ @#@ $%&@*=-",
" .+ @#@ $%&@*=-",
" .+ @#@ $%&@*=-",
" .+ @#@ $%&@*=-",
" .+ @#@ $%&@*=-",
" .+ @#@ $%&@*=-",
" .+ @#@ $%&@*=-",
" .+ @#@ $%&@*=-",
" .+ @#@ $%&@*=-",
" .+ @#@ $%&@*=-",
" .+ @#@ $%&@*=-",
" .+ @#@ $%&@*=-",
" .+ @#@ $%&@*=-",
" .+ @#@ $%&@*=-",
" .+ @#@ $%&@*=-",
" .+ @#@ $%&@*=-",
" .+ @#@ $%&@*=-",
" .+ @#@ $%&@*=-",
" .+ @#@ $%&@*=-",
" .+ @#@ $%&@*=-",
" .+ @#@ $%&@*=-",
" .+ @#@ $%&@*=-",
" .+ @#@ $%&@*=-",
" .+ @#@ $%&@*=-",
" .+ @#@ $%&@*=-",
" .+ @#@ $%&@*=-",
" .+ @#@ $%&@*=-",
" .+ @#@ $%&@*=-",
" .+ @#@ $%&@*=-",
" .+ @#@ $%&@*=-",
" .+ @#@ $%&@*=-",
" .+ @#@ $%&@*=-",
" .+ @#@ $%&@*=-",
" .+ @#@ $%&@*=-",
" .+ @#@ $%&@*=-",
" .+ @#@ $%&@*=-",
" .+ @#@ $%&@*=-",
" .+ @#@ $%&@*=-",
" .+ @#@ $%&@*=-",
" .+ @#@ $%&@*=-",
" .+ @#@ $%&@*=-",
" .+ @#@ $%&@*=-",
" .+ @#@ $%&@*=-",
" .+ @#@ $%&@*=-",
" .+ @#@ $%&@*=-",
" .+ @#@ $%&@*=-",
" .+ @#@ $%&@*=-",
" .+ @#@ $%&@*=-",
" .+ @#@ $%&@*=-",
" .+ @#@ $%&@*=-",
" .+ @#@ $%&@*=-",
" .+ @#@ $%&@*=-",
" .+ @#@ $%&@*=-",
" .+ @#@ $%&@*=-",
" .+ @#@ $%&@*=-",
" .+ @#@ $%&@*=-",
" .+ @#@ $%&@*=-",
" .+ @#@ $%&@*=-",
" .+ @#@ $%&@*=-",
" .+ @#@ $%&@*=-",
" .+ @#@ $%&@*=-",
" .+ @#@ $%&@*=-",
" .+ @#@ $%&@*=-",
" .+ @#@ $%&@*=-",
" .+ @#@ $%&@*=-",
" .+ @#@ $%&@*=-",
" .+ @#@ $%&@*=-",
" .+ @#@ $%&@*=-",
" .+ @#@ $%&@*=-",
" .+ @#@ $%&@*=-",
" .+ @#@ $%&@*=-",
" .+ @#@ $%&@*=-",
" .+ @#@ $%&@*=-",
" .+ @#@ $%&@*=-",
" .+ @#@ $%&@*=-",
" .+ @#@ $%&@*=-",
" .+ @#@ $%&@*=-",
" .+ @#@ $%&@*=-",
" .+ @#@ $%&@*=-",
" .+ @#@ $%&@*=-",
" .+ @#@ $%&@*=-",
" .+ @#@ $%&@*=-",
" .+ @#@ $%&@*=-",
" .+ @#@ $%&@*=-",
" .+ @#@ $%&@*=-",
" .+ @#@ $%&@*=-",
" .+ @#@ $%&@*=-",
" .+ @#@ $%&@*=-",
" .+ @#@ $%&@*=-",
" .+ @#@ $%&@*=-",
" .+ @#@ $%&@*=-",
" .+ @#@ $%&@*=-",
" .+ @#@ $%&@*=-",
" .+ @#@ $%&@*=-",
" .+ @#@ $%&@*=-",
" .+ @#@ $%&@*=-",
" .+ @#@ $%&@*=-",
" .+ @#@ $%&@*=-",
" .+ @#@ $%&@*=-",
" .+ @#@ $%&@*=-",
" .+ @#@ $%&@*=-",
" .+ @#@ $%&@*=-",
" .+ @#@ $%&@*=-",
" .+ @#@ $%&@*=-",
" .+ @#@ $%&@*=-",
" .+ @#@ $%&@*=-",
" .+ @#@ $%&@*=-",
" .+ @#@ $%&@*=-",
" .+ @#@ $%&@*=-",
" .+ @#@ $%&@*=-",
" .+ @#@ $%&@*=-",
" .+ @#@ $%&@*=-",
" .+ @#@ $%&@*=-",
" .+ @#@ $%&@*=-",
" .+ @#@ $%&@*=-",
" .+ @#@ $%&@*=-",
" .+ @#@ $%&@*=-",
" .+ @#@ $%&@*=-",
" .+ @#@ $%&@*=-",
" .+ @#@ $%&@*=-",
" .+ @#@ $%&@*=-",
" .+ @#@ $%&@*=-",
" .+ @#@ $%&@*=-",
" .+ @#@ $%&@*=-",
" .+ @#@ $%&@*=-",
" .+ @#@ $%&@*=-",
" .+ @#@ $%&@*=-",
" .+ @#@ $%&@*=-",
" .+ @#@ $%&@*=-",
" .+ @#@ $%&@*=-",
" .+ @#@ $%&@*=-",
" .+ @#@ $%&@*=-",
" .+ @#@ $%&@*=-",
" .+ @#@ $%&@*=-",
" .+ @#@ $%&@*=-",
" .+ @#@ $%&@*=-",
" .+ @#@ $%&@*=-",
" .+ @#@ $%&@*=-",
" .+ @#@ $%&@*=-",
" .+ @#@ $%&@*=-",
" .+ @#@ $%&@*=-",
" .+ @#@ $%&@*=-",
" .+ @#@ $%&@*=-",
" .+ @#@ $%&@*=-",
" .+ @#@ $%&@*=-",
" .+ @#@ $%&@*=-",
" .+ @#@ $%&@*=-",
" .+ @#@ $%&@*=-",
" .+ @#@ $%&@*=-",
" .+ @#@ $%&@*=-",
" .+ @#@ $%&@*=-",
" .+ @#@ $%&@*=-",
" .+ @#@ $%&@*=-",
" .+ @#@ $%&@*=-",
" .+ @#@ $%&@*=-",
" .+ @#@ $%&@*=-",
" .+ @#@ $%&@*=-",
" .+ @#@ $%&@*=-",
" .+ @#@ $%&@*=-",
" .+ @#@ $%&@*=-",
" .+ @#@ $%&@*=-",
" .+ @#@ $%&@*=-",
" .+ @#@ $%&@*=-",
" .+ @#@ $%&@*=-",
" .+ @#@ $%&@*=-",
" .+ @#@ $%&@*=-",
" .+ @#@ $%&@*=-",
" .+ @#@ $%&@*=-",
" .+ @#@ $%&@*=-",
" .+ @#@ $%&@*=-",
" .+ @#@ $%&@*=-",
" .+ @#@ $%&@*=-",
" .+ @#@ $%&@*=-",
" .+ @#@ $%&@*=-",
" .+ @#@ $%&@*=-",
" .+ @#@ $%&@*=-",
" .+ @#@ $%&@*=-",
" .+ @#@ $%&@*=-",
" .+ @#@ $%&@*=-",
" .+ @#@ $%&@*=-",
" .+ @#@ $%&@*=-",
" .+ @#@ $%&@*=-",
" .+ @#@ $%&@*=-",
" .+ @#@ $%&@*=-",
" .+ @#@ $%&@*=-",
" .+ @#@ $%&@*=-",
" .+ @#@ $%&@*=-",
" .+ @#@ $%&@*=-",
" .+ @#@ $%&@*=-",
" .+ @#@ $%&@*=-",
" .+ @#@ $%&@*=-",
" .+ @#@ $%&@*=-",
" .+ @#@ $%&@*=-",
" .+ @#@ $%&@*=-",
" .+ @#@ $%&@*=-",
" .+ @#@ $%&@*=-",
" .+ @#@ $%&@*=-",
" .+ @#@ $%&@*=-",
" .+ @#@ $%&@*=-",
" .+ @#@ $%&@*=-",
" .+ @#@ $%&@*=-",
" .+ @#@ $%&@*=-",
" .+ @#@ $%&@*=-",
" .+ @#@ $%&@*=-",
" .+ @#@ $%&@*=-",
" .+ @#@ $%&@*=-",
" .+ @#@ $%&@*=-",
" .+ @#@ $%&@*=-",
" .+ @#@ $%&@*=-",
" .+ @#@ $%&@*=-",
" .+ @#@ $%&@*=-",
" .+ @#@ $%&@*=-",
" .+ @#@ $%&@*=-",
" .+ @#@ $%&@*=-",
" .+ @#@ $%&@*=-",
" .+ @#@ $%&@*=-",
" .+ @#@ $%&@*=-",
" .+ @#@ $%&@*=-",
" .+ @#@ $%&@*=-",
" .+ @#@ $%&@*=-",
" .+ @#@ $%&@*=-",
" .+ @#@ $%&@*=-",
" .+ @#@ $%&@*=-",
" .+ @#@ $%&@*=-",
" .+ @#@ $%&@*=-",
" .+ @#@ $%&@*=-",
" .+ @#@ $%&@*=-",
" .+ @#@ $%&@*=-",
" .+ @#@ $%&@*=-",
" .+ @#@ $%&@*=-",
" .+ @#@ $%&@*=-",
" .+ @#@ $%&@*=-",
" .+ @#@ $%&@*=-",
" .+ @#@ $%&@*=-",
" .+ @#@ $%&@*=-",
" .+ @#@ $%&@*=-",
";;>>>;;>>%&@*=-",
",')!~){!~%&@*=-",
" .+ @#@ $%&@*=-",
" .+ @#@ $%&@*=-",
" .+ @#@ $%&@*=-",
" .+ @#@ $%&@*=-",
" .+ @#@ $%&@*=-",
" .+ @#@ $%&@*=-",
" .+ @#@ $%&@*=-",
" .+ @#@ $%&@*=-",
" .+ @#@ $%&@*=-",
" .+ @#@ $%&@*=-",
" .+ @#@ $%&@*=-",
" .+ @#@ $%&@*=-",
" .+ @#@ $%&@*=-",
" .+ @#@ $%&@*=-",
" .+ @#@ $%&@*=-",
" .+ @#@ $%&@*=-",
" .+ @#@ $%&@*=-",
" .+ @#@ $%&@*=-",
" .+ @#@ $%&@*=-",
" .+ @#@ $%&@*=-",
" .+ @#@ $%&@*=-",
" .+ @#@ $%&@*=-",
" .+ @#@ $%&@*=-",
" .+ @#@ $%&@*=-",
" .+ @#@ $%&@*=-",
" .+ @#@ $%&@*=-",
" .+ @#@ $%&@*=-",
" .+ @#@ $%&@*=-",
" .+ @#@ $%&@*=-",
" .+ @#@ $%&@*=-",
" .+ @#@ $%&@*=-",
" .+ @#@ $%&@*=-",
" .+ @#@ $%&@*=-",
" .+ @#@ $%&@*=-",
" .+ @#@ $%&@*=-",
" .+ @#@ $%&@*=-",
" .+ @#@ $%&@*=-",
" .+ @#@ $%&@*=-",
" .+ @#@ $%&@*=-",
" .+ @#@ $%&@*=-",
" .+ @#@ $%&@*=-",
" .+ @#@ $%&@*=-",
" .+ @#@ $%&@*=-",
" .+ @#@ $%&@*=-",
" .+ @#@ $%&@*=-",
" .+ @#@ $%&@*=-",
" .+ @#@ $%&@*=-",
" .+ @#@ $%&@*=-",
" .+ @#@ $%&@*=-",
" .+ @#@ $%&@*=-",
" .+ @#@ $%&@*=-",
" .+ @#@ $%&@*=-",
" .+ @#@ $%&@*=-",
" .+ @#@ $%&@*=-",
" .+ @#@ $%&@*=-",
" .+ @#@ $%&@*=-",
" .+ @#@ $%&@*=-",
" .+ @#@ $%&@*=-",
" .+ @#@ $%&@*=-",
" .+ @#@ $%&@*=-",
" .+ @#@ $%&@*=-",
" .+ @#@ $%&@*=-",
" .+ @#@ $%&@*=-",
" .+ @#@ $%&@*=-",
" .+ @#@ $%&@*=-",
" .+ @#@ $%&@*=-",
" .+ @#@ $%&@*=-",
" .+ @#@ $%&@*=-",
" .+ @#@ $%&@*=-",
" .+ @#@ $%&@*=-",
" .+ @#@ $%&@*=-",
" .+ @#@ $%&@*=-",
" .+ @#@ $%&@*=-",
" .+ @#@ $%&@*=-",
" .+ @#@ $%&@*=-",
" .+ @#@ $%&@*=-",
" .+ @#@ $%&@*=-",
" .+ @#@ $%&@*=-",
" .+ @#@ $%&@*=-",
" .+ @#@ $%&@*=-",
" .+ @#@ $%&@*=-",
" .+ @#@ $%&@*=-",
" .+ @#@ $%&@*=-",
" .+ @#@ $%&@*=-",
" .+ @#@ $%&@*=-",
" .+ @#@ $%&@*=-",
" .+ @#@ $%&@*=-",
" .+ @#@ $%&@*=-",
" .+ @#@ $%&@*=-",
" .+ @#@ $%&@*=-",
" .+ @#@ $%&@*=-",
" .+ @#@ $%&@*=-",
" .+ @#@ $%&@*=-",
" .+ @#@ $%&@*=-",
" .+ @#@ $%&@*=-",
" .+ @#@ $%&@*=-",
" .+ @#@ $%&@*=-",
" .+ @#@ $%&@*=-",
" .+ @#@ $%&@*=-",
" .+ @#@ $%&@*=-",
" .+ @#@ $%&@*=-",
" .+ @#@ $%&@*=-"};
