/* XPM */
static char * left_inactive_xpm[] = {
"15 800 19 1",
" 	c #232325",
".	c #59595B",
"+	c #313133",
"@	c #212121",
"#	c #222222",
"$	c #2D2D2F",
"%	c #181818",
"&	c #141414",
"*	c #555555",
"=	c #252525",
"-	c #1C1C1C",
";	c #090909",
">	c #0A0A0A",
",	c #0B0B0B",
"'	c #363638",
")	c #676769",
"!	c #434343",
"~	c #343434",
"{	c #353535",
" .+ @#@ $%&@*=-",
" .+ @#@ $%&@*=-",
" .+ @#@ $%&@*=-",
" .+ @#@ $%&@*=-",
" .+ @#@ $%&@*=-",
" .+ @#@ $%&@*=-",
" .+ @#@ $%&@*=-",
" .+ @#@ $%&@*=-",
" .+ @#@ $%&@*=-",
" .+ @#@ $%&@*=-",
" .+ @#@ $%&@*=-",
" .+ @#@ $%&@*=-",
" .+ @#@ $%&@*=-",
" .+ @#@ $%&@*=-",
" .+ @#@ $%&@*=-",
" .+ @#@ $%&@*=-",
" .+ @#@ $%&@*=-",
" .+ @#@ $%&@*=-",
" .+ @#@ $%&@*=-",
" .+ @#@ $%&@*=-",
" .+ @#@ $%&@*=-",
" .+ @#@ $%&@*=-",
" .+ @#@ $%&@*=-",
" .+ @#@ $%&@*=-",
" .+ @#@ $%&@*=-",
" .+ @#@ $%&@*=-",
" .+ @#@ $%&@*=-",
" .+ @#@ $%&@*=-",
" .+ @#@ $%&@*=-",
" .+ @#@ $%&@*=-",
" .+ @#@ $%&@*=-",
" .+ @#@ $%&@*=-",
" .+ @#@ $%&@*=-",
" .+ @#@ $%&@*=-",
" .+ @#@ $%&@*=-",
" .+ @#@ $%&@*=-",
" .+ @#@ $%&@*=-",
" .+ @#@ $%&@*=-",
" .+ @#@ $%&@*=-",
" .+ @#@ $%&@*=-",
" .+ @#@ $%&@*=-",
" .+ @#@ $%&@*=-",
" .+ @#@ $%&@*=-",
" .+ @#@ $%&@*=-",
" .+ @#@ $%&@*=-",
" .+ @#@ $%&@*=-",
" .+ @#@ $%&@*=-",
" .+ @#@ $%&@*=-",
" .+ @#@ $%&@*=-",
" .+ @#@ $%&@*=-",
" .+ @#@ $%&@*=-",
" .+ @#@ $%&@*=-",
" .+ @#@ $%&@*=-",
" .+ @#@ $%&@*=-",
" .+ @#@ $%&@*=-",
" .+ @#@ $%&@*=-",
" .+ @#@ $%&@*=-",
" .+ @#@ $%&@*=-",
" .+ @#@ $%&@*=-",
" .+ @#@ $%&@*=-",
" .+ @#@ $%&@*=-",
" .+ @#@ $%&@*=-",
" .+ @#@ $%&@*=-",
" .+ @#@ $%&@*=-",
" .+ @#@ $%&@*=-",
" .+ @#@ $%&@*=-",
" .+ @#@ $%&@*=-",
" .+ @#@ $%&@*=-",
" .+ @#@ $%&@*=-",
" .+ @#@ $%&@*=-",
" .+ @#@ $%&@*=-",
" .+ @#@ $%&@*=-",
" .+ @#@ $%&@*=-",
" .+ @#@ $%&@*=-",
" .+ @#@ $%&@*=-",
" .+ @#@ $%&@*=-",
" .+ @#@ $%&@*=-",
" .+ @#@ $%&@*=-",
" .+ @#@ $%&@*=-",
" .+ @#@ $%&@*=-",
" .+ @#@ $%&@*=-",
" .+ @#@ $%&@*=-",
" .+ @#@ $%&@*=-",
" .+ @#@ $%&@*=-",
" .+ @#@ $%&@*=-",
" .+ @#@ $%&@*=-",
" .+ @#@ $%&@*=-",
" .+ @#@ $%&@*=-",
" .+ @#@ $%&@*=-",
" .+ @#@ $%&@*=-",
" .+ @#@ $%&@*=-",
" .+ @#@ $%&@*=-",
" .+ @#@ $%&@*=-",
" .+ @#@ $%&@*=-",
" .+ @#@ $%&@*=-",
" .+ @#@ $%&@*=-",
" .+ @#@ $%&@*=-",
" .+ @#@ $%&@*=-",
" .+ @#@ $%&@*=-",
" .+ @#@ $%&@*=-",
" .+ @#@ $%&@*=-",
" .+ @#@ $%&@*=-",
" .+ @#@ $%&@*=-",
" .+ @#@ $%&@*=-",
" .+ @#@ $%&@*=-",
" .+ @#@ $%&@*=-",
" .+ @#@ $%&@*=-",
" .+ @#@ $%&@*=-",
" .+ @#@ $%&@*=-",
" .+ @#@ $%&@*=-",
" .+ @#@ $%&@*=-",
" .+ @#@ $%&@*=-",
" .+ @#@ $%&@*=-",
" .+ @#@ $%&@*=-",
" .+ @#@ $%&@*=-",
" .+ @#@ $%&@*=-",
" .+ @#@ $%&@*=-",
" .+ @#@ $%&@*=-",
" .+ @#@ $%&@*=-",
" .+ @#@ $%&@*=-",
" .+ @#@ $%&@*=-",
" .+ @#@ $%&@*=-",
" .+ @#@ $%&@*=-",
" .+ @#@ $%&@*=-",
" .+ @#@ $%&@*=-",
" .+ @#@ $%&@*=-",
" .+ @#@ $%&@*=-",
" .+ @#@ $%&@*=-",
" .+ @#@ $%&@*=-",
" .+ @#@ $%&@*=-",
" .+ @#@ $%&@*=-",
" .+ @#@ $%&@*=-",
" .+ @#@ $%&@*=-",
" .+ @#@ $%&@*=-",
" .+ @#@ $%&@*=-",
" .+ @#@ $%&@*=-",
" .+ @#@ $%&@*=-",
" .+ @#@ $%&@*=-",
" .+ @#@ $%&@*=-",
" .+ @#@ $%&@*=-",
" .+ @#@ $%&@*=-",
" .+ @#@ $%&@*=-",
" .+ @#@ $%&@*=-",
" .+ @#@ $%&@*=-",
" .+ @#@ $%&@*=-",
" .+ @#@ $%&@*=-",
" .+ @#@ $%&@*=-",
" .+ @#@ $%&@*=-",
" .+ @#@ $%&@*=-",
" .+ @#@ $%&@*=-",
" .+ @#@ $%&@*=-",
" .+ @#@ $%&@*=-",
" .+ @#@ $%&@*=-",
" .+ @#@ $%&@*=-",
" .+ @#@ $%&@*=-",
" .+ @#@ $%&@*=-",
" .+ @#@ $%&@*=-",
" .+ @#@ $%&@*=-",
" .+ @#@ $%&@*=-",
" .+ @#@ $%&@*=-",
" .+ @#@ $%&@*=-",
" .+ @#@ $%&@*=-",
" .+ @#@ $%&@*=-",
" .+ @#@ $%&@*=-",
" .+ @#@ $%&@*=-",
" .+ @#@ $%&@*=-",
" .+ @#@ $%&@*=-",
" .+ @#@ $%&@*=-",
" .+ @#@ $%&@*=-",
" .+ @#@ $%&@*=-",
" .+ @#@ $%&@*=-",
" .+ @#@ $%&@*=-",
" .+ @#@ $%&@*=-",
" .+ @#@ $%&@*=-",
" .+ @#@ $%&@*=-",
" .+ @#@ $%&@*=-",
" .+ @#@ $%&@*=-",
" .+ @#@ $%&@*=-",
" .+ @#@ $%&@*=-",
" .+ @#@ $%&@*=-",
" .+ @#@ $%&@*=-",
" .+ @#@ $%&@*=-",
" .+ @#@ $%&@*=-",
" .+ @#@ $%&@*=-",
" .+ @#@ $%&@*=-",
" .+ @#@ $%&@*=-",
" .+ @#@ $%&@*=-",
" .+ @#@ $%&@*=-",
" .+ @#@ $%&@*=-",
" .+ @#@ $%&@*=-",
" .+ @#@ $%&@*=-",
" .+ @#@ $%&@*=-",
" .+ @#@ $%&@*=-",
" .+ @#@ $%&@*=-",
" .+ @#@ $%&@*=-",
" .+ @#@ $%&@*=-",
" .+ @#@ $%&@*=-",
" .+ @#@ $%&@*=-",
" .+ @#@ $%&@*=-",
" .+ @#@ $%&@*=-",
" .+ @#@ $%&@*=-",
" .+ @#@ $%&@*=-",
" .+ @#@ $%&@*=-",
" .+ @#@ $%&@*=-",
" .+ @#@ $%&@*=-",
" .+ @#@ $%&@*=-",
" .+ @#@ $%&@*=-",
" .+ @#@ $%&@*=-",
" .+ @#@ $%&@*=-",
" .+ @#@ $%&@*=-",
" .+ @#@ $%&@*=-",
" .+ @#@ $%&@*=-",
" .+ @#@ $%&@*=-",
" .+ @#@ $%&@*=-",
" .+ @#@ $%&@*=-",
" .+ @#@ $%&@*=-",
" .+ @#@ $%&@*=-",
" .+ @#@ $%&@*=-",
" .+ @#@ $%&@*=-",
" .+ @#@ $%&@*=-",
" .+ @#@ $%&@*=-",
" .+ @#@ $%&@*=-",
" .+ @#@ $%&@*=-",
" .+ @#@ $%&@*=-",
" .+ @#@ $%&@*=-",
" .+ @#@ $%&@*=-",
" .+ @#@ $%&@*=-",
" .+ @#@ $%&@*=-",
" .+ @#@ $%&@*=-",
" .+ @#@ $%&@*=-",
" .+ @#@ $%&@*=-",
" .+ @#@ $%&@*=-",
" .+ @#@ $%&@*=-",
" .+ @#@ $%&@*=-",
" .+ @#@ $%&@*=-",
" .+ @#@ $%&@*=-",
" .+ @#@ $%&@*=-",
" .+ @#@ $%&@*=-",
" .+ @#@ $%&@*=-",
" .+ @#@ $%&@*=-",
" .+ @#@ $%&@*=-",
" .+ @#@ $%&@*=-",
" .+ @#@ $%&@*=-",
" .+ @#@ $%&@*=-",
" .+ @#@ $%&@*=-",
" .+ @#@ $%&@*=-",
" .+ @#@ $%&@*=-",
" .+ @#@ $%&@*=-",
" .+ @#@ $%&@*=-",
" .+ @#@ $%&@*=-",
" .+ @#@ $%&@*=-",
" .+ @#@ $%&@*=-",
" .+ @#@ $%&@*=-",
" .+ @#@ $%&@*=-",
" .+ @#@ $%&@*=-",
" .+ @#@ $%&@*=-",
" .+ @#@ $%&@*=-",
" .+ @#@ $%&@*=-",
" .+ @#@ $%&@*=-",
" .+ @#@ $%&@*=-",
" .+ @#@ $%&@*=-",
" .+ @#@ $%&@*=-",
" .+ @#@ $%&@*=-",
" .+ @#@ $%&@*=-",
" .+ @#@ $%&@*=-",
" .+ @#@ $%&@*=-",
" .+ @#@ $%&@*=-",
" .+ @#@ $%&@*=-",
" .+ @#@ $%&@*=-",
" .+ @#@ $%&@*=-",
" .+ @#@ $%&@*=-",
" .+ @#@ $%&@*=-",
" .+ @#@ $%&@*=-",
" .+ @#@ $%&@*=-",
" .+ @#@ $%&@*=-",
" .+ @#@ $%&@*=-",
" .+ @#@ $%&@*=-",
" .+ @#@ $%&@*=-",
" .+ @#@ $%&@*=-",
" .+ @#@ $%&@*=-",
" .+ @#@ $%&@*=-",
" .+ @#@ $%&@*=-",
" .+ @#@ $%&@*=-",
" .+ @#@ $%&@*=-",
" .+ @#@ $%&@*=-",
" .+ @#@ $%&@*=-",
" .+ @#@ $%&@*=-",
" .+ @#@ $%&@*=-",
" .+ @#@ $%&@*=-",
" .+ @#@ $%&@*=-",
" .+ @#@ $%&@*=-",
" .+ @#@ $%&@*=-",
" .+ @#@ $%&@*=-",
" .+ @#@ $%&@*=-",
" .+ @#@ $%&@*=-",
" .+ @#@ $%&@*=-",
" .+ @#@ $%&@*=-",
" .+ @#@ $%&@*=-",
" .+ @#@ $%&@*=-",
" .+ @#@ $%&@*=-",
" .+ @#@ $%&@*=-",
" .+ @#@ $%&@*=-",
" .+ @#@ $%&@*=-",
" .+ @#@ $%&@*=-",
" .+ @#@ $%&@*=-",
" .+ @#@ $%&@*=-",
" .+ @#@ $%&@*=-",
" .+ @#@ $%&@*=-",
" .+ @#@ $%&@*=-",
" .+ @#@ $%&@*=-",
" .+ @#@ $%&@*=-",
" .+ @#@ $%&@*=-",
" .+ @#@ $%&@*=-",
" .+ @#@ $%&@*=-",
" .+ @#@ $%&@*=-",
" .+ @#@ $%&@*=-",
" .+ @#@ $%&@*=-",
" .+ @#@ $%&@*=-",
" .+ @#@ $%&@*=-",
" .+ @#@ $%&@*=-",
" .+ @#@ $%&@*=-",
" .+ @#@ $%&@*=-",
" .+ @#@ $%&@*=-",
" .+ @#@ $%&@*=-",
" .+ @#@ $%&@*=-",
" .+ @#@ $%&@*=-",
" .+ @#@ $%&@*=-",
" .+ @#@ $%&@*=-",
" .+ @#@ $%&@*=-",
" .+ @#@ $%&@*=-",
" .+ @#@ $%&@*=-",
" .+ @#@ $%&@*=-",
" .+ @#@ $%&@*=-",
" .+ @#@ $%&@*=-",
" .+ @#@ $%&@*=-",
" .+ @#@ $%&@*=-",
" .+ @#@ $%&@*=-",
" .+ @#@ $%&@*=-",
" .+ @#@ $%&@*=-",
" .+ @#@ $%&@*=-",
" .+ @#@ $%&@*=-",
" .+ @#@ $%&@*=-",
" .+ @#@ $%&@*=-",
" .+ @#@ $%&@*=-",
" .+ @#@ $%&@*=-",
" .+ @#@ $%&@*=-",
" .+ @#@ $%&@*=-",
" .+ @#@ $%&@*=-",
" .+ @#@ $%&@*=-",
" .+ @#@ $%&@*=-",
" .+ @#@ $%&@*=-",
" .+ @#@ $%&@*=-",
" .+ @#@ $%&@*=-",
" .+ @#@ $%&@*=-",
" .+ @#@ $%&@*=-",
" .+ @#@ $%&@*=-",
" .+ @#@ $%&@*=-",
" .+ @#@ $%&@*=-",
" .+ @#@ $%&@*=-",
" .+ @#@ $%&@*=-",
" .+ @#@ $%&@*=-",
" .+ @#@ $%&@*=-",
" .+ @#@ $%&@*=-",
" .+ @#@ $%&@*=-",
" .+ @#@ $%&@*=-",
" .+ @#@ $%&@*=-",
" .+ @#@ $%&@*=-",
" .+ @#@ $%&@*=-",
" .+ @#@ $%&@*=-",
" .+ @#@ $%&@*=-",
" .+ @#@ $%&@*=-",
" .+ @#@ $%&@*=-",
" .+ @#@ $%&@*=-",
" .+ @#@ $%&@*=-",
" .+ @#@ $%&@*=-",
" .+ @#@ $%&@*=-",
" .+ @#@ $%&@*=-",
" .+ @#@ $%&@*=-",
" .+ @#@ $%&@*=-",
" .+ @#@ $%&@*=-",
" .+ @#@ $%&@*=-",
" .+ @#@ $%&@*=-",
" .+ @#@ $%&@*=-",
" .+ @#@ $%&@*=-",
" .+ @#@ $%&@*=-",
" .+ @#@ $%&@*=-",
" .+ @#@ $%&@*=-",
" .+ @#@ $%&@*=-",
" .+ @#@ $%&@*=-",
" .+ @#@ $%&@*=-",
" .+ @#@ $%&@*=-",
" .+ @#@ $%&@*=-",
" .+ @#@ $%&@*=-",
" .+ @#@ $%&@*=-",
" .+ @#@ $%&@*=-",
" .+ @#@ $%&@*=-",
" .+ @#@ $%&@*=-",
" .+ @#@ $%&@*=-",
" .+ @#@ $%&@*=-",
" .+ @#@ $%&@*=-",
" .+ @#@ $%&@*=-",
" .+ @#@ $%&@*=-",
" .+ @#@ $%&@*=-",
" .+ @#@ $%&@*=-",
" .+ @#@ $%&@*=-",
" .+ @#@ $%&@*=-",
" .+ @#@ $%&@*=-",
" .+ @#@ $%&@*=-",
" .+ @#@ $%&@*=-",
" .+ @#@ $%&@*=-",
" .+ @#@ $%&@*=-",
" .+ @#@ $%&@*=-",
" .+ @#@ $%&@*=-",
" .+ @#@ $%&@*=-",
" .+ @#@ $%&@*=-",
" .+ @#@ $%&@*=-",
" .+ @#@ $%&@*=-",
" .+ @#@ $%&@*=-",
" .+ @#@ $%&@*=-",
" .+ @#@ $%&@*=-",
" .+ @#@ $%&@*=-",
" .+ @#@ $%&@*=-",
" .+ @#@ $%&@*=-",
" .+ @#@ $%&@*=-",
" .+ @#@ $%&@*=-",
" .+ @#@ $%&@*=-",
" .+ @#@ $%&@*=-",
" .+ @#@ $%&@*=-",
" .+ @#@ $%&@*=-",
" .+ @#@ $%&@*=-",
" .+ @#@ $%&@*=-",
" .+ @#@ $%&@*=-",
" .+ @#@ $%&@*=-",
" .+ @#@ $%&@*=-",
" .+ @#@ $%&@*=-",
" .+ @#@ $%&@*=-",
" .+ @#@ $%&@*=-",
" .+ @#@ $%&@*=-",
" .+ @#@ $%&@*=-",
" .+ @#@ $%&@*=-",
" .+ @#@ $%&@*=-",
" .+ @#@ $%&@*=-",
" .+ @#@ $%&@*=-",
" .+ @#@ $%&@*=-",
" .+ @#@ $%&@*=-",
" .+ @#@ $%&@*=-",
" .+ @#@ $%&@*=-",
" .+ @#@ $%&@*=-",
" .+ @#@ $%&@*=-",
" .+ @#@ $%&@*=-",
" .+ @#@ $%&@*=-",
" .+ @#@ $%&@*=-",
" .+ @#@ $%&@*=-",
" .+ @#@ $%&@*=-",
" .+ @#@ $%&@*=-",
" .+ @#@ $%&@*=-",
" .+ @#@ $%&@*=-",
" .+ @#@ $%&@*=-",
" .+ @#@ $%&@*=-",
" .+ @#@ $%&@*=-",
" .+ @#@ $%&@*=-",
" .+ @#@ $%&@*=-",
" .+ @#@ $%&@*=-",
" .+ @#@ $%&@*=-",
" .+ @#@ $%&@*=-",
" .+ @#@ $%&@*=-",
" .+ @#@ $%&@*=-",
" .+ @#@ $%&@*=-",
" .+ @#@ $%&@*=-",
" .+ @#@ $%&@*=-",
" .+ @#@ $%&@*=-",
" .+ @#@ $%&@*=-",
" .+ @#@ $%&@*=-",
" .+ @#@ $%&@*=-",
" .+ @#@ $%&@*=-",
" .+ @#@ $%&@*=-",
" .+ @#@ $%&@*=-",
" .+ @#@ $%&@*=-",
" .+ @#@ $%&@*=-",
" .+ @#@ $%&@*=-",
" .+ @#@ $%&@*=-",
" .+ @#@ $%&@*=-",
" .+ @#@ $%&@*=-",
" .+ @#@ $%&@*=-",
" .+ @#@ $%&@*=-",
" .+ @#@ $%&@*=-",
" .+ @#@ $%&@*=-",
" .+ @#@ $%&@*=-",
" .+ @#@ $%&@*=-",
" .+ @#@ $%&@*=-",
" .+ @#@ $%&@*=-",
" .+ @#@ $%&@*=-",
" .+ @#@ $%&@*=-",
" .+ @#@ $%&@*=-",
" .+ @#@ $%&@*=-",
" .+ @#@ $%&@*=-",
" .+ @#@ $%&@*=-",
" .+ @#@ $%&@*=-",
" .+ @#@ $%&@*=-",
" .+ @#@ $%&@*=-",
" .+ @#@ $%&@*=-",
" .+ @#@ $%&@*=-",
" .+ @#@ $%&@*=-",
" .+ @#@ $%&@*=-",
" .+ @#@ $%&@*=-",
" .+ @#@ $%&@*=-",
" .+ @#@ $%&@*=-",
" .+ @#@ $%&@*=-",
" .+ @#@ $%&@*=-",
" .+ @#@ $%&@*=-",
" .+ @#@ $%&@*=-",
" .+ @#@ $%&@*=-",
" .+ @#@ $%&@*=-",
" .+ @#@ $%&@*=-",
" .+ @#@ $%&@*=-",
" .+ @#@ $%&@*=-",
" .+ @#@ $%&@*=-",
" .+ @#@ $%&@*=-",
" .+ @#@ $%&@*=-",
" .+ @#@ $%&@*=-",
" .+ @#@ $%&@*=-",
" .+ @#@ $%&@*=-",
" .+ @#@ $%&@*=-",
" .+ @#@ $%&@*=-",
" .+ @#@ $%&@*=-",
" .+ @#@ $%&@*=-",
" .+ @#@ $%&@*=-",
" .+ @#@ $%&@*=-",
" .+ @#@ $%&@*=-",
" .+ @#@ $%&@*=-",
" .+ @#@ $%&@*=-",
" .+ @#@ $%&@*=-",
" .+ @#@ $%&@*=-",
" .+ @#@ $%&@*=-",
" .+ @#@ $%&@*=-",
" .+ @#@ $%&@*=-",
" .+ @#@ $%&@*=-",
" .+ @#@ $%&@*=-",
" .+ @#@ $%&@*=-",
" .+ @#@ $%&@*=-",
" .+ @#@ $%&@*=-",
" .+ @#@ $%&@*=-",
" .+ @#@ $%&@*=-",
" .+ @#@ $%&@*=-",
" .+ @#@ $%&@*=-",
" .+ @#@ $%&@*=-",
" .+ @#@ $%&@*=-",
" .+ @#@ $%&@*=-",
" .+ @#@ $%&@*=-",
" .+ @#@ $%&@*=-",
" .+ @#@ $%&@*=-",
" .+ @#@ $%&@*=-",
" .+ @#@ $%&@*=-",
" .+ @#@ $%&@*=-",
" .+ @#@ $%&@*=-",
" .+ @#@ $%&@*=-",
" .+ @#@ $%&@*=-",
" .+ @#@ $%&@*=-",
" .+ @#@ $%&@*=-",
" .+ @#@ $%&@*=-",
" .+ @#@ $%&@*=-",
" .+ @#@ $%&@*=-",
" .+ @#@ $%&@*=-",
" .+ @#@ $%&@*=-",
" .+ @#@ $%&@*=-",
" .+ @#@ $%&@*=-",
" .+ @#@ $%&@*=-",
" .+ @#@ $%&@*=-",
" .+ @#@ $%&@*=-",
" .+ @#@ $%&@*=-",
" .+ @#@ $%&@*=-",
" .+ @#@ $%&@*=-",
" .+ @#@ $%&@*=-",
" .+ @#@ $%&@*=-",
" .+ @#@ $%&@*=-",
" .+ @#@ $%&@*=-",
" .+ @#@ $%&@*=-",
" .+ @#@ $%&@*=-",
" .+ @#@ $%&@*=-",
" .+ @#@ $%&@*=-",
" .+ @#@ $%&@*=-",
" .+ @#@ $%&@*=-",
" .+ @#@ $%&@*=-",
" .+ @#@ $%&@*=-",
" .+ @#@ $%&@*=-",
" .+ @#@ $%&@*=-",
" .+ @#@ $%&@*=-",
" .+ @#@ $%&@*=-",
" .+ @#@ $%&@*=-",
" .+ @#@ $%&@*=-",
" .+ @#@ $%&@*=-",
" .+ @#@ $%&@*=-",
" .+ @#@ $%&@*=-",
" .+ @#@ $%&@*=-",
" .+ @#@ $%&@*=-",
" .+ @#@ $%&@*=-",
" .+ @#@ $%&@*=-",
" .+ @#@ $%&@*=-",
" .+ @#@ $%&@*=-",
" .+ @#@ $%&@*=-",
" .+ @#@ $%&@*=-",
" .+ @#@ $%&@*=-",
" .+ @#@ $%&@*=-",
" .+ @#@ $%&@*=-",
" .+ @#@ $%&@*=-",
" .+ @#@ $%&@*=-",
" .+ @#@ $%&@*=-",
" .+ @#@ $%&@*=-",
" .+ @#@ $%&@*=-",
" .+ @#@ $%&@*=-",
" .+ @#@ $%&@*=-",
" .+ @#@ $%&@*=-",
" .+ @#@ $%&@*=-",
" .+ @#@ $%&@*=-",
" .+ @#@ $%&@*=-",
" .+ @#@ $%&@*=-",
" .+ @#@ $%&@*=-",
" .+ @#@ $%&@*=-",
" .+ @#@ $%&@*=-",
" .+ @#@ $%&@*=-",
" .+ @#@ $%&@*=-",
" .+ @#@ $%&@*=-",
" .+ @#@ $%&@*=-",
" .+ @#@ $%&@*=-",
" .+ @#@ $%&@*=-",
" .+ @#@ $%&@*=-",
" .+ @#@ $%&@*=-",
" .+ @#@ $%&@*=-",
" .+ @#@ $%&@*=-",
" .+ @#@ $%&@*=-",
" .+ @#@ $%&@*=-",
" .+ @#@ $%&@*=-",
" .+ @#@ $%&@*=-",
" .+ @#@ $%&@*=-",
" .+ @#@ $%&@*=-",
" .+ @#@ $%&@*=-",
" .+ @#@ $%&@*=-",
" .+ @#@ $%&@*=-",
" .+ @#@ $%&@*=-",
" .+ @#@ $%&@*=-",
" .+ @#@ $%&@*=-",
" .+ @#@ $%&@*=-",
" .+ @#@ $%&@*=-",
" .+ @#@ $%&@*=-",
" .+ @#@ $%&@*=-",
" .+ @#@ $%&@*=-",
" .+ @#@ $%&@*=-",
" .+ @#@ $%&@*=-",
" .+ @#@ $%&@*=-",
" .+ @#@ $%&@*=-",
" .+ @#@ $%&@*=-",
" .+ @#@ $%&@*=-",
" .+ @#@ $%&@*=-",
" .+ @#@ $%&@*=-",
" .+ @#@ $%&@*=-",
" .+ @#@ $%&@*=-",
" .+ @#@ $%&@*=-",
" .+ @#@ $%&@*=-",
" .+ @#@ $%&@*=-",
" .+ @#@ $%&@*=-",
" .+ @#@ $%&@*=-",
" .+ @#@ $%&@*=-",
" .+ @#@ $%&@*=-",
" .+ @#@ $%&@*=-",
" .+ @#@ $%&@*=-",
" .+ @#@ $%&@*=-",
" .+ @#@ $%&@*=-",
" .+ @#@ $%&@*=-",
" .+ @#@ $%&@*=-",
" .+ @#@ $%&@*=-",
" .+ @#@ $%&@*=-",
" .+ @#@ $%&@*=-",
" .+ @#@ $%&@*=-",
" .+ @#@ $%&@*=-",
" .+ @#@ $%&@*=-",
" .+ @#@ $%&@*=-",
" .+ @#@ $%&@*=-",
" .+ @#@ $%&@*=-",
" .+ @#@ $%&@*=-",
" .+ @#@ $%&@*=-",
" .+ @#@ $%&@*=-",
" .+ @#@ $%&@*=-",
" .+ @#@ $%&@*=-",
" .+ @#@ $%&@*=-",
" .+ @#@ $%&@*=-",
" .+ @#@ $%&@*=-",
" .+ @#@ $%&@*=-",
" .+ @#@ $%&@*=-",
" .+ @#@ $%&@*=-",
" .+ @#@ $%&@*=-",
" .+ @#@ $%&@*=-",
" .+ @#@ $%&@*=-",
" .+ @#@ $%&@*=-",
" .+ @#@ $%&@*=-",
" .+ @#@ $%&@*=-",
" .+ @#@ $%&@*=-",
" ;>,;;>>,%&@*=-",
"')!'~{~~'%&@*=-",
" .+ @#@ $%&@*=-",
" .+ @#@ $%&@*=-",
" .+ @#@ $%&@*=-",
" .+ @#@ $%&@*=-",
" .+ @#@ $%&@*=-",
" .+ @#@ $%&@*=-",
" .+ @#@ $%&@*=-",
" .+ @#@ $%&@*=-",
" .+ @#@ $%&@*=-",
" .+ @#@ $%&@*=-",
" .+ @#@ $%&@*=-",
" .+ @#@ $%&@*=-",
" .+ @#@ $%&@*=-",
" .+ @#@ $%&@*=-",
" .+ @#@ $%&@*=-",
" .+ @#@ $%&@*=-",
" .+ @#@ $%&@*=-",
" .+ @#@ $%&@*=-",
" .+ @#@ $%&@*=-",
" .+ @#@ $%&@*=-",
" .+ @#@ $%&@*=-",
" .+ @#@ $%&@*=-",
" .+ @#@ $%&@*=-",
" .+ @#@ $%&@*=-",
" .+ @#@ $%&@*=-",
" .+ @#@ $%&@*=-",
" .+ @#@ $%&@*=-",
" .+ @#@ $%&@*=-",
" .+ @#@ $%&@*=-",
" .+ @#@ $%&@*=-",
" .+ @#@ $%&@*=-",
" .+ @#@ $%&@*=-",
" .+ @#@ $%&@*=-",
" .+ @#@ $%&@*=-",
" .+ @#@ $%&@*=-",
" .+ @#@ $%&@*=-",
" .+ @#@ $%&@*=-",
" .+ @#@ $%&@*=-",
" .+ @#@ $%&@*=-",
" .+ @#@ $%&@*=-",
" .+ @#@ $%&@*=-",
" .+ @#@ $%&@*=-",
" .+ @#@ $%&@*=-",
" .+ @#@ $%&@*=-",
" .+ @#@ $%&@*=-",
" .+ @#@ $%&@*=-",
" .+ @#@ $%&@*=-",
" .+ @#@ $%&@*=-",
" .+ @#@ $%&@*=-",
" .+ @#@ $%&@*=-",
" .+ @#@ $%&@*=-",
" .+ @#@ $%&@*=-",
" .+ @#@ $%&@*=-",
" .+ @#@ $%&@*=-",
" .+ @#@ $%&@*=-",
" .+ @#@ $%&@*=-",
" .+ @#@ $%&@*=-",
" .+ @#@ $%&@*=-",
" .+ @#@ $%&@*=-",
" .+ @#@ $%&@*=-",
" .+ @#@ $%&@*=-",
" .+ @#@ $%&@*=-",
" .+ @#@ $%&@*=-",
" .+ @#@ $%&@*=-",
" .+ @#@ $%&@*=-",
" .+ @#@ $%&@*=-",
" .+ @#@ $%&@*=-",
" .+ @#@ $%&@*=-",
" .+ @#@ $%&@*=-",
" .+ @#@ $%&@*=-",
" .+ @#@ $%&@*=-",
" .+ @#@ $%&@*=-",
" .+ @#@ $%&@*=-",
" .+ @#@ $%&@*=-",
" .+ @#@ $%&@*=-",
" .+ @#@ $%&@*=-",
" .+ @#@ $%&@*=-",
" .+ @#@ $%&@*=-",
" .+ @#@ $%&@*=-",
" .+ @#@ $%&@*=-",
" .+ @#@ $%&@*=-",
" .+ @#@ $%&@*=-",
" .+ @#@ $%&@*=-",
" .+ @#@ $%&@*=-",
" .+ @#@ $%&@*=-",
" .+ @#@ $%&@*=-",
" .+ @#@ $%&@*=-",
" .+ @#@ $%&@*=-",
" .+ @#@ $%&@*=-",
" .+ @#@ $%&@*=-",
" .+ @#@ $%&@*=-",
" .+ @#@ $%&@*=-",
" .+ @#@ $%&@*=-",
" .+ @#@ $%&@*=-",
" .+ @#@ $%&@*=-",
" .+ @#@ $%&@*=-",
" .+ @#@ $%&@*=-",
" .+ @#@ $%&@*=-",
" .+ @#@ $%&@*=-",
" .+ @#@ $%&@*=-",
" .+ @#@ $%&@*=-",
" .+ @#@ $%&@*=-"};
