/* XPM */
static char * maximize_active_xpm[] = {
"26 28 241 2",
"  	c None",
". 	c #0D0D0F",
"+ 	c #080607",
"@ 	c #0E0E10",
"# 	c #0D0E10",
"$ 	c #0B0C0E",
"% 	c #0F1312",
"& 	c #0A0C0B",
"* 	c #0E100F",
"= 	c #040404",
"- 	c #0B0B0B",
"; 	c #191A1C",
"> 	c #918F90",
", 	c #8F8F8F",
"' 	c #909090",
") 	c #909291",
"! 	c #8B8F8E",
"~ 	c #919392",
"{ 	c #91918F",
"] 	c #3D3E40",
"^ 	c #3E3E3E",
"/ 	c #3E3E40",
"( 	c #403E41",
"_ 	c #3F3F41",
": 	c #3E3F41",
"< 	c #3B3F40",
"[ 	c #323232",
"} 	c #333132",
"| 	c #313131",
"1 	c #2B292A",
"2 	c #2B2A28",
"3 	c #2A2B2D",
"4 	c #2B2B2D",
"5 	c #2C2A2D",
"6 	c #2A2A2A",
"7 	c #2B2B2B",
"8 	c #252422",
"9 	c #232428",
"0 	c #232426",
"a 	c #242527",
"b 	c #252527",
"c 	c #262628",
"d 	c #222222",
"e 	c #232323",
"f 	c #232325",
"g 	c #222325",
"h 	c #222224",
"i 	c #212528",
"j 	c #242426",
"k 	c #222627",
"l 	c #222629",
"m 	c #212629",
"n 	c #21262A",
"o 	c #22272B",
"p 	c #23282C",
"q 	c #1D2226",
"r 	c #1B2228",
"s 	c #1D2730",
"t 	c #1E2832",
"u 	c #1D2B34",
"v 	c #1D2E38",
"w 	c #1D2F3B",
"x 	c #1D303E",
"y 	c #1D303F",
"z 	c #1C3240",
"A 	c #1D3341",
"B 	c #181F25",
"C 	c #161F26",
"D 	c #0B2234",
"E 	c #0B2438",
"F 	c #0D283D",
"G 	c #0D2C41",
"H 	c #0F2F46",
"I 	c #0F314A",
"J 	c #10324D",
"K 	c #11354F",
"L 	c #12252C",
"M 	c #09242F",
"N 	c #122B3F",
"O 	c #0C3555",
"P 	c #0D3F62",
"Q 	c #114666",
"R 	c #104A70",
"S 	c #0F4A74",
"T 	c #104A72",
"U 	c #114C78",
"V 	c #104F7A",
"W 	c #11507B",
"X 	c #12517C",
"Y 	c #152934",
"Z 	c #153242",
"` 	c #154992",
" .	c #1776E2",
"..	c #1774DE",
"+.	c #1E76E2",
"@.	c #1877ED",
"#.	c #1F7DF1",
"$.	c #1F81FC",
"%.	c #1D81F9",
"&.	c #1F83FF",
"*.	c #2084FF",
"=.	c #2185FF",
"-.	c #193040",
";.	c #16364D",
">.	c #1778D9",
",.	c #3DFFFF",
"'.	c #44FFFF",
").	c #48FFFF",
"!.	c #3CFFF5",
"~.	c #45FDFD",
"{.	c #3EFFF8",
"].	c #47FEFC",
"^.	c #48FFFD",
"/.	c #49FFFE",
"(.	c #163146",
"_.	c #133652",
":.	c #1565C6",
"<.	c #34DEF8",
"[.	c #35DEFD",
"}.	c #38E0FF",
"|.	c #32EBFF",
"1.	c #3BEBFF",
"2.	c #36EDFD",
"3.	c #3CF2FF",
"4.	c #37F6FE",
"5.	c #38F7FF",
"6.	c #39F8FF",
"7.	c #183449",
"8.	c #103550",
"9.	c #124388",
"0.	c #1060B5",
"a.	c #0E60AC",
"b.	c #185FB7",
"c.	c #1560BD",
"d.	c #1960B8",
"e.	c #1761C4",
"f.	c #1663BF",
"g.	c #1764C0",
"h.	c #1865C1",
"i.	c #1F3A4B",
"j.	c #12364E",
"k.	c #134661",
"l.	c #0F4866",
"m.	c #105275",
"n.	c #135381",
"o.	c #115584",
"p.	c #0F5881",
"q.	c #125A80",
"r.	c #0E5D7B",
"s.	c #115B8A",
"t.	c #125C8B",
"u.	c #2A4451",
"v.	c #345566",
"w.	c #2D6177",
"x.	c #2F6587",
"y.	c #276E8E",
"z.	c #226B8C",
"A.	c #256F96",
"B.	c #247299",
"C.	c #276E9A",
"D.	c #25709A",
"E.	c #267199",
"F.	c #27729A",
"G.	c #1C343E",
"H.	c #1B3B48",
"I.	c #1E4459",
"J.	c #1E4D61",
"K.	c #194F69",
"L.	c #1F556D",
"M.	c #205873",
"N.	c #1F577A",
"O.	c #205977",
"P.	c #1B5A7B",
"Q.	c #1D5A79",
"R.	c #1E5B7A",
"S.	c #212F38",
"T.	c #223440",
"U.	c #1E3F4E",
"V.	c #204454",
"W.	c #214A5C",
"X.	c #204E65",
"Y.	c #1F5168",
"Z.	c #1F536B",
"`.	c #20546A",
" +	c #202D35",
".+	c #223039",
"++	c #203940",
"@+	c #213C47",
"#+	c #223F4D",
"$+	c #204557",
"%+	c #1F4657",
"&+	c #204758",
"*+	c #214859",
"=+	c #20292E",
"-+	c #212C32",
";+	c #203139",
">+	c #21333D",
",+	c #213742",
"'+	c #203A47",
")+	c #203C48",
"!+	c #213D49",
"~+	c #223E4A",
"{+	c #202427",
"]+	c #202528",
"^+	c #212A31",
"/+	c #202E37",
"(+	c #1E2F37",
"_+	c #1F3038",
":+	c #213037",
"<+	c #223138",
"[+	c #131514",
"}+	c #141615",
"|+	c #141414",
"1+	c #141416",
"2+	c #131416",
"3+	c #151515",
"4+	c #141213",
"5+	c #151314",
"6+	c #151412",
"7+	c #131313",
"8+	c #141517",
"9+	c #121315",
"0+	c #5A5A5A",
"a+	c #5C5B59",
"b+	c #5B5A58",
"c+	c #5A5957",
"d+	c #585755",
"e+	c #565553",
"f+	c #525250",
"g+	c #51514F",
"h+	c #504F4D",
"i+	c #292929",
"j+	c #282828",
"k+	c #272727",
"l+	c #262626",
"m+	c #252525",
"n+	c #1F1F1F",
"o+	c #201E1F",
"p+	c #1F1D1E",
"q+	c #1E1C1D",
"r+	c #1D1B1C",
". + @ # $ % & * = - ; ; ; ; ; ; ; ; ; ; ; ; ; ; ; ; ",
"> > , ' ) ! ! ~ , { ' ' ' ' ' ' ' { , ~ ! ! ) ' , > ",
"] ^ ] / / ( ( _ : < ] ] ] ] ] ] ] < : _ ( ( / / ] ^ ",
"[ [ [ [ } } } } | | [ [ [ [ [ [ [ | | } } } } [ [ [ ",
"1 2 3 4 4 5 1 6 7 7 1 1 1 1 1 1 1 7 7 6 1 5 4 4 3 2 ",
"8 8 9 9 0 0 0 a a a b b b c b b b a a a 0 0 0 9 9 8 ",
"d d d e f g g g g g h h h h h h h g g g g g f e d d ",
"9 i j 0 k l m m n n o o p p p o o n n m m l k 0 j i ",
"q r s t u v w x y y z z z A z z z y y x w v u t s r ",
"B C D E F G H I J J K K K K K K K J J I H G F E D C ",
"L M N O P Q R S T U V W X X X W V U T S R Q P O N M ",
"Y Z `  ...+.@.#.$.%.&.*.=.=.=.*.&.%.$.#.@.+... .` Z ",
"-.;.>.,.'.).!.~.{.'.].^./././.^.].'.{.~.!.).'.,.>.;.",
"(._.:.<.[.}.|.1.2.3.4.5.6.6.6.5.4.3.2.1.|.}.[.<.:._.",
"7.8.9.0.a.b.c.d.e.f.g.h.h.h.h.h.g.f.e.d.c.b.a.0.9.8.",
"i.j.k.l.m.n.o.p.q.r.s.t.t.t.t.t.s.r.q.p.o.n.m.l.k.j.",
"u.v.w.x.y.z.A.B.C.D.E.F.F.E.F.F.E.D.C.B.A.z.y.x.w.v.",
"G.H.I.J.K.L.M.N.O.P.Q.R.R.Q.R.R.Q.P.O.N.M.L.K.J.I.H.",
"S.T.U.V.W.X.Y.Z.Z.`.`.`.`.`.`.`.`.`.Z.Z.Y.X.W.V.U.T.",
" +.+++@+#+V.$+%+&+&+*+*+*+*+*+*+*+&+&+%+$+V.#+@+++.+",
"=+-+;+>+,+'+)+)+!+~+)+)+)+)+)+)+)+~+!+)+)+'+,+>+;+-+",
"{+]+^+-+ +/+(+_+:+<+:+:+:+:+:+:+:+<+:+_+(+/+ +-+^+]+",
"[+}+|+|+1+2+2+[+[+|+[+[+[+[+[+[+[+|+[+[+2+2+1+|+|+}+",
"|+3+4+5+5+5+5+6+6+6+5+5+5+5+5+5+5+6+6+6+5+5+5+5+4+3+",
"7+7+2+2+8+8+8+2+2+9+2+2+2+2+2+2+2+9+2+2+8+8+8+2+2+7+",
"0+0+a+b+b+c+d+e+f+g+h+h+h+h+h+h+h+g+f+e+d+c+b+b+a+0+",
"i+i+i+i+i+i+i+j+k+l+l+l+m+m+m+l+l+l+k+j+i+i+i+i+i+i+",
"n+n+o+o+o+o+o+p+p+q+q+r+r+r+r+r+q+q+p+p+o+o+o+o+o+n+"};
