/* XPM */
static char * right_inactive_xpm[] = {
"15 800 19 1",
" 	c #1C1C1C",
".	c #252525",
"+	c #555555",
"@	c #212121",
"#	c #141414",
"$	c #181818",
"%	c #2D2D2F",
"&	c #232325",
"*	c #222222",
"=	c #313133",
"-	c #59595B",
";	c #0B0B0B",
">	c #0A0A0A",
",	c #090909",
"'	c #363638",
")	c #343434",
"!	c #353535",
"~	c #434343",
"{	c #676769",
" .+@#$%&@*@&=-&",
" .+@#$%&@*@&=-&",
" .+@#$%&@*@&=-&",
" .+@#$%&@*@&=-&",
" .+@#$%&@*@&=-&",
" .+@#$%&@*@&=-&",
" .+@#$%&@*@&=-&",
" .+@#$%&@*@&=-&",
" .+@#$%&@*@&=-&",
" .+@#$%&@*@&=-&",
" .+@#$%&@*@&=-&",
" .+@#$%&@*@&=-&",
" .+@#$%&@*@&=-&",
" .+@#$%&@*@&=-&",
" .+@#$%&@*@&=-&",
" .+@#$%&@*@&=-&",
" .+@#$%&@*@&=-&",
" .+@#$%&@*@&=-&",
" .+@#$%&@*@&=-&",
" .+@#$%&@*@&=-&",
" .+@#$%&@*@&=-&",
" .+@#$%&@*@&=-&",
" .+@#$%&@*@&=-&",
" .+@#$%&@*@&=-&",
" .+@#$%&@*@&=-&",
" .+@#$%&@*@&=-&",
" .+@#$%&@*@&=-&",
" .+@#$%&@*@&=-&",
" .+@#$%&@*@&=-&",
" .+@#$%&@*@&=-&",
" .+@#$%&@*@&=-&",
" .+@#$%&@*@&=-&",
" .+@#$%&@*@&=-&",
" .+@#$%&@*@&=-&",
" .+@#$%&@*@&=-&",
" .+@#$%&@*@&=-&",
" .+@#$%&@*@&=-&",
" .+@#$%&@*@&=-&",
" .+@#$%&@*@&=-&",
" .+@#$%&@*@&=-&",
" .+@#$%&@*@&=-&",
" .+@#$%&@*@&=-&",
" .+@#$%&@*@&=-&",
" .+@#$%&@*@&=-&",
" .+@#$%&@*@&=-&",
" .+@#$%&@*@&=-&",
" .+@#$%&@*@&=-&",
" .+@#$%&@*@&=-&",
" .+@#$%&@*@&=-&",
" .+@#$%&@*@&=-&",
" .+@#$%&@*@&=-&",
" .+@#$%&@*@&=-&",
" .+@#$%&@*@&=-&",
" .+@#$%&@*@&=-&",
" .+@#$%&@*@&=-&",
" .+@#$%&@*@&=-&",
" .+@#$%&@*@&=-&",
" .+@#$%&@*@&=-&",
" .+@#$%&@*@&=-&",
" .+@#$%&@*@&=-&",
" .+@#$%&@*@&=-&",
" .+@#$%&@*@&=-&",
" .+@#$%&@*@&=-&",
" .+@#$%&@*@&=-&",
" .+@#$%&@*@&=-&",
" .+@#$%&@*@&=-&",
" .+@#$%&@*@&=-&",
" .+@#$%&@*@&=-&",
" .+@#$%&@*@&=-&",
" .+@#$%&@*@&=-&",
" .+@#$%&@*@&=-&",
" .+@#$%&@*@&=-&",
" .+@#$%&@*@&=-&",
" .+@#$%&@*@&=-&",
" .+@#$%&@*@&=-&",
" .+@#$%&@*@&=-&",
" .+@#$%&@*@&=-&",
" .+@#$%&@*@&=-&",
" .+@#$%&@*@&=-&",
" .+@#$%&@*@&=-&",
" .+@#$%&@*@&=-&",
" .+@#$%&@*@&=-&",
" .+@#$%&@*@&=-&",
" .+@#$%&@*@&=-&",
" .+@#$%&@*@&=-&",
" .+@#$%&@*@&=-&",
" .+@#$%&@*@&=-&",
" .+@#$%&@*@&=-&",
" .+@#$%&@*@&=-&",
" .+@#$%&@*@&=-&",
" .+@#$%&@*@&=-&",
" .+@#$%&@*@&=-&",
" .+@#$%&@*@&=-&",
" .+@#$%&@*@&=-&",
" .+@#$%&@*@&=-&",
" .+@#$%&@*@&=-&",
" .+@#$%&@*@&=-&",
" .+@#$%&@*@&=-&",
" .+@#$%&@*@&=-&",
" .+@#$%&@*@&=-&",
" .+@#$%&@*@&=-&",
" .+@#$%&@*@&=-&",
" .+@#$%&@*@&=-&",
" .+@#$%&@*@&=-&",
" .+@#$%&@*@&=-&",
" .+@#$%&@*@&=-&",
" .+@#$%&@*@&=-&",
" .+@#$%&@*@&=-&",
" .+@#$%&@*@&=-&",
" .+@#$%&@*@&=-&",
" .+@#$%&@*@&=-&",
" .+@#$%&@*@&=-&",
" .+@#$%&@*@&=-&",
" .+@#$%&@*@&=-&",
" .+@#$%&@*@&=-&",
" .+@#$%&@*@&=-&",
" .+@#$%&@*@&=-&",
" .+@#$%&@*@&=-&",
" .+@#$%&@*@&=-&",
" .+@#$%&@*@&=-&",
" .+@#$%&@*@&=-&",
" .+@#$%&@*@&=-&",
" .+@#$%&@*@&=-&",
" .+@#$%&@*@&=-&",
" .+@#$%&@*@&=-&",
" .+@#$%&@*@&=-&",
" .+@#$%&@*@&=-&",
" .+@#$%&@*@&=-&",
" .+@#$%&@*@&=-&",
" .+@#$%&@*@&=-&",
" .+@#$%&@*@&=-&",
" .+@#$%&@*@&=-&",
" .+@#$%&@*@&=-&",
" .+@#$%&@*@&=-&",
" .+@#$%&@*@&=-&",
" .+@#$%&@*@&=-&",
" .+@#$%&@*@&=-&",
" .+@#$%&@*@&=-&",
" .+@#$%&@*@&=-&",
" .+@#$%&@*@&=-&",
" .+@#$%&@*@&=-&",
" .+@#$%&@*@&=-&",
" .+@#$%&@*@&=-&",
" .+@#$%&@*@&=-&",
" .+@#$%&@*@&=-&",
" .+@#$%&@*@&=-&",
" .+@#$%&@*@&=-&",
" .+@#$%&@*@&=-&",
" .+@#$%&@*@&=-&",
" .+@#$%&@*@&=-&",
" .+@#$%&@*@&=-&",
" .+@#$%&@*@&=-&",
" .+@#$%&@*@&=-&",
" .+@#$%&@*@&=-&",
" .+@#$%&@*@&=-&",
" .+@#$%&@*@&=-&",
" .+@#$%&@*@&=-&",
" .+@#$%&@*@&=-&",
" .+@#$%&@*@&=-&",
" .+@#$%&@*@&=-&",
" .+@#$%&@*@&=-&",
" .+@#$%&@*@&=-&",
" .+@#$%&@*@&=-&",
" .+@#$%&@*@&=-&",
" .+@#$%&@*@&=-&",
" .+@#$%&@*@&=-&",
" .+@#$%&@*@&=-&",
" .+@#$%&@*@&=-&",
" .+@#$%&@*@&=-&",
" .+@#$%&@*@&=-&",
" .+@#$%&@*@&=-&",
" .+@#$%&@*@&=-&",
" .+@#$%&@*@&=-&",
" .+@#$%&@*@&=-&",
" .+@#$%&@*@&=-&",
" .+@#$%&@*@&=-&",
" .+@#$%&@*@&=-&",
" .+@#$%&@*@&=-&",
" .+@#$%&@*@&=-&",
" .+@#$%&@*@&=-&",
" .+@#$%&@*@&=-&",
" .+@#$%&@*@&=-&",
" .+@#$%&@*@&=-&",
" .+@#$%&@*@&=-&",
" .+@#$%&@*@&=-&",
" .+@#$%&@*@&=-&",
" .+@#$%&@*@&=-&",
" .+@#$%&@*@&=-&",
" .+@#$%&@*@&=-&",
" .+@#$%&@*@&=-&",
" .+@#$%&@*@&=-&",
" .+@#$%&@*@&=-&",
" .+@#$%&@*@&=-&",
" .+@#$%&@*@&=-&",
" .+@#$%&@*@&=-&",
" .+@#$%&@*@&=-&",
" .+@#$%&@*@&=-&",
" .+@#$%&@*@&=-&",
" .+@#$%&@*@&=-&",
" .+@#$%&@*@&=-&",
" .+@#$%&@*@&=-&",
" .+@#$%&@*@&=-&",
" .+@#$%&@*@&=-&",
" .+@#$%&@*@&=-&",
" .+@#$%&@*@&=-&",
" .+@#$%&@*@&=-&",
" .+@#$%&@*@&=-&",
" .+@#$%&@*@&=-&",
" .+@#$%&@*@&=-&",
" .+@#$%&@*@&=-&",
" .+@#$%&@*@&=-&",
" .+@#$%&@*@&=-&",
" .+@#$%&@*@&=-&",
" .+@#$%&@*@&=-&",
" .+@#$%&@*@&=-&",
" .+@#$%&@*@&=-&",
" .+@#$%&@*@&=-&",
" .+@#$%&@*@&=-&",
" .+@#$%&@*@&=-&",
" .+@#$%&@*@&=-&",
" .+@#$%&@*@&=-&",
" .+@#$%&@*@&=-&",
" .+@#$%&@*@&=-&",
" .+@#$%&@*@&=-&",
" .+@#$%&@*@&=-&",
" .+@#$%&@*@&=-&",
" .+@#$%&@*@&=-&",
" .+@#$%&@*@&=-&",
" .+@#$%&@*@&=-&",
" .+@#$%&@*@&=-&",
" .+@#$%&@*@&=-&",
" .+@#$%&@*@&=-&",
" .+@#$%&@*@&=-&",
" .+@#$%&@*@&=-&",
" .+@#$%&@*@&=-&",
" .+@#$%&@*@&=-&",
" .+@#$%&@*@&=-&",
" .+@#$%&@*@&=-&",
" .+@#$%&@*@&=-&",
" .+@#$%&@*@&=-&",
" .+@#$%&@*@&=-&",
" .+@#$%&@*@&=-&",
" .+@#$%&@*@&=-&",
" .+@#$%&@*@&=-&",
" .+@#$%&@*@&=-&",
" .+@#$%&@*@&=-&",
" .+@#$%&@*@&=-&",
" .+@#$%&@*@&=-&",
" .+@#$%&@*@&=-&",
" .+@#$%&@*@&=-&",
" .+@#$%&@*@&=-&",
" .+@#$%&@*@&=-&",
" .+@#$%&@*@&=-&",
" .+@#$%&@*@&=-&",
" .+@#$%&@*@&=-&",
" .+@#$%&@*@&=-&",
" .+@#$%&@*@&=-&",
" .+@#$%&@*@&=-&",
" .+@#$%&@*@&=-&",
" .+@#$%&@*@&=-&",
" .+@#$%&@*@&=-&",
" .+@#$%&@*@&=-&",
" .+@#$%&@*@&=-&",
" .+@#$%&@*@&=-&",
" .+@#$%&@*@&=-&",
" .+@#$%&@*@&=-&",
" .+@#$%&@*@&=-&",
" .+@#$%&@*@&=-&",
" .+@#$%&@*@&=-&",
" .+@#$%&@*@&=-&",
" .+@#$%&@*@&=-&",
" .+@#$%&@*@&=-&",
" .+@#$%&@*@&=-&",
" .+@#$%&@*@&=-&",
" .+@#$%&@*@&=-&",
" .+@#$%&@*@&=-&",
" .+@#$%&@*@&=-&",
" .+@#$%&@*@&=-&",
" .+@#$%&@*@&=-&",
" .+@#$%&@*@&=-&",
" .+@#$%&@*@&=-&",
" .+@#$%&@*@&=-&",
" .+@#$%&@*@&=-&",
" .+@#$%&@*@&=-&",
" .+@#$%&@*@&=-&",
" .+@#$%&@*@&=-&",
" .+@#$%&@*@&=-&",
" .+@#$%&@*@&=-&",
" .+@#$%&@*@&=-&",
" .+@#$%&@*@&=-&",
" .+@#$%&@*@&=-&",
" .+@#$%&@*@&=-&",
" .+@#$%&@*@&=-&",
" .+@#$%&@*@&=-&",
" .+@#$%&@*@&=-&",
" .+@#$%&@*@&=-&",
" .+@#$%&@*@&=-&",
" .+@#$%&@*@&=-&",
" .+@#$%&@*@&=-&",
" .+@#$%&@*@&=-&",
" .+@#$%&@*@&=-&",
" .+@#$%&@*@&=-&",
" .+@#$%&@*@&=-&",
" .+@#$%&@*@&=-&",
" .+@#$%&@*@&=-&",
" .+@#$%&@*@&=-&",
" .+@#$%&@*@&=-&",
" .+@#$%&@*@&=-&",
" .+@#$%&@*@&=-&",
" .+@#$%&@*@&=-&",
" .+@#$%&@*@&=-&",
" .+@#$%&@*@&=-&",
" .+@#$%&@*@&=-&",
" .+@#$%&@*@&=-&",
" .+@#$%&@*@&=-&",
" .+@#$%&@*@&=-&",
" .+@#$%&@*@&=-&",
" .+@#$%&@*@&=-&",
" .+@#$%&@*@&=-&",
" .+@#$%&@*@&=-&",
" .+@#$%&@*@&=-&",
" .+@#$%&@*@&=-&",
" .+@#$%&@*@&=-&",
" .+@#$%&@*@&=-&",
" .+@#$%&@*@&=-&",
" .+@#$%&@*@&=-&",
" .+@#$%&@*@&=-&",
" .+@#$%&@*@&=-&",
" .+@#$%&@*@&=-&",
" .+@#$%&@*@&=-&",
" .+@#$%&@*@&=-&",
" .+@#$%&@*@&=-&",
" .+@#$%&@*@&=-&",
" .+@#$%&@*@&=-&",
" .+@#$%&@*@&=-&",
" .+@#$%&@*@&=-&",
" .+@#$%&@*@&=-&",
" .+@#$%&@*@&=-&",
" .+@#$%&@*@&=-&",
" .+@#$%&@*@&=-&",
" .+@#$%&@*@&=-&",
" .+@#$%&@*@&=-&",
" .+@#$%&@*@&=-&",
" .+@#$%&@*@&=-&",
" .+@#$%&@*@&=-&",
" .+@#$%&@*@&=-&",
" .+@#$%&@*@&=-&",
" .+@#$%&@*@&=-&",
" .+@#$%&@*@&=-&",
" .+@#$%&@*@&=-&",
" .+@#$%&@*@&=-&",
" .+@#$%&@*@&=-&",
" .+@#$%&@*@&=-&",
" .+@#$%&@*@&=-&",
" .+@#$%&@*@&=-&",
" .+@#$%&@*@&=-&",
" .+@#$%&@*@&=-&",
" .+@#$%&@*@&=-&",
" .+@#$%&@*@&=-&",
" .+@#$%&@*@&=-&",
" .+@#$%&@*@&=-&",
" .+@#$%&@*@&=-&",
" .+@#$%&@*@&=-&",
" .+@#$%&@*@&=-&",
" .+@#$%&@*@&=-&",
" .+@#$%&@*@&=-&",
" .+@#$%&@*@&=-&",
" .+@#$%&@*@&=-&",
" .+@#$%&@*@&=-&",
" .+@#$%&@*@&=-&",
" .+@#$%&@*@&=-&",
" .+@#$%&@*@&=-&",
" .+@#$%&@*@&=-&",
" .+@#$%&@*@&=-&",
" .+@#$%&@*@&=-&",
" .+@#$%&@*@&=-&",
" .+@#$%&@*@&=-&",
" .+@#$%&@*@&=-&",
" .+@#$%&@*@&=-&",
" .+@#$%&@*@&=-&",
" .+@#$%&@*@&=-&",
" .+@#$%&@*@&=-&",
" .+@#$%&@*@&=-&",
" .+@#$%&@*@&=-&",
" .+@#$%&@*@&=-&",
" .+@#$%&@*@&=-&",
" .+@#$%&@*@&=-&",
" .+@#$%&@*@&=-&",
" .+@#$%&@*@&=-&",
" .+@#$%&@*@&=-&",
" .+@#$%&@*@&=-&",
" .+@#$%&@*@&=-&",
" .+@#$%&@*@&=-&",
" .+@#$%&@*@&=-&",
" .+@#$%&@*@&=-&",
" .+@#$%&@*@&=-&",
" .+@#$%&@*@&=-&",
" .+@#$%&@*@&=-&",
" .+@#$%&@*@&=-&",
" .+@#$%&@*@&=-&",
" .+@#$%&@*@&=-&",
" .+@#$%&@*@&=-&",
" .+@#$%&@*@&=-&",
" .+@#$%&@*@&=-&",
" .+@#$%&@*@&=-&",
" .+@#$%&@*@&=-&",
" .+@#$%&@*@&=-&",
" .+@#$%&@*@&=-&",
" .+@#$%&@*@&=-&",
" .+@#$%&@*@&=-&",
" .+@#$%&@*@&=-&",
" .+@#$%&@*@&=-&",
" .+@#$%&@*@&=-&",
" .+@#$%&@*@&=-&",
" .+@#$%&@*@&=-&",
" .+@#$%&@*@&=-&",
" .+@#$%&@*@&=-&",
" .+@#$%&@*@&=-&",
" .+@#$%&@*@&=-&",
" .+@#$%&@*@&=-&",
" .+@#$%&@*@&=-&",
" .+@#$%&@*@&=-&",
" .+@#$%&@*@&=-&",
" .+@#$%&@*@&=-&",
" .+@#$%&@*@&=-&",
" .+@#$%&@*@&=-&",
" .+@#$%&@*@&=-&",
" .+@#$%&@*@&=-&",
" .+@#$%&@*@&=-&",
" .+@#$%&@*@&=-&",
" .+@#$%&@*@&=-&",
" .+@#$%&@*@&=-&",
" .+@#$%&@*@&=-&",
" .+@#$%&@*@&=-&",
" .+@#$%&@*@&=-&",
" .+@#$%&@*@&=-&",
" .+@#$%&@*@&=-&",
" .+@#$%&@*@&=-&",
" .+@#$%&@*@&=-&",
" .+@#$%&@*@&=-&",
" .+@#$%&@*@&=-&",
" .+@#$%&@*@&=-&",
" .+@#$%&@*@&=-&",
" .+@#$%&@*@&=-&",
" .+@#$%&@*@&=-&",
" .+@#$%&@*@&=-&",
" .+@#$%&@*@&=-&",
" .+@#$%&@*@&=-&",
" .+@#$%&@*@&=-&",
" .+@#$%&@*@&=-&",
" .+@#$%&@*@&=-&",
" .+@#$%&@*@&=-&",
" .+@#$%&@*@&=-&",
" .+@#$%&@*@&=-&",
" .+@#$%&@*@&=-&",
" .+@#$%&@*@&=-&",
" .+@#$%&@*@&=-&",
" .+@#$%&@*@&=-&",
" .+@#$%&@*@&=-&",
" .+@#$%&@*@&=-&",
" .+@#$%&@*@&=-&",
" .+@#$%&@*@&=-&",
" .+@#$%&@*@&=-&",
" .+@#$%&@*@&=-&",
" .+@#$%&@*@&=-&",
" .+@#$%&@*@&=-&",
" .+@#$%&@*@&=-&",
" .+@#$%&@*@&=-&",
" .+@#$%&@*@&=-&",
" .+@#$%&@*@&=-&",
" .+@#$%&@*@&=-&",
" .+@#$%&@*@&=-&",
" .+@#$%&@*@&=-&",
" .+@#$%&@*@&=-&",
" .+@#$%&@*@&=-&",
" .+@#$%&@*@&=-&",
" .+@#$%&@*@&=-&",
" .+@#$%&@*@&=-&",
" .+@#$%&@*@&=-&",
" .+@#$%&@*@&=-&",
" .+@#$%&@*@&=-&",
" .+@#$%&@*@&=-&",
" .+@#$%&@*@&=-&",
" .+@#$%&@*@&=-&",
" .+@#$%&@*@&=-&",
" .+@#$%&@*@&=-&",
" .+@#$%&@*@&=-&",
" .+@#$%&@*@&=-&",
" .+@#$%&@*@&=-&",
" .+@#$%&@*@&=-&",
" .+@#$%&@*@&=-&",
" .+@#$%&@*@&=-&",
" .+@#$%&@*@&=-&",
" .+@#$%&@*@&=-&",
" .+@#$%&@*@&=-&",
" .+@#$%&@*@&=-&",
" .+@#$%&@*@&=-&",
" .+@#$%&@*@&=-&",
" .+@#$%&@*@&=-&",
" .+@#$%&@*@&=-&",
" .+@#$%&@*@&=-&",
" .+@#$%&@*@&=-&",
" .+@#$%&@*@&=-&",
" .+@#$%&@*@&=-&",
" .+@#$%&@*@&=-&",
" .+@#$%&@*@&=-&",
" .+@#$%&@*@&=-&",
" .+@#$%&@*@&=-&",
" .+@#$%&@*@&=-&",
" .+@#$%&@*@&=-&",
" .+@#$%&@*@&=-&",
" .+@#$%&@*@&=-&",
" .+@#$%&@*@&=-&",
" .+@#$%&@*@&=-&",
" .+@#$%&@*@&=-&",
" .+@#$%&@*@&=-&",
" .+@#$%&@*@&=-&",
" .+@#$%&@*@&=-&",
" .+@#$%&@*@&=-&",
" .+@#$%&@*@&=-&",
" .+@#$%&@*@&=-&",
" .+@#$%&@*@&=-&",
" .+@#$%&@*@&=-&",
" .+@#$%&@*@&=-&",
" .+@#$%&@*@&=-&",
" .+@#$%&@*@&=-&",
" .+@#$%&@*@&=-&",
" .+@#$%&@*@&=-&",
" .+@#$%&@*@&=-&",
" .+@#$%&@*@&=-&",
" .+@#$%&@*@&=-&",
" .+@#$%&@*@&=-&",
" .+@#$%&@*@&=-&",
" .+@#$%&@*@&=-&",
" .+@#$%&@*@&=-&",
" .+@#$%&@*@&=-&",
" .+@#$%&@*@&=-&",
" .+@#$%&@*@&=-&",
" .+@#$%&@*@&=-&",
" .+@#$%&@*@&=-&",
" .+@#$%&@*@&=-&",
" .+@#$%&@*@&=-&",
" .+@#$%&@*@&=-&",
" .+@#$%&@*@&=-&",
" .+@#$%&@*@&=-&",
" .+@#$%&@*@&=-&",
" .+@#$%&@*@&=-&",
" .+@#$%&@*@&=-&",
" .+@#$%&@*@&=-&",
" .+@#$%&@*@&=-&",
" .+@#$%&@*@&=-&",
" .+@#$%&@*@&=-&",
" .+@#$%&@*@&=-&",
" .+@#$%&@*@&=-&",
" .+@#$%&@*@&=-&",
" .+@#$%&@*@&=-&",
" .+@#$%&@*@&=-&",
" .+@#$%&@*@&=-&",
" .+@#$%&@*@&=-&",
" .+@#$%&@*@&=-&",
" .+@#$%&@*@&=-&",
" .+@#$%&@*@&=-&",
" .+@#$%&@*@&=-&",
" .+@#$%&@*@&=-&",
" .+@#$%&@*@&=-&",
" .+@#$%&@*@&=-&",
" .+@#$%&@*@&=-&",
" .+@#$%&@*@&=-&",
" .+@#$%&@*@&=-&",
" .+@#$%&@*@&=-&",
" .+@#$%&@*@&=-&",
" .+@#$%&@*@&=-&",
" .+@#$%&@*@&=-&",
" .+@#$%&@*@&=-&",
" .+@#$%&@*@&=-&",
" .+@#$%&@*@&=-&",
" .+@#$%&@*@&=-&",
" .+@#$%&@*@&=-&",
" .+@#$%&@*@&=-&",
" .+@#$%&@*@&=-&",
" .+@#$%&@*@&=-&",
" .+@#$%&@*@&=-&",
" .+@#$%&@*@&=-&",
" .+@#$%&@*@&=-&",
" .+@#$%&@*@&=-&",
" .+@#$%&@*@&=-&",
" .+@#$%&@*@&=-&",
" .+@#$%&@*@&=-&",
" .+@#$%&@*@&=-&",
" .+@#$%&@*@&=-&",
" .+@#$%&@*@&=-&",
" .+@#$%&@*@&=-&",
" .+@#$%&@*@&=-&",
" .+@#$%&@*@&=-&",
" .+@#$%&@*@&=-&",
" .+@#$%&@*@&=-&",
" .+@#$%&@*@&=-&",
" .+@#$%&@*@&=-&",
" .+@#$%&@*@&=-&",
" .+@#$%&@*@&=-&",
" .+@#$%&@*@&=-&",
" .+@#$%&@*@&=-&",
" .+@#$%&@*@&=-&",
" .+@#$%&@*@&=-&",
" .+@#$%&@*@&=-&",
" .+@#$%&@*@&=-&",
" .+@#$%&@*@&=-&",
" .+@#$%&@*@&=-&",
" .+@#$%&@*@&=-&",
" .+@#$%&@*@&=-&",
" .+@#$%&@*@&=-&",
" .+@#$%&@*@&=-&",
" .+@#$%&@*@&=-&",
" .+@#$%&@*@&=-&",
" .+@#$%&@*@&=-&",
" .+@#$%&@*@&=-&",
" .+@#$%&@*@&=-&",
" .+@#$%&@*@&=-&",
" .+@#$%&@*@&=-&",
" .+@#$%&@*@&=-&",
" .+@#$%&@*@&=-&",
" .+@#$%&@*@&=-&",
" .+@#$%&@*@&=-&",
" .+@#$%&@*@&=-&",
" .+@#$%&@*@&=-&",
" .+@#$%&@*@&=-&",
" .+@#$%&@*@&=-&",
" .+@#$%&@*@&=-&",
" .+@#$%&@*@&=-&",
" .+@#$%&@*@&=-&",
" .+@#$%&@*@&=-&",
" .+@#$%&@*@&=-&",
" .+@#$%&@*@&=-&",
" .+@#$%&@*@&=-&",
" .+@#$%&@*@&=-&",
" .+@#$%&@*@&=-&",
" .+@#$%&@*@&=-&",
" .+@#$%&@*@&=-&",
" .+@#$%&@*@&=-&",
" .+@#$%&@*@&=-&",
" .+@#$%&@*@&=-&",
" .+@#$%&@*@&=-&",
" .+@#$%&@*@&=-&",
" .+@#$%&@*@&=-&",
" .+@#$%&@*@&=-&",
" .+@#$%&@*@&=-&",
" .+@#$%&@*@&=-&",
" .+@#$%&@*@&=-&",
" .+@#$%&@*@&=-&",
" .+@#$%&@*@&=-&",
" .+@#$%&@*@&=-&",
" .+@#$%&@*@&=-&",
" .+@#$%&@*@&=-&",
" .+@#$%&@*@&=-&",
" .+@#$%&@*@&=-&",
" .+@#$%&@*@&=-&",
" .+@#$%&@*@&=-&",
" .+@#$%&@*@&=-&",
" .+@#$%&@*@&=-&",
" .+@#$%&@*@&=-&",
" .+@#$%&@*@&=-&",
" .+@#$%&@*@&=-&",
" .+@#$%&@*@&=-&",
" .+@#$%&@*@&=-&",
" .+@#$%&@*@&=-&",
" .+@#$%&@*@&=-&",
" .+@#$%&@*@&=-&",
" .+@#$%&@*@&=-&",
" .+@#$%&@*@&=-&",
" .+@#$%&@*@&=-&",
" .+@#$%&@*@&=-&",
" .+@#$%&@*@&=-&",
" .+@#$%&@*@&=-&",
" .+@#$%&@*@&=-&",
" .+@#$%&@*@&=-&",
" .+@#$%&@*@&=-&",
" .+@#$%&@*@&=-&",
" .+@#$%&@*@&=-&",
" .+@#$%&@*@&=-&",
" .+@#$%&@*@&=-&",
" .+@#$%&@*@&=-&",
" .+@#$%&@*@&=-&",
" .+@#$%&@*@&=-&",
" .+@#$%&@*@&=-&",
" .+@#$%&@*@&=-&",
" .+@#$%&@*@&=-&",
" .+@#$%&@*@&=-&",
" .+@#$%&@*@&=-&",
" .+@#$%&@*@&=-&",
" .+@#$%&@*@&=-&",
" .+@#$%&@*@&=-&",
" .+@#$%&@*@&=-&",
" .+@#$%&@*@&=-&",
" .+@#$%&@*@&=-&",
" .+@#$%&@*@&=-&",
" .+@#$%&@*@&=-&",
" .+@#$;>>,,;>,&",
" .+@#$'))!)'~{'",
" .+@#$%&@*@&=-&",
" .+@#$%&@*@&=-&",
" .+@#$%&@*@&=-&",
" .+@#$%&@*@&=-&",
" .+@#$%&@*@&=-&",
" .+@#$%&@*@&=-&",
" .+@#$%&@*@&=-&",
" .+@#$%&@*@&=-&",
" .+@#$%&@*@&=-&",
" .+@#$%&@*@&=-&",
" .+@#$%&@*@&=-&",
" .+@#$%&@*@&=-&",
" .+@#$%&@*@&=-&",
" .+@#$%&@*@&=-&",
" .+@#$%&@*@&=-&",
" .+@#$%&@*@&=-&",
" .+@#$%&@*@&=-&",
" .+@#$%&@*@&=-&",
" .+@#$%&@*@&=-&",
" .+@#$%&@*@&=-&",
" .+@#$%&@*@&=-&",
" .+@#$%&@*@&=-&",
" .+@#$%&@*@&=-&",
" .+@#$%&@*@&=-&",
" .+@#$%&@*@&=-&",
" .+@#$%&@*@&=-&",
" .+@#$%&@*@&=-&",
" .+@#$%&@*@&=-&",
" .+@#$%&@*@&=-&",
" .+@#$%&@*@&=-&",
" .+@#$%&@*@&=-&",
" .+@#$%&@*@&=-&",
" .+@#$%&@*@&=-&",
" .+@#$%&@*@&=-&",
" .+@#$%&@*@&=-&",
" .+@#$%&@*@&=-&",
" .+@#$%&@*@&=-&",
" .+@#$%&@*@&=-&",
" .+@#$%&@*@&=-&",
" .+@#$%&@*@&=-&",
" .+@#$%&@*@&=-&",
" .+@#$%&@*@&=-&",
" .+@#$%&@*@&=-&",
" .+@#$%&@*@&=-&",
" .+@#$%&@*@&=-&",
" .+@#$%&@*@&=-&",
" .+@#$%&@*@&=-&",
" .+@#$%&@*@&=-&",
" .+@#$%&@*@&=-&",
" .+@#$%&@*@&=-&",
" .+@#$%&@*@&=-&",
" .+@#$%&@*@&=-&",
" .+@#$%&@*@&=-&",
" .+@#$%&@*@&=-&",
" .+@#$%&@*@&=-&",
" .+@#$%&@*@&=-&",
" .+@#$%&@*@&=-&",
" .+@#$%&@*@&=-&",
" .+@#$%&@*@&=-&",
" .+@#$%&@*@&=-&",
" .+@#$%&@*@&=-&",
" .+@#$%&@*@&=-&",
" .+@#$%&@*@&=-&",
" .+@#$%&@*@&=-&",
" .+@#$%&@*@&=-&",
" .+@#$%&@*@&=-&",
" .+@#$%&@*@&=-&",
" .+@#$%&@*@&=-&",
" .+@#$%&@*@&=-&",
" .+@#$%&@*@&=-&",
" .+@#$%&@*@&=-&",
" .+@#$%&@*@&=-&",
" .+@#$%&@*@&=-&",
" .+@#$%&@*@&=-&",
" .+@#$%&@*@&=-&",
" .+@#$%&@*@&=-&",
" .+@#$%&@*@&=-&",
" .+@#$%&@*@&=-&",
" .+@#$%&@*@&=-&",
" .+@#$%&@*@&=-&",
" .+@#$%&@*@&=-&",
" .+@#$%&@*@&=-&",
" .+@#$%&@*@&=-&",
" .+@#$%&@*@&=-&",
" .+@#$%&@*@&=-&",
" .+@#$%&@*@&=-&",
" .+@#$%&@*@&=-&",
" .+@#$%&@*@&=-&",
" .+@#$%&@*@&=-&",
" .+@#$%&@*@&=-&",
" .+@#$%&@*@&=-&",
" .+@#$%&@*@&=-&",
" .+@#$%&@*@&=-&",
" .+@#$%&@*@&=-&",
" .+@#$%&@*@&=-&",
" .+@#$%&@*@&=-&",
" .+@#$%&@*@&=-&",
" .+@#$%&@*@&=-&",
" .+@#$%&@*@&=-&",
" .+@#$%&@*@&=-&",
" .+@#$%&@*@&=-&",
" .+@#$%&@*@&=-&"};
