/* XPM */
static char * title_4_inactive_xpm[] = {
"28 28 57 1",
" 	c #1A1B1D",
".	c #8F9092",
"+	c #595A5C",
"@	c #040507",
"#	c #5B5C5E",
"$	c #3E3E40",
"%	c #292A2E",
"&	c #050609",
"*	c #3F4044",
"=	c #323234",
"-	c #232428",
";	c #06070B",
">	c #3B3C40",
",	c #2A2A2C",
"'	c #25262A",
")	c #000004",
"!	c #3A3B3F",
"~	c #252527",
"{	c #010206",
"]	c #343539",
"^	c #222224",
"/	c #222327",
"(	c #000105",
"_	c #333438",
":	c #202427",
"<	c #000306",
"[	c #323639",
"}	c #212123",
"|	c #222629",
"1	c #000407",
"2	c #34383B",
"3	c #202022",
"4	c #22252A",
"5	c #000308",
"6	c #34373C",
"7	c #202328",
"8	c #000207",
"9	c #32353A",
"0	c #000106",
"a	c #313439",
"b	c #212429",
"c	c #313538",
"d	c #212528",
"e	c #33373A",
"f	c #212121",
"g	c #222325",
"h	c #010204",
"i	c #333436",
"j	c #1F2022",
"k	c #000002",
"l	c #313234",
"m	c #202020",
"n	c #141414",
"o	c #131512",
"p	c #5D5D5F",
"q	c #2A2A28",
"r	c #1E201F",
"                            ",
"............................",
"+@#$$$$$$$$$$$$$$$$$$$$$$$$$",
"%&*=========================",
"-;>,,,,,,,,,,,,,,,,,,,,,,,,,",
"')!~~~~~~~~~~~~~~~~~~~~~~~~~",
"-{]^^^^^^^^^^^^^^^^^^^^^^^^^",
"/(_^^^^^^^^^^^^^^^^^^^^^^^^^",
":<[}}}}}}}}}}}}}}}}}}}}}}}}}",
"|123333333333333333333333333",
"456}}}}}}}}}}}}}}}}}}}}}}}}}",
"789^^^^^^^^^^^^^^^^^^^^^^^^^",
"70a}}}}}}}}}}}}}}}}}}}}}}}}}",
"b89}}}}}}}}}}}}}}}}}}}}}}}}}",
":<c}}}}}}}}}}}}}}}}}}}}}}}}}",
"d1[}}}}}}}}}}}}}}}}}}}}}}}}}",
":<[}}}}}}}}}}}}}}}}}}}}}}}}}",
":<c^^^^^^^^^^^^^^^^^^^^^^^^^",
":<[}}}}}}}}}}}}}}}}}}}}}}}}}",
"d1efffffffffffffffffffffffff",
"ghifffffffffffffffffffffffff",
"jklmmmmmmmmmmmmmmmmmmmmmmmmm",
"nnnnnnnnnnnnnnnnnnnnnnnnnnnn",
"nnnnnnnnnnnnnnnnnnnnnnnnnnnn",
"oooooooooooooooooooooooooooo",
"pppppppppppppppppppppppppppp",
"qqqqqqqqqqqqqqqqqqqqqqqqqqqq",
"rrrrrrrrrrrrrrrrrrrrrrrrrrrr"};
