/* XPM */
static char * title_1_active_xpm[] = {
"1 28 17 1",
" 	c None",
".	c #1A1B1D",
"+	c #8F9092",
"@	c #3E3E40",
"#	c #323234",
"$	c #2A2A2C",
"%	c #252527",
"&	c #222224",
"*	c #212123",
"=	c #202022",
"-	c #212121",
";	c #202020",
">	c #141414",
",	c #131512",
"'	c #5D5D5F",
")	c #2A2A28",
"!	c #1E201F",
".",
"+",
"@",
"#",
"$",
"%",
"&",
"&",
"*",
"=",
"*",
"&",
"*",
"*",
"*",
"*",
"*",
"&",
"*",
"-",
"-",
";",
">",
">",
",",
"'",
")",
"!"};
