/* XPM */
static char * title_2_active_xpm[] = {
"28 28 57 1",
" 	c #1A1B1D",
".	c #1BACD3",
"+	c #8F9092",
"@	c #3E3E40",
"#	c #323234",
"$	c #3F4044",
"%	c #117EA4",
"&	c #292A2E",
"*	c #2A2A2C",
"=	c #3B3C40",
"-	c #117FA6",
";	c #232428",
">	c #252527",
",	c #3A3B3F",
"'	c #11799F",
")	c #25262A",
"!	c #222224",
"~	c #343539",
"{	c #0F749B",
"]	c #333438",
"^	c #222327",
"/	c #212123",
"(	c #323639",
"_	c #0F749A",
":	c #202427",
"<	c #202022",
"[	c #34383B",
"}	c #11779E",
"|	c #222629",
"1	c #34373C",
"2	c #22252A",
"3	c #32353A",
"4	c #0F739A",
"5	c #202328",
"6	c #313439",
"7	c #0F6E94",
"8	c #0F6F96",
"9	c #212429",
"0	c #313538",
"a	c #0F7094",
"b	c #0F7298",
"c	c #212528",
"d	c #0F7299",
"e	c #0F739B",
"f	c #212121",
"g	c #0F7399",
"h	c #33373A",
"i	c #0F6F94",
"j	c #202020",
"k	c #333436",
"l	c #0D688C",
"m	c #222325",
"n	c #141414",
"o	c #131512",
"p	c #5D5D5F",
"q	c #2A2A28",
"r	c #1E201F",
"                         ...",
"++++++++++++++++++++++++++.+",
"@@@@@@@@@@@@@@@@@@@@@@@@@@.@",
"#########################$%&",
"*************************=-;",
">>>>>>>>>>>>>>>>>>>>>>>>>,')",
"!!!!!!!!!!!!!!!!!!!!!!!!!~{;",
"!!!!!!!!!!!!!!!!!!!!!!!!!]{^",
"/////////////////////////(_:",
"<<<<<<<<<<<<<<<<<<<<<<<<<[}|",
"/////////////////////////1}2",
"!!!!!!!!!!!!!!!!!!!!!!!!!345",
"/////////////////////////675",
"/////////////////////////389",
"/////////////////////////0a:",
"/////////////////////////(bc",
"/////////////////////////(bc",
"!!!!!!!!!!!!!!!!!!!!!!!!!(d:",
"/////////////////////////0e:",
"fffffffffffffffffffffffff(g:",
"fffffffffffffffffffffffffhic",
"jjjjjjjjjjjjjjjjjjjjjjjjjklm",
"nnnnnnnnnnnnnnnnnnnnnnnnnnnn",
"nnnnnnnnnnnnnnnnnnnnnnnnnnnn",
"oooooooooooooooooooooooooooo",
"pppppppppppppppppppppppppppp",
"qqqqqqqqqqqqqqqqqqqqqqqqqqqq",
"rrrrrrrrrrrrrrrrrrrrrrrrrrrr"};
