/* XPM */
static char * title_2_inactive_xpm[] = {
"28 28 57 1",
" 	c #1A1B1D",
".	c #8F9092",
"+	c #3E3E40",
"@	c #5B5C5E",
"#	c #040507",
"$	c #595A5C",
"%	c #323234",
"&	c #3F4044",
"*	c #050609",
"=	c #292A2E",
"-	c #2A2A2C",
";	c #3B3C40",
">	c #06070B",
",	c #232428",
"'	c #252527",
")	c #3A3B3F",
"!	c #000004",
"~	c #25262A",
"{	c #222224",
"]	c #343539",
"^	c #010206",
"/	c #333438",
"(	c #000105",
"_	c #222327",
":	c #212123",
"<	c #323639",
"[	c #000306",
"}	c #202427",
"|	c #202022",
"1	c #34383B",
"2	c #000407",
"3	c #222629",
"4	c #34373C",
"5	c #000308",
"6	c #22252A",
"7	c #32353A",
"8	c #000207",
"9	c #202328",
"0	c #313439",
"a	c #000106",
"b	c #212429",
"c	c #313538",
"d	c #212528",
"e	c #212121",
"f	c #33373A",
"g	c #333436",
"h	c #010204",
"i	c #222325",
"j	c #202020",
"k	c #313234",
"l	c #000002",
"m	c #1F2022",
"n	c #141414",
"o	c #131512",
"p	c #5D5D5F",
"q	c #2A2A28",
"r	c #1E201F",
"                            ",
"............................",
"+++++++++++++++++++++++++@#$",
"%%%%%%%%%%%%%%%%%%%%%%%%%&*=",
"-------------------------;>,",
"''''''''''''''''''''''''')!~",
"{{{{{{{{{{{{{{{{{{{{{{{{{]^,",
"{{{{{{{{{{{{{{{{{{{{{{{{{/(_",
":::::::::::::::::::::::::<[}",
"|||||||||||||||||||||||||123",
":::::::::::::::::::::::::456",
"{{{{{{{{{{{{{{{{{{{{{{{{{789",
":::::::::::::::::::::::::0a9",
":::::::::::::::::::::::::78b",
":::::::::::::::::::::::::c[}",
":::::::::::::::::::::::::<2d",
":::::::::::::::::::::::::<[}",
"{{{{{{{{{{{{{{{{{{{{{{{{{c[}",
":::::::::::::::::::::::::<[}",
"eeeeeeeeeeeeeeeeeeeeeeeeef2d",
"eeeeeeeeeeeeeeeeeeeeeeeeeghi",
"jjjjjjjjjjjjjjjjjjjjjjjjjklm",
"nnnnnnnnnnnnnnnnnnnnnnnnnnnn",
"nnnnnnnnnnnnnnnnnnnnnnnnnnnn",
"oooooooooooooooooooooooooooo",
"pppppppppppppppppppppppppppp",
"qqqqqqqqqqqqqqqqqqqqqqqqqqqq",
"rrrrrrrrrrrrrrrrrrrrrrrrrrrr"};
