/* XPM */
static char * title_4_active_xpm[] = {
"28 28 57 1",
" 	c #1BACD3",
".	c #1A1B1D",
"+	c #8F9092",
"@	c #3E3E40",
"#	c #292A2E",
"$	c #117EA4",
"%	c #3F4044",
"&	c #323234",
"*	c #232428",
"=	c #117FA6",
"-	c #3B3C40",
";	c #2A2A2C",
">	c #25262A",
",	c #11799F",
"'	c #3A3B3F",
")	c #252527",
"!	c #0F749B",
"~	c #343539",
"{	c #222224",
"]	c #222327",
"^	c #333438",
"/	c #202427",
"(	c #0F749A",
"_	c #323639",
":	c #212123",
"<	c #222629",
"[	c #11779E",
"}	c #34383B",
"|	c #202022",
"1	c #22252A",
"2	c #34373C",
"3	c #202328",
"4	c #0F739A",
"5	c #32353A",
"6	c #0F6E94",
"7	c #313439",
"8	c #212429",
"9	c #0F6F96",
"0	c #0F7094",
"a	c #313538",
"b	c #212528",
"c	c #0F7298",
"d	c #0F7299",
"e	c #0F739B",
"f	c #0F7399",
"g	c #212121",
"h	c #0F6F94",
"i	c #33373A",
"j	c #222325",
"k	c #0D688C",
"l	c #333436",
"m	c #202020",
"n	c #141414",
"o	c #131512",
"p	c #5D5D5F",
"q	c #2A2A28",
"r	c #1E201F",
"   .........................",
"+ ++++++++++++++++++++++++++",
"@ @@@@@@@@@@@@@@@@@@@@@@@@@@",
"#$%&&&&&&&&&&&&&&&&&&&&&&&&&",
"*=-;;;;;;;;;;;;;;;;;;;;;;;;;",
">,')))))))))))))))))))))))))",
"*!~{{{{{{{{{{{{{{{{{{{{{{{{{",
"]!^{{{{{{{{{{{{{{{{{{{{{{{{{",
"/(_:::::::::::::::::::::::::",
"<[}|||||||||||||||||||||||||",
"1[2:::::::::::::::::::::::::",
"345{{{{{{{{{{{{{{{{{{{{{{{{{",
"367:::::::::::::::::::::::::",
"895:::::::::::::::::::::::::",
"/0a:::::::::::::::::::::::::",
"bc_:::::::::::::::::::::::::",
"bc_:::::::::::::::::::::::::",
"/d_{{{{{{{{{{{{{{{{{{{{{{{{{",
"/ea:::::::::::::::::::::::::",
"/f_ggggggggggggggggggggggggg",
"bhiggggggggggggggggggggggggg",
"jklmmmmmmmmmmmmmmmmmmmmmmmmm",
"nnnnnnnnnnnnnnnnnnnnnnnnnnnn",
"nnnnnnnnnnnnnnnnnnnnnnnnnnnn",
"oooooooooooooooooooooooooooo",
"pppppppppppppppppppppppppppp",
"qqqqqqqqqqqqqqqqqqqqqqqqqqqq",
"rrrrrrrrrrrrrrrrrrrrrrrrrrrr"};
