/* XPM */
static char * top_right_inactive_xpm[] = {
"19 72 235 2",
"  	c None",
". 	c #0E0E0E",
"+ 	c #101010",
"@ 	c #0C0C0C",
"# 	c #060606",
"$ 	c #0C0C0E",
"% 	c #18181A",
"& 	c #1A1A1A",
"* 	c #202020",
"= 	c #262626",
"- 	c #313234",
"; 	c #34383B",
"> 	c #8F8F8F",
", 	c #919191",
"' 	c #8F8F91",
") 	c #929294",
"! 	c #878787",
"~ 	c #636363",
"{ 	c #393B3A",
"] 	c #202123",
"^ 	c #212226",
"/ 	c #313439",
"( 	c #3E3E3E",
"_ 	c #3D3D3D",
": 	c #3E3E40",
"< 	c #3F3F41",
"[ 	c #3F4042",
"} 	c #4A4B4D",
"| 	c #505455",
"1 	c #464A4D",
"2 	c #2C2D31",
"3 	c #1B1C20",
"4 	c #292D30",
"5 	c #343436",
"6 	c #323234",
"7 	c #323335",
"8 	c #313236",
"9 	c #2E3336",
"0 	c #2C3134",
"a 	c #424649",
"b 	c #191D20",
"c 	c #2F3336",
"d 	c #2A2A2C",
"e 	c #2A2B2D",
"f 	c #2B2C30",
"g 	c #2C2F34",
"h 	c #272E34",
"i 	c #242D32",
"j 	c #303539",
"k 	c #3C3F44",
"l 	c #212528",
"m 	c #242426",
"n 	c #242527",
"o 	c #252628",
"p 	c #25282D",
"q 	c #20272D",
"r 	c #202A33",
"s 	c #212E37",
"t 	c #222C35",
"u 	c #22292F",
"v 	c #383B40",
"w 	c #4C4D51",
"x 	c #1E2225",
"y 	c #2D3134",
"z 	c #222224",
"A 	c #222325",
"B 	c #222327",
"C 	c #23282E",
"D 	c #202930",
"E 	c #24353F",
"F 	c #22333D",
"G 	c #283138",
"H 	c #32373D",
"I 	c #535458",
"J 	c #3A3B3F",
"K 	c #23272A",
"L 	c #212224",
"M 	c #232428",
"N 	c #20272F",
"O 	c #1F2932",
"P 	c #293742",
"Q 	c #6C7E8C",
"R 	c #344654",
"S 	c #26343F",
"T 	c #252F38",
"U 	c #2B323A",
"V 	c #424347",
"W 	c #5B5C60",
"X 	c #1D1E22",
"Y 	c #202221",
"Z 	c #1F262E",
"` 	c #283641",
" .	c #334553",
"..	c #314351",
"+.	c #242B33",
"@.	c #303135",
"#.	c #626367",
"$.	c #1F2022",
"%.	c #202125",
"&.	c #1F242A",
"*.	c #1E2730",
"=.	c #233340",
"-.	c #22323F",
";.	c #202D36",
">.	c #1F2831",
",.	c #2C2D2F",
"'.	c #5F6064",
").	c #1A1B1F",
"!.	c #212322",
"~.	c #202328",
"{.	c #21262C",
"].	c #202932",
"^.	c #1D2A33",
"/.	c #22272D",
"(.	c #23262B",
"_.	c #606163",
":.	c #1A1B1D",
"<.	c #222222",
"[.	c #20252B",
"}.	c #212429",
"|.	c #28292B",
"1.	c #5E5F61",
"2.	c #191A1C",
"3.	c #242424",
"4.	c #1F1F1F",
"5.	c #202022",
"6.	c #232325",
"7.	c #1F2326",
"8.	c #22252A",
"9.	c #202427",
"0.	c #2D2D2F",
"a.	c #616264",
"b.	c #18191B",
"c.	c #232323",
"d.	c #212121",
"e.	c #212123",
"f.	c #232426",
"g.	c #292929",
"h.	c #616163",
"i.	c #161618",
"j.	c #2C2C2C",
"k.	c #5D5D5D",
"l.	c #030303",
"m.	c #222023",
"n.	c #2A2A2A",
"o.	c #5F5F5F",
"p.	c #070707",
"q.	c #1F1F21",
"r.	c #626262",
"s.	c #0D0D0F",
"t.	c #616161",
"u.	c #0E0E10",
"v.	c #606060",
"w.	c #2D2D2D",
"x.	c #5B5B5B",
"y.	c #040406",
"z.	c #141414",
"A.	c #252527",
"B.	c #1A1A1C",
"C.	c #151517",
"D.	c #2B2B2B",
"E.	c #19191B",
"F.	c #171717",
"G.	c #131313",
"H.	c #121212",
"I.	c #151515",
"J.	c #2F2F2F",
"K.	c #5F6062",
"L.	c #4F4F4F",
"M.	c #191919",
"N.	c #323232",
"O.	c #17181A",
"P.	c #1D1D1D",
"Q.	c #555555",
"R.	c #1B1B1B",
"S.	c #5A5A5A",
"T.	c #303030",
"U.	c #1E1E1E",
"V.	c #252525",
"W.	c #1B1C1E",
"X.	c #1C1C1C",
"Y.	c #595959",
"Z.	c #313131",
"`.	c #131315",
" +	c #585858",
".+	c #161616",
"++	c #09090B",
"@+	c #0B0B0B",
"#+	c #121214",
"$+	c #69696B",
"%+	c #0F0F0F",
"&+	c #5E5E60",
"*+	c #161719",
"=+	c #333333",
"-+	c #353535",
";+	c #29292B",
">+	c #606062",
",+	c #181818",
"'+	c #080808",
")+	c #0C0E0D",
"!+	c #555557",
"~+	c #575757",
"{+	c #111111",
"]+	c #0D0D0D",
"^+	c #2E302F",
"/+	c #0A0A0A",
"(+	c #1F2120",
"_+	c #0F0F11",
":+	c #343434",
"<+	c #222423",
"[+	c #2E2E2E",
"}+	c #111113",
"|+	c #6B6B6D",
"1+	c #151618",
"2+	c #1C1E1D",
"3+	c #373739",
"4+	c #626264",
"5+	c #2B2B2D",
"6+	c #636365",
"7+	c #131416",
"8+	c #5C5C5C",
"9+	c #070908",
"0+	c #090909",
"a+	c #141517",
"b+	c #121315",
"c+	c #0B0D0C",
"d+	c #2D2F2E",
"e+	c #1B1D1C",
"f+	c #2C2C2E",
"g+	c #141416",
"h+	c #676769",
"i+	c #3B3B3D",
"j+	c #363636",
"k+	c #040404",
"l+	c #5B5B5D",
". + . + . + @ # $ % & * = - ;         ",
"> , > , > , , > ' ) ! ~ { ] ^ /       ",
"( _ ( _ ( _ : < : < [ } | 1 2 3 4     ",
"5 6 5 6 5 6 6 7 6 8 ; 9 0 ; a 8 b c   ",
"d d d d d d e e f g h i i h j k 4 l   ",
"m n m n m n o o p q r s s t u v w x y ",
"z A z A z A B B C D s E F s G H I J K ",
"z L z L z L B M N O P Q R S T U V W X ",
"Y L Y L Y L ^ ^ Z O `  ...S r +.@.#.3 ",
"Y $.Y $.Y $.%.M &.*.s =.-.;.>.C ,.'.).",
"!.] !.] !.] ^ ^ ~.{.].^.^.]./.(.,._.:.",
"<.] <.] <.] A B B ~.[.N N {.}.M |.1.2.",
"3.4.3.4.3.4.5.6.m L 7.}.8.9.A m 0.a.b.",
"c.d.c.d.c.d.5.e.<.z A B B f.m c.g.h.i.",
"4.d.4.d.4.d.e.z 4.d.z e.z z <.<.j.k.l.",
"d.d.d.d.d.d.4.z d.d.e.m.m.e.<.3.n.o.p.",
"m 5.m 5.m 5.q.5.q.e.5.z z 6.e.6.n.r.s.",
"q.5.q.5.q.5.e.6.z 6.e.z e.6.z 6.g.t.u.",
"e.e.e.e.e.e.e.e.e.z e.z 5.6.6.z n.v.u.",
"<.d.<.d.<.d.d.* q.5.e.6.5.z z 6.j.o.s.",
"d.d.d.d.d.d.d.d.z e.5.6.e.z z m w.x.y.",
"* * * * * * * * m m 5.e.e.6.z m g.~ q.",
"z.z.z.z.z.z.z.z.q.A.6.e.e.m e.m g.v.B.",
"z.z.z.z.z.z.z.z.C.m A.z e.6.5.m D.v.E.",
"F.G.F.G.F.G.H.I.z.I.J.<.d.<.<.<.n.K.2.",
"L.D.L.D.L.D.M.G.z.I.J.<.d.<.<.c.n.K.2.",
"= 4.= 4.= 4.N.z.z.I.J.<.d.<.<.c.n.K.2.",
"O.P.O.P.O.P.Q.I.z.I.J.<.d.<.<.c.n.K.2.",
"        R.& S.z.z.H.T.* U.V.<.3.m C.W.",
"        X.R.Y.H.z.z.Z.<.<.<.d.d.$ `.O.",
"        X.&  +H..+z.Z.<.* c.* @ ++6.O.",
"        X.M.Y.I..+G.J.* <.* @+p.#+$+W.",
"        X.M.S.I.z.G.N.3.U.. p.%+: &+*+",
"        P.M.S.z.G.z.=+U.. # . -+;+>+b.",
"        X.,+S.z.G.I.w.%+'+@+=+c.;+>+2.",
"        X.& Y.z.G.z.+ p.)+Z.c.d.0.!+O.",
"        X.& ~+F.z.{+]+]+^+d.d.3.6.E.2.",
"        P.M.Y.H..+& /+D.(+<.c.<.s._+O.",
"        P.,+x.G.G.G.:+c.<+c.X./+++z :.",
"        P.,+~+.+z..+[+* Y 4.]+/+}+|+1+",
"        & X.x.{+z.z.T.c.2+@ # H.3+4+b.",
"        X.R.~+I.G.G.J.3.)+p.%+-+5+6+7+",
"        P.F.8+{+F.z.T.@+9+@+Z.<.d &+:.",
"        X.& Y.z.G.z.+ p.@ Z.<.d.0.!+*+",
"        X.& ~+F.z.{+]+]+[+d.d.3.6.E.b.",
"        P.M.Y.H..+& /+D.* c.c.<.s._+O.",
"        P.,+x.G.G.G.:+c.<.3.X.0+++z 2.",
"        P.,+~+.+z..+[+* d.* ]+/+#+|+a+",
"        & X.x.{+z.z.T.c.P.]+# {+3+4+O.",
"        X.R.~+I.G.G.J.3.]+'+%+-+5+6+b+",
"        P.F.8+{+F.z.T.@+0+@ Z.<.d &+2.",
"        X.& Y.z.G.z.+ p.c+Z.c.d.0.!+*+",
"        X.& ~+F.z.{+]+]+d+d.d.3.6.E.b.",
"        P.M.Y.H..+& /+D.(+c.c.<.s._+*+",
"        P.,+x.G.G.G.:+c.!.c.X.0+++z 2.",
"        P.,+~+.+z..+[+* Y * ]+/+#+|+a+",
"        & X.x.{+z.z.T.c.e+]+# {+3+4+O.",
"        X.R.~+I.G.G.J.3.)+'+. -+5+6+b+",
"        P.F.8+{+F.z.T.@+9+@ Z.<.d &+2.",
"        P.M.x.{+F.I.+ 0+]+T.<.<.f+h.1+",
"        & R.S..+{++ @+/+w.3.<.c.;+!+b.",
"        U.& Q.I..+R.0+[+<.<.<.4.;+`.b.",
"        & X.S.G.G.z.:+c.d.c.d.<.$ g+*+",
"        X.R.Y.z.G.z.Z.4.<.<.<.'+++z 7+",
"        U.M.x.{+I.{+:+c.* 4.@+/+`.h+:.",
"        R.& Y.I.G.I.T.<.d.@+'+. i+>+a+",
"        X.& x.+ .+z.T.* @+0+]+j+d >+1+",
"        R.& x.H.z..+j.+ p.@ T.3.d 4+a+",
"        X.R. +I.G.z.z.k+]+j+d.3.;+4+1+",
"        X.& x.G.z.{+/++ w.* * 3.0.&+*+",
"        P.M. +z..+,+/+[+<.c.c.* 0.l+b.",
"        X.& S.z.G.G.:+d.* * 3.V.;+>+a+"};
