/* XPM */
static char * top_right_active_xpm[] = {
"19 72 594 2",
"  	c None",
". 	c #0E0E0E",
"+ 	c #101010",
"@ 	c #0C0C0C",
"# 	c #060606",
"$ 	c #0C0C0E",
"% 	c #18181A",
"& 	c #1A1A1A",
"* 	c #202020",
"= 	c #262626",
"- 	c #313234",
"; 	c #8F8F8F",
"> 	c #919191",
", 	c #8F8F91",
"' 	c #929294",
") 	c #878787",
"! 	c #636363",
"~ 	c #393B3A",
"{ 	c #202123",
"] 	c #212226",
"^ 	c #313439",
"/ 	c #3E3E3E",
"( 	c #3D3D3D",
"_ 	c #3E3E40",
": 	c #3F3F41",
"< 	c #3F4042",
"[ 	c #4A4B4D",
"} 	c #505455",
"| 	c #464A4D",
"1 	c #2C2D31",
"2 	c #1B1C20",
"3 	c #292D30",
"4 	c #343436",
"5 	c #323234",
"6 	c #323335",
"7 	c #313236",
"8 	c #34383B",
"9 	c #2E3336",
"0 	c #2C3134",
"a 	c #424649",
"b 	c #191D20",
"c 	c #2F3336",
"d 	c #2A2A2C",
"e 	c #2A2B2D",
"f 	c #2B2C30",
"g 	c #2C2F34",
"h 	c #272E34",
"i 	c #242D32",
"j 	c #303539",
"k 	c #3C3F44",
"l 	c #212528",
"m 	c #242426",
"n 	c #242527",
"o 	c #252628",
"p 	c #25282D",
"q 	c #20272D",
"r 	c #202A33",
"s 	c #212E37",
"t 	c #222C35",
"u 	c #22292F",
"v 	c #383B40",
"w 	c #4C4D51",
"x 	c #1E2225",
"y 	c #2D3134",
"z 	c #222224",
"A 	c #222325",
"B 	c #222327",
"C 	c #23282E",
"D 	c #202930",
"E 	c #24353F",
"F 	c #22333D",
"G 	c #283138",
"H 	c #32373D",
"I 	c #535458",
"J 	c #3A3B3F",
"K 	c #23272A",
"L 	c #212224",
"M 	c #232428",
"N 	c #20272F",
"O 	c #1F2932",
"P 	c #293742",
"Q 	c #6C7E8C",
"R 	c #344654",
"S 	c #26343F",
"T 	c #252F38",
"U 	c #2B323A",
"V 	c #424347",
"W 	c #5B5C60",
"X 	c #1D1E22",
"Y 	c #202221",
"Z 	c #1F262E",
"` 	c #283641",
" .	c #334553",
"..	c #314351",
"+.	c #242B33",
"@.	c #303135",
"#.	c #626367",
"$.	c #1F2022",
"%.	c #202125",
"&.	c #1F242A",
"*.	c #1E2730",
"=.	c #233340",
"-.	c #22323F",
";.	c #202D36",
">.	c #1F2831",
",.	c #2C2D2F",
"'.	c #5F6064",
").	c #1A1B1F",
"!.	c #212322",
"~.	c #202328",
"{.	c #21262C",
"].	c #202932",
"^.	c #1D2A33",
"/.	c #22272D",
"(.	c #23262B",
"_.	c #606163",
":.	c #1A1B1D",
"<.	c #222222",
"[.	c #20252B",
"}.	c #212429",
"|.	c #28292B",
"1.	c #5E5F61",
"2.	c #191A1C",
"3.	c #242424",
"4.	c #1F1F1F",
"5.	c #202022",
"6.	c #232325",
"7.	c #1F2326",
"8.	c #22252A",
"9.	c #202427",
"0.	c #2D2D2F",
"a.	c #616264",
"b.	c #18191B",
"c.	c #232323",
"d.	c #212121",
"e.	c #212123",
"f.	c #232426",
"g.	c #292929",
"h.	c #616163",
"i.	c #161618",
"j.	c #2C2C2C",
"k.	c #5D5D5D",
"l.	c #030303",
"m.	c #222023",
"n.	c #2A2A2A",
"o.	c #5F5F5F",
"p.	c #070707",
"q.	c #1F1F21",
"r.	c #626262",
"s.	c #0D0D0F",
"t.	c #616161",
"u.	c #0E0E10",
"v.	c #606060",
"w.	c #2D2D2D",
"x.	c #5B5B5B",
"y.	c #040406",
"z.	c #141414",
"A.	c #252527",
"B.	c #1A1A1C",
"C.	c #151517",
"D.	c #2B2B2B",
"E.	c #19191B",
"F.	c #171717",
"G.	c #131313",
"H.	c #121212",
"I.	c #151515",
"J.	c #2F2F2F",
"K.	c #5F6062",
"L.	c #4F4F4F",
"M.	c #191919",
"N.	c #323232",
"O.	c #17181A",
"P.	c #1D1D1D",
"Q.	c #555555",
"R.	c #1C1C1C",
"S.	c #1B1B1B",
"T.	c #595959",
"U.	c #303030",
"V.	c #252726",
"W.	c #151716",
"X.	c #0D0F0E",
"Y.	c #575757",
"Z.	c #161616",
"`.	c #0A0C0B",
" +	c #0B0B0B",
".+	c #0D0D0D",
"++	c #0F0F11",
"@+	c #5A5A5A",
"#+	c #313131",
"$+	c #211F20",
"%+	c #0E0C0D",
"&+	c #060608",
"*+	c #131315",
"=+	c #666668",
"-+	c #111113",
";+	c #252525",
">+	c #1F1D1E",
",+	c #0F0D0E",
"'+	c #101012",
")+	c #3D3D3F",
"!+	c #0B0C0E",
"~+	c #353535",
"{+	c #1E1E1E",
"]+	c #080808",
"^+	c #333436",
"/+	c #292A2C",
"(+	c #5D5E60",
"_+	c #080C0D",
":+	c #111111",
"<+	c #090909",
"[+	c #0B0D0C",
"}+	c #2D2F2E",
"|+	c #292D2E",
"1+	c #606465",
"2+	c #0B0F12",
"3+	c #5C5C5C",
"4+	c #090B0A",
"5+	c #323433",
"6+	c #262A2B",
"7+	c #2B2F30",
"8+	c #4A5050",
"9+	c #0D1215",
"0+	c #191D1C",
"a+	c #1A1B13",
"b+	c #585C5B",
"c+	c #15121B",
"d+	c #141215",
"e+	c #121413",
"f+	c #0A0A0C",
"g+	c #080E0A",
"h+	c #312C30",
"i+	c #272320",
"j+	c #1E2420",
"k+	c #223136",
"l+	c #1F2E2B",
"m+	c #0F2E43",
"n+	c #081C1D",
"o+	c #1D1D1F",
"p+	c #1A191E",
"q+	c #5D565E",
"r+	c #141217",
"s+	c #101511",
"t+	c #1B1A18",
"u+	c #110B0F",
"v+	c #201E2B",
"w+	c #1D242A",
"x+	c #1D3036",
"y+	c #173130",
"z+	c #042B3C",
"A+	c #0393D2",
"B+	c #071A1E",
"C+	c #1D1916",
"D+	c #181914",
"E+	c #595B58",
"F+	c #121210",
"G+	c #171314",
"H+	c #2D3331",
"I+	c #1C2723",
"J+	c #222627",
"K+	c #252E33",
"L+	c #1D2D3A",
"M+	c #00263D",
"N+	c #009EE5",
"O+	c #119DDB",
"P+	c #001D22",
"Q+	c #1E1D23",
"R+	c #1B1714",
"S+	c #151316",
"T+	c #161513",
"U+	c #131510",
"V+	c #373131",
"W+	c #292728",
"X+	c #1E2D30",
"Y+	c #152B38",
"Z+	c #00262E",
"`+	c #0095DC",
" @	c #0FA3EB",
".@	c #558090",
"+@	c #0E2825",
"@@	c #1C1D21",
"#@	c #151A14",
"$@	c #5B5C5E",
"%@	c #131217",
"&@	c #14170E",
"*@	c #161415",
"=@	c #33313F",
"-@	c #182A34",
";@	c #192C30",
">@	c #002830",
",@	c #0295DB",
"'@	c #04A5ED",
")@	c #336B7A",
"!@	c #467676",
"~@	c #142B33",
"{@	c #1A1B16",
"]@	c #181F17",
"^@	c #565B55",
"/@	c #151712",
"(@	c #130F0E",
"_@	c #191923",
":@	c #253940",
"<@	c #1D3330",
"[@	c #04222C",
"}@	c #0192D3",
"|@	c #01A9F2",
"1@	c #2D6983",
"2@	c #1A4F61",
"3@	c #537078",
"4@	c #142632",
"5@	c #1D1C21",
"6@	c #201A1E",
"7@	c #545651",
"8@	c #171312",
"9@	c #16161E",
"0@	c #101E1E",
"a@	c #293938",
"b@	c #05212C",
"c@	c #018DCA",
"d@	c #0AA6F1",
"e@	c #276A87",
"f@	c #204B5C",
"g@	c #273B42",
"h@	c #5B666A",
"i@	c #141A16",
"j@	c #1D181E",
"k@	c #535E56",
"l@	c #1A1018",
"m@	c #111B25",
"n@	c #12251F",
"o@	c #0D2237",
"p@	c #0089C1",
"q@	c #02A8F6",
"r@	c #237290",
"s@	c #1E4A55",
"t@	c #1A3B4A",
"u@	c #2C3638",
"v@	c #535756",
"w@	c #151A20",
"x@	c #201C1D",
"y@	c #1B1B1D",
"z@	c #575C55",
"A@	c #0F1217",
"B@	c #141F1B",
"C@	c #0E272E",
"D@	c #0081BF",
"E@	c #04ACF7",
"F@	c #287088",
"G@	c #194E60",
"H@	c #1F3A45",
"I@	c #25292A",
"J@	c #151618",
"K@	c #161719",
"L@	c #1C1A1D",
"M@	c #1C171B",
"N@	c #535A53",
"O@	c #191411",
"P@	c #0F1E17",
"Q@	c #1F3239",
"R@	c #0EA8FE",
"S@	c #1E7088",
"T@	c #174A5D",
"U@	c #153947",
"V@	c #1F2E35",
"W@	c #25262A",
"X@	c #09090B",
"Y@	c #141416",
"Z@	c #18171C",
"`@	c #1E1915",
" #	c #5A5859",
".#	c #131512",
"+#	c #131D1F",
"@#	c #0E2C34",
"##	c #2A739C",
"$#	c #1B4B59",
"%#	c #213D48",
"&#	c #1E3138",
"*#	c #1B2023",
"=#	c #17181D",
"-#	c #1B1D18",
";#	c #1D1F1E",
">#	c #59575C",
",#	c #10131A",
"'#	c #102329",
")#	c #2C4349",
"!#	c #183640",
"~#	c #1D2C2F",
"{#	c #1A2426",
"]#	c #0C100F",
"^#	c #050503",
"/#	c #121411",
"(#	c #646867",
"_#	c #14181B",
":#	c #1A1F1B",
"<#	c #171B1C",
"[#	c #5E575E",
"}#	c #13131B",
"|#	c #172122",
"1#	c #2C3941",
"2#	c #262B2E",
"3#	c #1E2326",
"4#	c #090D0E",
"5#	c #10100E",
"6#	c #3B3D38",
"7#	c #60625F",
"8#	c #131514",
"9#	c #1B1C1E",
"0#	c #161817",
"a#	c #61585B",
"b#	c #141611",
"c#	c #0D141E",
"d#	c #0E1915",
"e#	c #363233",
"f#	c #1E2329",
"g#	c #09070A",
"h#	c #100E11",
"i#	c #343233",
"j#	c #2B2A28",
"k#	c #61605E",
"l#	c #1B191A",
"m#	c #1F1B1A",
"n#	c #1C1B20",
"o#	c #565656",
"p#	c #12171A",
"q#	c #13140E",
"r#	c #14130F",
"s#	c #2A3137",
"t#	c #0E0C0F",
"u#	c #080705",
"v#	c #313035",
"w#	c #26252A",
"x#	c #2C2C2E",
"y#	c #606261",
"z#	c #1B1D1C",
"A#	c #1C1B17",
"B#	c #5A5655",
"C#	c #141517",
"D#	c #1A120F",
"E#	c #141615",
"F#	c #050706",
"G#	c #0C0F08",
"H#	c #303231",
"I#	c #1F2227",
"J#	c #22272B",
"K#	c #4B5453",
"L#	c #131E20",
"M#	c #2F2D30",
"N#	c #282421",
"O#	c #202924",
"P#	c #1E2D32",
"Q#	c #222E2C",
"R#	c #102526",
"S#	c #20202A",
"T#	c #1E282A",
"U#	c #1A2D33",
"V#	c #193332",
"W#	c #02293A",
"X#	c #0595D4",
"Y#	c #172C2F",
"Z#	c #202624",
"`#	c #222D2F",
" $	c #1E2F39",
".$	c #00253C",
"+$	c #009FE6",
"@$	c #0E9AD8",
"#$	c #102F34",
"$$	c #1C2E30",
"%$	c #162E3A",
"&$	c #0299E0",
"*$	c #0DA1E9",
"=$	c #588695",
"-$	c #142E2D",
";$	c #0093D9",
">$	c #03A4EC",
",$	c #326A79",
"'$	c #4A7A7A",
")$	c #0E252D",
"!$	c #06222E",
"~$	c #0091D2",
"{$	c #00A7F0",
"]$	c #2E6C85",
"^$	c #10202D",
"/$	c #028CCA",
"($	c #08A1ED",
"_$	c #296C89",
":$	c #1C4758",
"<$	c #283F45",
"[$	c #586367",
"}$	c #151A16",
"|$	c #04A6F7",
"1$	c #277492",
"2$	c #1D4954",
"3$	c #193D4B",
"4$	c #2A3436",
"5$	c #606463",
"6$	c #14171C",
"7$	c #1D181C",
"8$	c #535852",
"9$	c #13161F",
"0$	c #121D17",
"a$	c #112A31",
"b$	c #0081C2",
"c$	c #02AAF5",
"d$	c #277289",
"e$	c #144C5D",
"f$	c #1D3945",
"g$	c #253036",
"h$	c #2A2D32",
"i$	c #515558",
"j$	c #1F1D20",
"k$	c #575E57",
"l$	c #17120F",
"m$	c #12211A",
"n$	c #1A2D34",
"o$	c #0AA5F8",
"p$	c #267792",
"q$	c #154D5C",
"r$	c #193F4C",
"s$	c #1C2F36",
"t$	c #212629",
"u$	c #141819",
"v$	c #1B1515",
"w$	c #5D5B5C",
"x$	c #12150E",
"y$	c #121B22",
"z$	c #2B759A",
"A$	c #164555",
"B$	c #203D45",
"C$	c #1B2E34",
"D$	c #23282B",
"E$	c #222220",
"F$	c #0A0A08",
"G$	c #1B1E17",
"H$	c #5A585D",
"I$	c #111419",
"J$	c #12252B",
"K$	c #2C4448",
"L$	c #193741",
"M$	c #232C33",
"N$	c #0C0807",
"O$	c #232524",
"P$	c #131416",
"Q$	c #171B1A",
"R$	c #5D565D",
"S$	c #171216",
"T$	c #131D1C",
"U$	c #2C3942",
"V$	c #262C2C",
"W$	c #1D1E23",
"X$	c #141412",
"Y$	c #686A69",
"Z$	c #1B1C21",
"`$	c #191B16",
" %	c #60575C",
".%	c #0E151D",
"+%	c #0D1812",
"@%	c #363137",
"#%	c #1F2428",
"$%	c #1F2024",
"%%	c #0C0D12",
"&%	c #090A0E",
"*%	c #111214",
"=%	c #3B3D3C",
"-%	c #5C5E5B",
";%	c #171719",
">%	c #101519",
",%	c #12130D",
"'%	c #171614",
")%	c #2C3339",
"!%	c #232124",
"~%	c #0B0D0A",
"{%	c #08090B",
"]%	c #0D0E12",
"^%	c #313133",
"/%	c #2A2A28",
"(%	c #60605E",
"_%	c #1A1C1B",
":%	c #5D5958",
"<%	c #1A1112",
"[%	c #121315",
"}%	c #2E302D",
"|%	c #080903",
"1%	c #0D0D0B",
"2%	c #333333",
"3%	c #2C2B29",
"4%	c #61615F",
"5%	c #0A0A0A",
"6%	c #5D5D5F",
"7%	c #262628",
"8%	c #29292B",
"9%	c #2E2E2E",
"0%	c #28282A",
"a%	c #636365",
"b%	c #2B2B2D",
"c%	c #606062",
". + . + . + @ # $ % & * = -           ",
"; > ; > ; > > ; , ' ) ! ~ { ] ^       ",
"/ ( / ( / ( _ : _ : < [ } | 1 2 3     ",
"4 5 4 5 4 5 5 6 5 7 8 9 0 8 a 7 b c   ",
"d d d d d d e e f g h i i h j k 3 l   ",
"m n m n m n o o p q r s s t u v w x y ",
"z A z A z A B B C D s E F s G H I J K ",
"z L z L z L B M N O P Q R S T U V W X ",
"Y L Y L Y L ] ] Z O `  ...S r +.@.#.2 ",
"Y $.Y $.Y $.%.M &.*.s =.-.;.>.C ,.'.).",
"!.{ !.{ !.{ ] ] ~.{.].^.^.]./.(.,._.:.",
"<.{ <.{ <.{ A B B ~.[.N N {.}.M |.1.2.",
"3.4.3.4.3.4.5.6.m L 7.}.8.9.A m 0.a.b.",
"c.d.c.d.c.d.5.e.<.z A B B f.m c.g.h.i.",
"4.d.4.d.4.d.e.z 4.d.z e.z z <.<.j.k.l.",
"d.d.d.d.d.d.4.z d.d.e.m.m.e.<.3.n.o.p.",
"m 5.m 5.m 5.q.5.q.e.5.z z 6.e.6.n.r.s.",
"q.5.q.5.q.5.e.6.z 6.e.z e.6.z 6.g.t.u.",
"e.e.e.e.e.e.e.e.e.z e.z 5.6.6.z n.v.u.",
"<.d.<.d.<.d.d.* q.5.e.6.5.z z 6.j.o.s.",
"d.d.d.d.d.d.d.d.z e.5.6.e.z z m w.x.y.",
"* * * * * * * * m m 5.e.e.6.z m g.! q.",
"z.z.z.z.z.z.z.z.q.A.6.e.e.m e.m g.v.B.",
"z.z.z.z.z.z.z.z.C.m A.z e.6.5.m D.v.E.",
"F.G.F.G.F.G.H.I.z.I.J.<.d.<.<.<.n.K.2.",
"L.D.L.D.L.D.M.G.z.I.J.<.d.<.<.c.n.K.2.",
"= 4.= 4.= 4.N.z.z.I.J.<.d.<.<.c.n.K.2.",
"O.P.O.P.O.P.Q.I.z.I.J.<.d.<.<.c.n.K.2.",
"        R.S.T.I.z.z.U.<.d.<.<.!.V.W.X.",
"        R.M.Y.H.z.I.w.3.<.d.3.<.p.Z.`.",
"        R.S.T.z.H.I.N.* <.d.4. +.+* ++",
"        R.S.@+I.G.I.#+* $+$+%+&+*+=+-+",
"        R.M.T.z.I.I.j.;+>+,+p.'+)+a.!+",
"        S.& Y.Z.H.z.~+{+@ ]++ ^+/+(+_+",
"        R.S.T.Z.:+G.J.. <+[+}+f.|+1+2+",
"        {+F.3++ F.I.:+p.4+5+L 6+7+8+9+",
"        0+a+b+c+d+e+f+g+h+i+j+k+l+m+n+",
"        o+p+q+r+s+t+u+0.v+w+x+y+z+A+B+",
"        C+D+E+F+G+z.H+I+J+K+L+M+N+O+P+",
"        Q+R+E+S+T+U+V+W+X+Y+Z+`+ @.@+@",
"        @@#@$@%@&@*@=@-@;@>@,@'@)@!@~@",
"        {@]@^@/@(@_@:@<@[@}@|@1@2@3@4@",
"        5@6@7@8@9@0@a@b@c@d@e@f@g@h@i@",
"        R.j@k@l@m@n@o@p@q@r@s@t@u@v@w@",
"        x@y@z@A@B@C@D@E@F@G@H@i I@J@K@",
"        L@M@N@O@P@Q@R@S@T@U@V@W@X@Y@Z@",
"        y@`@ #.#+#@###$#%#&#*#<+. $.=#",
"        -#;#>#,#% '#)#!#~#{#]#^#/#(#_#",
"        :#<#[#G+}#|#1#2#3#4#4+5#6#7#8#",
"        9#0#a#b#c#d#e#f#. g#h#i#j#k#l#",
"        m#n#o#p#q#r#s#t#u#t#v#w#x#y#O.",
"        z#A#B#C#D#E#e+F#G#H#I#J#0 K#L#",
"        0+a+b+c+d+e+f+g+M#N#O#P#Q#m+R#",
"        o+p+q+r+s+t+u+0.S#T#U#V#W#X#Y#",
"        C+D+E+F+G+z.H+I+Z#`# $.$+$@$#$",
"        Q+R+E+S+T+U+V+W+$$%$>@&$*$=$-$",
"        @@#@$@%@&@*@=@-@U#Z+;$>$,$'$)$",
"        {@]@^@/@(@_@:@<@!$~${$]$2@3@^$",
"        5@6@7@8@9@0@a@b@/$($_$:$<$[$}$",
"        R.j@k@l@m@n@o@p@|$1$2$3$4$5$6$",
"        7$R.8$9$0$a$b$c$d$e$f$g$h$i$J@",
"        j$M@k$l$m$n$o$p$q$r$s$t$o u$b.",
"        P.v$w$x$y$@#z$A$B$C$D$E$F$E#O.",
"        G$b.H$I$Z@J$K$L$M$(.$+N$F$O$P$",
"        0+Q$R$S$=#T$U$V$}.W$f+p.X$Y$% ",
"        Z$`$ %.#.%+%@%#%$%%%&%*%=%-%;%",
"        m#B.T.>%,%'%)%!%~%{%]%^%/%(%i.",
"        _%l#:%8#<%[%}%!+|%1%2%<.3%4%J@",
"        P.M.@+:+F.z.+ 5%. U.<.e.0.6%b.",
"        M.R.@+I.:+:+@ 5%J.* <.7%8%h.O.",
"        P.& Q.z.I.S.<+9%d.<.;+z 0%a%C#",
"        & S.T.z.z.G.2%c.{+;+d.6.b%c%O."};
