/* XPM */
static char * top_left_active_xpm[] = {
"15 72 540 2",
"  	c None",
". 	c #333436",
"+ 	c #242527",
"@ 	c #1D1E20",
"# 	c #050608",
"$ 	c #060606",
"% 	c #0D0D0D",
"& 	c #0B0D0C",
"* 	c #0C0E0D",
"= 	c #0E100F",
"- 	c #2A2B2F",
"; 	c #2B2C2E",
"> 	c #636365",
", 	c #8A8A8C",
"' 	c #979799",
") 	c #8F8D8E",
"! 	c #919191",
"~ 	c #8E908F",
"{ 	c #909291",
"] 	c #8E8E8E",
"^ 	c #1C2021",
"/ 	c #4C4D4F",
"( 	c #737373",
"_ 	c #7A7A7A",
": 	c #636361",
"< 	c #4B4A48",
"[ 	c #404042",
"} 	c #3E3E40",
"| 	c #3F3F41",
"1 	c #3D3D3F",
"2 	c #38393B",
"3 	c #1F2022",
"4 	c #58595B",
"5 	c #6A6B6D",
"6 	c #505251",
"7 	c #444444",
"8 	c #3B3B3B",
"9 	c #333333",
"0 	c #343436",
"a 	c #313133",
"b 	c #333335",
"c 	c #323234",
"d 	c #303032",
"e 	c #4F4F51",
"f 	c #666769",
"g 	c #414244",
"h 	c #3D3E40",
"i 	c #393A3C",
"j 	c #2D2E30",
"k 	c #2D2D2F",
"l 	c #2A2A2C",
"m 	c #2B2B2D",
"n 	c #363A3D",
"o 	c #2F2F2F",
"p 	c #6B6B6B",
"q 	c #484848",
"r 	c #363636",
"s 	c #2E2F31",
"t 	c #323335",
"u 	c #303133",
"v 	c #29292B",
"w 	c #262628",
"x 	c #242426",
"y 	c #252527",
"z 	c #313538",
"A 	c #535152",
"B 	c #666465",
"C 	c #393939",
"D 	c #323232",
"E 	c #717274",
"F 	c #3F4044",
"G 	c #28282A",
"H 	c #222224",
"I 	c #2A2E31",
"J 	c #676767",
"K 	c #505050",
"L 	c #303030",
"M 	c #2C2C2E",
"N 	c #2C2D2F",
"O 	c #3A3B3D",
"P 	c #212123",
"Q 	c #262A2D",
"R 	c #767678",
"S 	c #414143",
"T 	c #373739",
"U 	c #24282B",
"V 	c #3A3A3C",
"W 	c #1F1F1F",
"X 	c #212121",
"Y 	c #222222",
"Z 	c #1F1F21",
"` 	c #202022",
" .	c #757577",
"..	c #363638",
"+.	c #272729",
"@.	c #23272A",
"#.	c #202021",
"$.	c #232325",
"%.	c #262729",
"&.	c #747476",
"*.	c #353537",
"=.	c #222223",
"-.	c #18191B",
";.	c #212122",
">.	c #121315",
",.	c #202122",
"'.	c #141517",
").	c #222323",
"!.	c #1A1C1B",
"~.	c #212222",
"{.	c #202121",
"].	c #212223",
"^.	c #181C1D",
"/.	c #2F2F31",
"(.	c #1E2221",
"_.	c #232324",
":.	c #1E1E1E",
"<.	c #242424",
"[.	c #202020",
"}.	c #1C1E1D",
"|.	c #252525",
"1.	c #2B2B2B",
"2.	c #181818",
"3.	c #121212",
"4.	c #151515",
"5.	c #191B1A",
"6.	c #282828",
"7.	c #101010",
"8.	c #111111",
"9.	c #141414",
"0.	c #161616",
"a.	c #2E2E30",
"b.	c #131313",
"c.	c #838383",
"d.	c #C2C2C2",
"e.	c #6D6D6D",
"f.	c #212528",
"g.	c #131315",
"h.	c #151517",
"i.	c #111113",
"j.	c #858688",
"k.	c #505153",
"l.	c #545456",
"m.	c #232426",
"n.	c #25292C",
"o.	c #1B1B1B",
"p.	c #313131",
"q.	c #343434",
"r.	c #121013",
"s.	c #3F3D3E",
"t.	c #252523",
"u.	c #232524",
"v.	c #0A0A0A",
"w.	c #2C2C2C",
"x.	c #19171A",
"y.	c #403E3F",
"z.	c #272725",
"A.	c #212322",
"B.	c #0B0B0B",
"C.	c #3E3C3D",
"D.	c #292927",
"E.	c #222423",
"F.	c #797979",
"G.	c #080808",
"H.	c #434142",
"I.	c #282826",
"J.	c #72757A",
"K.	c #484349",
"L.	c #141615",
"M.	c #0C0904",
"N.	c #181D19",
"O.	c #2F312C",
"P.	c #161417",
"Q.	c #413F40",
"R.	c #1E201F",
"S.	c #747378",
"T.	c #34332F",
"U.	c #41413F",
"V.	c #0D1218",
"W.	c #0F060B",
"X.	c #11070F",
"Y.	c #171D19",
"Z.	c #34343E",
"`.	c #141215",
" +	c #24292C",
".+	c #727878",
"++	c #32373A",
"@+	c #2A332E",
"#+	c #383A39",
"$+	c #0F0A10",
"%+	c #030E08",
"&+	c #110D0C",
"*+	c #2D2C32",
"=+	c #242E30",
"-+	c #54655D",
";+	c #383842",
">+	c #313639",
",+	c #262425",
"'+	c #30352F",
")+	c #0C0C0E",
"!+	c #0A0404",
"~+	c #0C160D",
"{+	c #131114",
"]+	c #424041",
"^+	c #1F2120",
"/+	c #243338",
"(+	c #0C3040",
"_+	c #21323C",
":+	c #2F3A40",
"<+	c #28292B",
"[+	c #26232E",
"}+	c #2F2F2D",
"|+	c #0E0C11",
"1+	c #0D0906",
"2+	c #2A2A28",
"3+	c #202221",
"4+	c #23383D",
"5+	c #0596D5",
"6+	c #062E47",
"7+	c #1C3240",
"8+	c #293438",
"9+	c #1F2525",
"0+	c #1D1D27",
"a+	c #1A1416",
"b+	c #213A3F",
"c+	c #119DD2",
"d+	c #00A0E8",
"e+	c #092940",
"f+	c #19313B",
"g+	c #1F2E33",
"h+	c #1B2026",
"i+	c #1E261B",
"j+	c #363E40",
"k+	c #698EAB",
"l+	c #0AA3DD",
"m+	c #009CE3",
"n+	c #002C39",
"o+	c #122F2A",
"p+	c #222D2F",
"q+	c #222127",
"r+	c #303433",
"s+	c #1D1F1E",
"t+	c #263135",
"u+	c #5C8392",
"v+	c #3D7187",
"w+	c #05A3E4",
"x+	c #0899DA",
"y+	c #002B35",
"z+	c #102D29",
"A+	c #212A2F",
"B+	c #313534",
"C+	c #131416",
"D+	c #181212",
"E+	c #141412",
"F+	c #3C4240",
"G+	c #252E33",
"H+	c #657982",
"I+	c #295965",
"J+	c #31758C",
"K+	c #02A4ED",
"L+	c #0096DF",
"M+	c #032338",
"N+	c #152C3A",
"O+	c #2F3F3F",
"P+	c #12171A",
"Q+	c #161513",
"R+	c #3E4241",
"S+	c #282924",
"T+	c #252A2E",
"U+	c #6D7C81",
"V+	c #2B4651",
"W+	c #285461",
"X+	c #2C6E86",
"Y+	c #0BA4F2",
"Z+	c #0390D8",
"`+	c #022636",
" @	c #1F363E",
".@	c #101E21",
"+@	c #151716",
"@@	c #404241",
"#@	c #2A2925",
"$@	c #23262B",
"%@	c #64696D",
"&@	c #353F3E",
"*@	c #28444F",
"=@	c #1D4A5F",
"-@	c #2F697F",
";@	c #05A2EF",
">@	c #0492D2",
",@	c #072837",
"'@	c #112428",
")@	c #14191C",
"!@	c #121214",
"~@	c #3F4140",
"{@	c #292824",
"]@	c #242529",
"^@	c #1E181A",
"/@	c #283130",
"(@	c #2E3842",
"_@	c #1E404A",
":@	c #1A4A5E",
"<@	c #2A6B87",
"[@	c #05A6EC",
"}@	c #0486C2",
"|@	c #122A2E",
"1@	c #141C1E",
"2@	c #404040",
"3@	c #171719",
"4@	c #0F0D0E",
"5@	c #2A2F35",
"6@	c #242F35",
"7@	c #20393E",
"8@	c #174856",
"9@	c #256F8A",
"0@	c #069EDF",
"a@	c #12292F",
"b@	c #171C20",
"c@	c #252628",
"d@	c #2B2A25",
"e@	c #070707",
"f@	c #0F0E14",
"g@	c #22222A",
"h@	c #222E2E",
"i@	c #183A43",
"j@	c #1A4150",
"k@	c #316573",
"l@	c #11252C",
"m@	c #161A1D",
"n@	c #272924",
"o@	c #1D2122",
"p@	c #232728",
"q@	c #767B77",
"r@	c #1C1920",
"s@	c #07080A",
"t@	c #0C0C0A",
"u@	c #1A232A",
"v@	c #1E292F",
"w@	c #202E37",
"x@	c #2F434E",
"y@	c #0F2228",
"z@	c #17181C",
"A@	c #161115",
"B@	c #1E2223",
"C@	c #737478",
"D@	c #454545",
"E@	c #161618",
"F@	c #080904",
"G@	c #080D13",
"H@	c #1B1D29",
"I@	c #202731",
"J@	c #313540",
"K@	c #3E3E3C",
"L@	c #1F2024",
"M@	c #757376",
"N@	c #33342F",
"O@	c #42413C",
"P@	c #0D1216",
"Q@	c #0B0706",
"R@	c #110706",
"S@	c #142118",
"T@	c #34383B",
"U@	c #3F3E3C",
"V@	c #23282B",
"W@	c #75767B",
"X@	c #32363F",
"Y@	c #2E302D",
"Z@	c #393B3A",
"`@	c #020C01",
" #	c #0E0D08",
".#	c #2D2D2B",
"+#	c #131514",
"@#	c #403F3D",
"##	c #232D2F",
"$#	c #556461",
"%#	c #383641",
"&#	c #32353E",
"*#	c #27252A",
"=#	c #0B0A12",
"-#	c #0D1613",
";#	c #233235",
">#	c #0C303E",
",#	c #213438",
"'#	c #2E3B41",
")#	c #262B27",
"!#	c #2F3130",
"~#	c #0E0E10",
"{#	c #0B090A",
"]#	c #22373C",
"^#	c #0198D1",
"/#	c #1A353C",
"(#	c #263435",
"_#	c #1D2623",
":#	c #1B2023",
"<#	c #171310",
"[#	c #213A3E",
"}#	c #119ED4",
"|#	c #009FEB",
"1#	c #062A40",
"2#	c #18303C",
"3#	c #1F2E35",
"4#	c #192124",
"5#	c #21241D",
"6#	c #353E3D",
"7#	c #141213",
"8#	c #223B40",
"9#	c #6990AD",
"0#	c #0CA1DB",
"a#	c #009BE5",
"b#	c #032A39",
"c#	c #162F2C",
"d#	c #222C35",
"e#	c #261F27",
"f#	c #333438",
"g#	c #141416",
"h#	c #272727",
"i#	c #1C2023",
"j#	c #5D8493",
"k#	c #3C7085",
"l#	c #09A6E9",
"m#	c #0596D9",
"n#	c #002933",
"o#	c #222C2E",
"p#	c #303531",
"q#	c #171111",
"r#	c #131311",
"s#	c #3A403E",
"t#	c #697C8A",
"u#	c #255561",
"v#	c #30748B",
"w#	c #05A8ED",
"x#	c #0098DC",
"y#	c #06273A",
"z#	c #112836",
"A#	c #314043",
"B#	c #151412",
"C#	c #3B3F3E",
"D#	c #272823",
"E#	c #232B2E",
"F#	c #6A7A7A",
"G#	c #2E4952",
"H#	c #275262",
"I#	c #2A6C86",
"J#	c #0BA3F6",
"K#	c #028ED9",
"L#	c #032735",
"M#	c #20373D",
"N#	c #3D3F3E",
"O#	c #6D7278",
"P#	c #343E3F",
"Q#	c #1C495E",
"R#	c #2F697D",
"S#	c #09A7F1",
"T#	c #0290D0",
"U#	c #052637",
"V#	c #13181B",
"W#	c #3C3E3D",
"X#	c #282723",
"Y#	c #232428",
"Z#	c #5E585C",
"`#	c #2E3736",
" $	c #2D3740",
".$	c #20424C",
"+$	c #164758",
"@$	c #2D6E8A",
"#$	c #04A5EB",
"$$	c #0688C6",
"%$	c #3D3D3D",
"&$	c #272622",
"*$	c #222325",
"=$	c #0F0F0D",
"-$	c #2A2927",
";$	c #282D33",
">$	c #26303A",
",$	c #1D353F",
"'$	c #164756",
")$	c #256F88",
"!$	c #069EDD",
"~$	c #161B1F",
"{$	c #3C3C3C",
"]$	c #262722",
"^$	c #060501",
"/$	c #060608",
"($	c #232227",
"_$	c #222327",
":$	c #24302C",
"<$	c #183B41",
"[$	c #194051",
"}$	c #326578",
"|$	c #3B3D3C",
"1$	c #252722",
"2$	c #1B201A",
"3$	c #010005",
"4$	c #1C1C1A",
"5$	c #192229",
"6$	c #1F2A30",
"7$	c #212F38",
"8$	c #2E424B",
"9$	c #0E2127",
"0$	c #707070",
"a$	c #000000",
"b$	c #191D1E",
"c$	c #1A1E21",
"d$	c #202528",
"e$	c #33383B",
"f$	c #151618",
"g$	c #3A3A38",
"h$	c #1E1F23",
"i$	c #747474",
"j$	c #000002",
"k$	c #040507",
"l$	c #171B1C",
"m$	c #191D20",
"n$	c #2F3336",
"o$	c #3B3A38",
"p$	c #1D1E22",
"q$	c #3C3C3E",
"r$	c #0B0B0D",
"s$	c #010103",
"t$	c #1A1B1D",
"u$	c #76757A",
"v$	c #040406",
"w$	c #010101",
"x$	c #060405",
"y$	c #292728",
"z$	c #111214",
"A$	c #727176",
"B$	c #080607",
"C$	c #010000",
"D$	c #0E0C0D",
"E$	c #3C3B39",
"F$	c #040404",
"G$	c #757575",
"H$	c #2E2E2E",
"I$	c #292929",
"J$	c #232323",
"K$	c #292B2A",
"L$	c #090B0A",
"M$	c #262626",
"N$	c #1C1D21",
"O$	c #262827",
"          . + @ # $ % & * = = ",
"        - ; > , ' ) ! ! ~ { ] ",
"      ^ / ( _ : < [ } } | } 1 ",
"  2 3 4 5 6 7 8 9 0 a a b c c ",
"  d e f g h i . j k l l m m m ",
"n o p q r . s t u v w x y w w ",
"z A B C D ; . E F G x H H H H ",
"I J K r L M N i O G x H H P H ",
"Q R S T v x y w m x H P P P P ",
"U R V b m y W X Y P Z ` P ` ` ",
"U  ...a +.H Z P P Z P H ` ` H ",
"@. ...a +.H Z P P H ` P H P H ",
"@. ...d +.H Z P P #.P #.` $.` ",
"%.&.*.d +.H Z P P =.` ` P ` $.",
"-.&.*.d +.H Z P P #.;.X =.P y ",
">.&.*.d +.H Z P P X Y W X ,.x ",
"'.&.*.d +.H Z P P W X X X ).x ",
"!. .*.d +.H Z P P W ~.{.~.].$.",
"^.&.../.G H Z ` H P P #.H ` P ",
"(.&.../.G P Z ` P #.;.#.H ;._.",
"!.&.*.d G ` Z ` ` :.<.W Y X [.",
"}.&.*.d G ` ` ` ` X |.[.X X W ",
"}.&.*.d G ` ` ` x 1.X 2.3.4.3.",
"5. .*.d G P Z ` v 6.7.3.8.9.0.",
"'. .*.d +.H Z ` a.4.4.9.0.9.b.",
"-. .*./.+.H Z ` c 9.4.b.c.d.e.",
"f.&.*.d +.H Z ` c g.h.i.j.k.L ",
"@.&.*.d +.H Z ` c 8.b.9.l.N m.",
"n.o.p.o 6.W X o.q.b.9.r.s.t.u.",
"n.4.v.w.6.[.:.X 9 3.3.x.y.z.A.",
"n.w.B.% X X W X p.4.0.r.C.D.E.",
"n.F.2.B.G.[.W X p.8.4.r.H.I.A.",
"+.J.K.L.M.B.N.P O.0.3.P.Q.I.R.",
"%.S.T.U.V.W.X.Y.Z.3.b.`.y.z.u.",
" +.+++@+#+$+%+&+*+b.0.`.Q.t.E.",
"=+-+;+>+,+'+)+!+~+b.9.{+]+z.^+",
"/+(+_+:+<+[+}+|+1+3.b.`.]+2+3+",
"4+5+6+7+8+9+0+L a+b.4.P.s.D.3+",
"b+c+d+e+f+g+h+i+j+3.9.`.C.D.^+",
"b+k+l+m+n+o+p+q+r+b.9.`.]+2+s+",
"t+u+v+w+x+y+z+A+B+C+D+E+F+I.P ",
"G+H+I+J+K+L+M+N+O+P+Q+b.R+S+P ",
"T+U+V+W+X+Y+Z+`+ @.@+@3.@@#@X ",
"$@%@&@*@=@-@;@>@,@'@)@!@~@{@[.",
"]@^@/@(@_@:@<@[@}@|@1@!@2@{@[.",
"+ 3@4@5@6@7@8@9@0@a@b@`.2@S+^+",
"c@d@e@f@g@h@i@j@k@l@m@`.~@n@o@",
"p@q@r@s@t@u@v@w@x@y@z@A@~@n@B@",
"w C@D@E@F@G@H@I@J@'.L.9.K@6.L@",
"c@M@N@O@P@Q@R@S@T@C+L.9.U@6.L@",
"V@W@X@Y@Z@$+`@ #.#C++#9.@#6.L@",
"##$#%#&#*#B+=#!+-#>.9.9.U@6.L@",
";#>#,#'#)#[+!#~#{#>.9.b.U@6.L@",
"]#^#6+/#(#_#:#p.<#>.9.b.U@6.L@",
"[#}#|#1#2#3#4#5#6#>.9.7#U@6.L@",
"8#9#0#a#b#c#d#e#f#g#9.7#U@h#i#",
"t+j#k#l#m#n#z+o#p#C+q#r#s#z.Z ",
"G+t#u#v#w#x#y#z#A#P+B#b.C#D#Z ",
"E#F#G#H#I#J#K#L#M#.@L.3.N#{@W ",
"$@O#P#*@Q#R#S#T#U#'@V#!@W#X#:.",
"Y#Z#`# $.$+$@$#$$$|@1@!@%$&$:.",
"*$=$-$;$>$,$'$)$!$a@~$`.{$]$s+",
"m.^$/$($_$:$<$[$}$l@m@`.|$1$^ ",
"m.2$3$s@4$5$6$7$8$9$z@A@|$1$o@",
"]@0$7.a$# b$c$d$e$f$+@9.g$h#h$",
"]@i$%$% j$k$l$m$n$'.L.b.o$h#p$",
"]@&.T q$r$s$s$t$s >.+#b.o$h#p$",
"]@u$0 b b v$w$x$y$z$b.b.o$h#p$",
"]@A$0 a l D B$C$D$z$b.b.E$h#p$",
"]@ .*.c y Y w.$ F$>.9.b.E$h#p$",
"]@G$r H$I$J$u.K$L$>.9.7#o$M$N$",
"]@( q.L O$3+3 m.i g.9.7#o$|.c$"};
