/* XPM */
static char * top_left_inactive_xpm[] = {
"15 72 237 2",
"  	c None",
". 	c #3C3D41",
"+ 	c #333436",
"@ 	c #242527",
"# 	c #1D1E20",
"$ 	c #050608",
"% 	c #060606",
"& 	c #0D0D0D",
"* 	c #0B0D0C",
"= 	c #0C0E0D",
"- 	c #0E100F",
"; 	c #2A2B2F",
"> 	c #2B2C2E",
", 	c #636365",
"' 	c #8A8A8C",
") 	c #979799",
"! 	c #8F8D8E",
"~ 	c #919191",
"{ 	c #8E908F",
"] 	c #909291",
"^ 	c #8E8E8E",
"/ 	c #1C2021",
"( 	c #4C4D4F",
"_ 	c #737373",
": 	c #7A7A7A",
"< 	c #636361",
"[ 	c #4B4A48",
"} 	c #404042",
"| 	c #3E3E40",
"1 	c #3F3F41",
"2 	c #3D3D3F",
"3 	c #1F2022",
"4 	c #58595B",
"5 	c #6A6B6D",
"6 	c #505251",
"7 	c #444444",
"8 	c #3B3B3B",
"9 	c #333333",
"0 	c #343436",
"a 	c #313133",
"b 	c #333335",
"c 	c #323234",
"d 	c #303032",
"e 	c #4F4F51",
"f 	c #666769",
"g 	c #414244",
"h 	c #3D3E40",
"i 	c #393A3C",
"j 	c #2D2E30",
"k 	c #2D2D2F",
"l 	c #2A2A2C",
"m 	c #2B2B2D",
"n 	c #363A3D",
"o 	c #2F2F2F",
"p 	c #6B6B6B",
"q 	c #484848",
"r 	c #363636",
"s 	c #2E2F31",
"t 	c #323335",
"u 	c #303133",
"v 	c #29292B",
"w 	c #262628",
"x 	c #242426",
"y 	c #252527",
"z 	c #313538",
"A 	c #535152",
"B 	c #666465",
"C 	c #393939",
"D 	c #323232",
"E 	c #717274",
"F 	c #3F4044",
"G 	c #28282A",
"H 	c #222224",
"I 	c #2A2E31",
"J 	c #676767",
"K 	c #505050",
"L 	c #303030",
"M 	c #2C2C2E",
"N 	c #2C2D2F",
"O 	c #3A3B3D",
"P 	c #212123",
"Q 	c #262A2D",
"R 	c #767678",
"S 	c #414143",
"T 	c #373739",
"U 	c #24282B",
"V 	c #3A3A3C",
"W 	c #1F1F1F",
"X 	c #212121",
"Y 	c #222222",
"Z 	c #1F1F21",
"` 	c #202022",
" .	c #757577",
"..	c #363638",
"+.	c #272729",
"@.	c #23272A",
"#.	c #202021",
"$.	c #232325",
"%.	c #262729",
"&.	c #747476",
"*.	c #353537",
"=.	c #222223",
"-.	c #18191B",
";.	c #212122",
">.	c #121315",
",.	c #202122",
"'.	c #141517",
").	c #222323",
"!.	c #1A1C1B",
"~.	c #212222",
"{.	c #202121",
"].	c #212223",
"^.	c #181C1D",
"/.	c #2F2F31",
"(.	c #1E2221",
"_.	c #232324",
":.	c #1E1E1E",
"<.	c #242424",
"[.	c #202020",
"}.	c #1C1E1D",
"|.	c #252525",
"1.	c #2B2B2B",
"2.	c #181818",
"3.	c #121212",
"4.	c #151515",
"5.	c #191B1A",
"6.	c #282828",
"7.	c #101010",
"8.	c #111111",
"9.	c #141414",
"0.	c #161616",
"a.	c #2E2E30",
"b.	c #131313",
"c.	c #838383",
"d.	c #C2C2C2",
"e.	c #6D6D6D",
"f.	c #212528",
"g.	c #131315",
"h.	c #151517",
"i.	c #111113",
"j.	c #858688",
"k.	c #505153",
"l.	c #545456",
"m.	c #232426",
"n.	c #252628",
"o.	c #1A1B1D",
"p.	c #2E2E2E",
"q.	c #313131",
"r.	c #1D1D1F",
"s.	c #3F3F3F",
"t.	c #292929",
"u.	c #262626",
"v.	c #0B0B0B",
"w.	c #0C0C0C",
"x.	c #1C1C1E",
"y.	c #3E3E3E",
"z.	c #232323",
"A.	c #28292B",
"B.	c #77787A",
"C.	c #191919",
"D.	c #080808",
"E.	c #464646",
"F.	c #090909",
"G.	c #09090B",
"H.	c #272727",
"I.	c #353535",
"J.	c #3D3D3D",
"K.	c #0A0A0C",
"L.	c #1C1C1C",
"M.	c #757678",
"N.	c #101012",
"O.	c #070709",
"P.	c #2C2C2C",
"Q.	c #404040",
"R.	c #656567",
"S.	c #373737",
"T.	c #0E0E10",
"U.	c #414141",
"V.	c #2A2A2A",
"W.	c #222325",
"X.	c #2D2D2D",
"Y.	c #292A2C",
"Z.	c #0F0F0F",
"`.	c #79797B",
" +	c #1E1E20",
".+	c #343434",
"++	c #1B1B1D",
"@+	c #424242",
"#+	c #0B0B0D",
"$+	c #727274",
"%+	c #3A3A3A",
"&+	c #0D0D0F",
"*+	c #08080A",
"=+	c #656668",
"-+	c #1C1D1F",
";+	c #131416",
">+	c #27282A",
",+	c #0A0A0A",
"'+	c #7A7B7D",
")+	c #727375",
"!+	c #0C0C0E",
"~+	c #737476",
"{+	c #171717",
"]+	c #0E0E0E",
"^+	c #7B7C7E",
"/+	c #3C3C3C",
"(+	c #1D1D1D",
"_+	c #6F7072",
":+	c #1E1F21",
"<+	c #5A5B5D",
"[+	c #101113",
"}+	c #0F1012",
"|+	c #040507",
"1+	c #050507",
"2+	c #151618",
"3+	c #000002",
"4+	c #070707",
"5+	c #6D6E70",
"6+	c #000000",
"7+	c #050505",
"8+	c #161719",
"9+	c #747675",
"0+	c #010101",
"a+	c #040404",
"b+	c #1B1B1B",
"c+	c #1A1A1A",
"d+	c #000100",
"e+	c #050706",
"f+	c #111214",
"g+	c #39393B",
"h+	c #2A2C2B",
"i+	c #030303",
"j+	c #707072",
"k+	c #222423",
"l+	c #737375",
"m+	c #1E201F",
"n+	c #383838",
"        . + @ # $ % & * = - - ",
"        ; > , ' ) ! ~ ~ { ] ^ ",
"      / ( _ : < [ } | | 1 | 2 ",
"    3 4 5 6 7 8 9 0 a a b c c ",
"  d e f g h i + j k l l m m m ",
"n o p q r + s t u v w x y w w ",
"z A B C D > + E F G x H H H H ",
"I J K r L M N i O G x H H P H ",
"Q R S T v x y w m x H P P P P ",
"U R V b m y W X Y P Z ` P ` ` ",
"U  ...a +.H Z P P Z P H ` ` H ",
"@. ...a +.H Z P P H ` P H P H ",
"@. ...d +.H Z P P #.P #.` $.` ",
"%.&.*.d +.H Z P P =.` ` P ` $.",
"-.&.*.d +.H Z P P #.;.X =.P y ",
">.&.*.d +.H Z P P X Y W X ,.x ",
"'.&.*.d +.H Z P P W X X X ).x ",
"!. .*.d +.H Z P P W ~.{.~.].$.",
"^.&.../.G H Z ` H P P #.H ` P ",
"(.&.../.G P Z ` P #.;.#.H ;._.",
"!.&.*.d G ` Z ` ` :.<.W Y X [.",
"}.&.*.d G ` ` ` ` X |.[.X X W ",
"}.&.*.d G ` ` ` x 1.X 2.3.4.3.",
"5. .*.d G P Z ` v 6.7.3.8.9.0.",
"'. .*.d +.H Z ` a.4.4.9.0.9.b.",
"-. .*./.+.H Z ` c 9.4.b.c.d.e.",
"f.&.*.d +.H Z ` c g.h.i.j.k.L ",
"@.&.*.d +.H Z ` c 8.b.9.l.N m.",
"n.o.p.q.|.$.r.W L b.9.b.s.t.[.",
"%.'.& 1.u.P P X D 9.9.3.s.t.Y ",
"%.> v.w.<.y x.[.D 9.4.b.y.6.z.",
"A.B.C.D.w.r.` :.L 3.4.4.y.u.Y ",
"n.E E.0.F.G.r.Y 9 3.b.9.s.H.X ",
"@ B.I.J.3.K.K.L.9 9.3.b.s.6.Y ",
"%.M.9 D r N.O.& P.9.b.b.Q.t.Y ",
"n.R.S.o u.c T.F.& 9.8.9.U.6.X ",
"n.r.P.L u.$./.v.8.9.4.9.J.V.[.",
"W.h.w.X.V.r.P D 7.8.9.b.U.1.W ",
"Y.G Z.D.X H Z [.s.3.9.Z.U.6.X ",
"%.`.4.& &  +P :..+9.9.9.U.H.W ",
"@ &.7 8.v.K.++Y q.3.9.Z.@+6.X ",
"@  .r @+7.O.#+:.L 4.b.9.Q.1.:.",
"%.$+I.o %+&+*+v.o 8.0.3.U.6.X ",
"m.=+r q.|.b T.F.& 9.3.4.Q.u.X ",
"%.-+p.o H.H a.v.8.9.4.4.J.t.W ",
"W.;+& P.1.r.P D 7.8.4.b.U.V.W ",
">+>+& ,+[.$.` X y.3.4.7.Q.H.X ",
"n.'+9.Z.v. +` :..+9.4.9.Q.u.W ",
"n.)+E.7.w.G.x.Y q.3.4.Z.U.H.X ",
"@ )+S.Q.3.O.!+W o 4.b.9.s.V.:.",
"%.~+.+L C &+O.w.o 8.{+3.Q.H.X ",
"@ f I.q.u.0 T.F.]+b.b.9.s.u.[.",
">+-+p.o H.H a.v.8.b.4.4.8 V.:.",
"m.;+& P.1.r.` D 7.3.b.4.y.1.:.",
"A.A.& F.[.$.Z [.y.9.b.3.J.t.[.",
"%.^+b.]+w. +Z :..+0.3.0.J.H.:.",
"%.)+E.7.w.G.++Y q.b.9.7.J.6.[.",
"@ ~+S.Q.3.*+!+:.L 4.b.9./+V.(+",
">+~+9 L C &+O.v.q.8.2.7.y.u.[.",
"n._+b d +.b w.,+Z.3.9.4.%+t.:.",
":+<+b /.y [.q.v.w.9.b.3.8 6.W ",
"m.[+x m 6.X [.q.3.9.9.4.J.|.[.",
"}+|+1+z.z.W :.W Q.3.4.8.8 |.X ",
"2+-+3+4+(+X (+X q.b.9.b.y.H.(+",
"# 5+8.6+7+C.(+X D 8.0.b.8 |.[.",
"8+9+s.,+0+a+2.b+D 3.3.2.S.u.:.",
"!.9+r J.D.6+4+c+p.b.0.]+J.H.:.",
"-. ...b 9 4+d+4+|.9.9.8./+u.W ",
"8+&.b c H.L e+6+]+3.9.0.%+|.b+",
"f+&.g+/.H.u.h+% i+Z.9.b.8 |.W ",
"N j+..k t.[.k+p.F.4.3.9.8 |.(+",
"n.l+..b |.X m+z.C 0.b.3.n+|.:."};
